<?xml version="1.0" encoding="iso-8859-1"?>
<!-- Generator: Adobe Illustrator 19.0.0, SVG Export Plug-In . SVG Version: 6.00 Build 0)  -->
<svg xmlns="http://www.w3.org/2000/svg" xmlns:xlink="http://www.w3.org/1999/xlink" version="1.1" id="Capa_1" x="0px" y="0px" viewBox="0 0 465.007 465.007" style="enable-background:new 0 0 465.007 465.007;" xml:space="preserve" width="512" height="512">
<g>
	<path style="fill:#FFC9C2;" d="M257.803,290.153l-25.3,15.45l-25.3-15.45c0-8.53,6.92-15.44,15.45-15.44h19.7   C250.883,274.713,257.803,281.623,257.803,290.153z"/>
	<path style="fill:#FFE76D;" d="M325.143,166.093c24.04,0,43.53,19.49,43.53,43.53s-19.49,43.54-43.53,43.54   s-43.54-19.5-43.54-43.54S301.103,166.093,325.143,166.093z"/>
	<path style="fill:#FFE76D;" d="M139.863,166.093c24.04,0,43.54,19.49,43.54,43.53s-19.5,43.54-43.54,43.54s-43.53-19.5-43.53-43.54   S115.823,166.093,139.863,166.093z"/>
	<path style="fill:#CFC8AB;" d="M232.503,305.603l25.3-15.45c0-8.53-6.92-15.44-15.45-15.44h-19.7c-8.53,0-15.45,6.91-15.45,15.44   L232.503,305.603z M443.493,43.523c20.3,10.81,18.58,87.1-5.41,176.26c0,80.63-24.55,203.33-205.58,203.33   s-205.58-122.7-205.58-203.33c-23.99-89.16-25.71-165.45-5.41-176.26c15.16-8.08,53.75,14.42,97.55,55.34   c32.4-14.93,71.33-23.58,113.44-23.58s81.04,8.65,113.44,23.58C389.743,57.943,428.333,35.443,443.493,43.523z M368.673,209.623   c0-24.04-19.49-43.53-43.53-43.53s-43.54,19.49-43.54,43.53s19.5,43.54,43.54,43.54S368.673,233.663,368.673,209.623z    M183.403,209.623c0-24.04-19.5-43.53-43.54-43.53s-43.53,19.49-43.53,43.53s19.49,43.54,43.53,43.54   S183.403,233.663,183.403,209.623z"/>
	<path style="fill:#591200;" d="M447.015,36.898c-3.124-1.664-6.806-2.507-10.942-2.507c-27.259,0-70.72,36.506-91.582,55.6   c-33.418-14.538-72.017-22.204-111.988-22.204s-78.57,7.666-111.988,22.204c-20.862-19.093-64.323-55.6-91.581-55.6   c-4.136,0-7.818,0.843-10.942,2.507C5.095,43.765-0.92,65.831,0.114,102.482c0.939,33.271,7.792,75.245,19.309,118.294   c0.142,55.84,12.345,101.332,36.274,135.234c34.943,49.504,94.429,74.605,176.807,74.605s141.864-25.101,176.807-74.605   c23.93-33.902,36.132-79.394,36.274-135.234c11.517-43.048,18.37-85.022,19.309-118.294   C465.927,65.831,459.912,43.766,447.015,36.898z M449.899,102.06c-0.914,32.377-7.681,73.494-19.056,115.775   c-0.171,0.635-0.257,1.291-0.257,1.948c0,129.945-66.645,195.832-198.083,195.832S34.421,349.728,34.421,219.783   c0-0.658-0.086-1.313-0.257-1.948c-11.375-42.282-18.142-83.398-19.056-115.775c-0.957-33.91,4.753-49.163,9.934-51.921   c0.918-0.489,2.265-0.747,3.893-0.747c12.08,0,41.591,14.391,85.005,54.949c2.227,2.08,5.491,2.606,8.258,1.332   c32.498-14.971,70.641-22.885,110.305-22.885s77.808,7.914,110.305,22.885c2.767,1.276,6.032,0.749,8.258-1.332   c43.414-40.558,72.925-54.949,85.006-54.949c1.628,0,2.975,0.258,3.893,0.747C445.146,52.897,450.856,68.15,449.899,102.06z"/>
	<path style="fill:#591200;" d="M271.373,337.973c-16.248,0-29.648-12.417-31.214-28.26l21.55-13.156   c2.231-1.362,3.592-3.788,3.592-6.401c0-12.651-10.292-22.943-22.944-22.943H222.65c-12.651,0-22.944,10.292-22.944,22.943   c0,2.614,1.361,5.04,3.592,6.401l21.55,13.156c-1.566,15.843-14.966,28.26-31.214,28.26c-4.142,0-7.5,3.358-7.5,7.5   s3.358,7.5,7.5,7.5c16.264,0,30.59-8.424,38.869-21.132c8.279,12.707,22.605,21.132,38.869,21.132c4.142,0,7.5-3.358,7.5-7.5   S275.515,337.973,271.373,337.973z M222.65,282.211h19.707c3.061,0,5.722,1.74,7.048,4.282l-16.902,10.318l-16.902-10.318   C216.928,283.951,219.589,282.211,222.65,282.211z"/>
	<path style="fill:#591200;" d="M139.865,158.591c-28.14,0-51.034,22.894-51.034,51.034s22.894,51.034,51.034,51.034   s51.034-22.894,51.034-51.034S168.005,158.591,139.865,158.591z M139.865,245.659c-19.869,0-36.034-16.165-36.034-36.034   s16.165-36.034,36.034-36.034s36.034,16.165,36.034,36.034S159.734,245.659,139.865,245.659z"/>
	<path style="fill:#591200;" d="M139.865,185.961c-4.142,0-7.5,3.358-7.5,7.5v32.327c0,4.142,3.358,7.5,7.5,7.5s7.5-3.358,7.5-7.5   v-32.327C147.365,189.319,144.007,185.961,139.865,185.961z"/>
	<path style="fill:#591200;" d="M325.142,158.591c-28.14,0-51.034,22.894-51.034,51.034s22.894,51.034,51.034,51.034   s51.034-22.894,51.034-51.034S353.282,158.591,325.142,158.591z M325.142,245.659c-19.869,0-36.034-16.165-36.034-36.034   s16.165-36.034,36.034-36.034s36.034,16.165,36.034,36.034S345.011,245.659,325.142,245.659z"/>
	<path style="fill:#591200;" d="M325.142,185.961c-4.142,0-7.5,3.358-7.5,7.5v32.327c0,4.142,3.358,7.5,7.5,7.5s7.5-3.358,7.5-7.5   v-32.327C332.642,189.319,329.284,185.961,325.142,185.961z"/>
</g>















</svg>
