<?xml version="1.0" encoding="utf-8"?>
<!-- Generator: Adobe Illustrator 16.0.0, SVG Export Plug-In . SVG Version: 6.00 Build 0)  -->
<!DOCTYPE svg PUBLIC "-//W3C//DTD SVG 1.1//EN" "http://www.w3.org/Graphics/SVG/1.1/DTD/svg11.dtd">
<svg version="1.1" id="Layer_1" xmlns="http://www.w3.org/2000/svg" xmlns:xlink="http://www.w3.org/1999/xlink" x="0px" y="0px"
	 width="194.401px" height="137.935px" viewBox="0 0 194.401 137.935" enable-background="new 0 0 194.401 137.935"
	 xml:space="preserve">
<g>
	<g>
		<path fill="#AD7F53" d="M184.277,59.705c0,0-5.77,7.55-3.93,22.621c-4.42-8.801-9.57-14.121-9.851-14.411
			c1.66-8.94,0.711-18.93-4.35-26.7l0.03-0.02C166.178,41.195,176.518,49.165,184.277,59.705z"/>
		<path fill="#AD7F53" d="M170.497,67.915c-0.51,2.77-1.27,5.45-2.239,7.92c-7.25,18.5,1.5,30.08,1.5,30.08l-2.75,24.43l-4.5,6.59
			h-11.28h-2.22c0-9,9.5-10.58,9.5-10.58c0-13.5-6-20.09-15.25-26.34s-19-18.73-19-18.73c-11,7.5-44.5,10.051-49.25,10.051
			c-0.73,0-1.431,0.16-2.08,0.42l-0.03-0.08c0,0-17.72-15.26-7.39-32.26c10.12-16.63,8.33-31.03,8.25-31.65
			c14.75,7.75,28.5,0.02,63,0.02c15.01,0,24.29,5.59,29.39,13.43C171.208,48.985,172.157,58.975,170.497,67.915z"/>
		<path fill="#AD7F53" d="M62.107,18.935c0,0.82-0.11,27.83-19.1,26.15c-5.261-0.47-9.69-1.98-13.32-4.19
			c-8.01-4.85-12.17-13.07-12.91-20.98c-0.67-7.21-2.38-13.37-2.46-13.67c3.74-4.23,8.94-4.74,8.94-4.74
			C43.777,1.505,53.157,10.765,62.107,18.935z"/>
	</g>
	<path fill="#283A82" d="M38.228,137.935h32c0.828,0,1.5-0.672,1.5-1.5s-0.672-1.5-1.5-1.5h-32c-0.828,0-1.5,0.672-1.5,1.5
		S37.399,137.935,38.228,137.935"/>
	<path fill="#283A82" d="M148.228,137.935h22c0.828,0,1.5-0.672,1.5-1.5s-0.672-1.5-1.5-1.5h-22c-0.828,0-1.5,0.672-1.5,1.5
		S147.399,137.935,148.228,137.935"/>
	<path fill="#283A82" d="M176.228,137.935h6c0.828,0,1.5-0.672,1.5-1.5s-0.672-1.5-1.5-1.5h-6c-0.828,0-1.5,0.672-1.5,1.5
		S175.399,137.935,176.228,137.935"/>
	<g>
		<path fill="#283A82" d="M20.198,47.206c0.009,0.05,1.104,6.468,3.815,14.618c2.722,8.151,7.026,18.042,13.655,25.078l1.091-1.029
			l-1.477,0.264l5.5,30.688l0.067,0.251l1.824,4.987l-2.095,6.59l1.43,0.455l-0.054-1.499c-0.097,0.009-2.536,0.081-5.145,1.151
			c-1.303,0.541-2.668,1.344-3.747,2.604c-1.082,1.251-1.814,2.99-1.805,5.072c0,0.395,0.16,0.781,0.439,1.061
			s0.665,0.439,1.061,0.439h15.75c0.647,0,1.222-0.414,1.425-1.029l0.005-0.016c0.072-0.221,0.905-2.587,2.349-4.786
			c0.718-1.1,1.588-2.149,2.525-2.877c0.945-0.731,1.902-1.134,2.946-1.136c0.742,0,1.376-0.547,1.483-1.281l4.25-28.797
			l-1.483-0.219l1.343,0.668l-0.322-0.16l0.321,0.162l0.001-0.002l-0.322-0.16l0.321,0.162c0.014-0.032,0.804-1.574,2.073-3.021
			c0.631-0.725,1.38-1.42,2.167-1.906c0.792-0.49,1.594-0.766,2.418-0.766c0.653-0.001,1.707-0.041,3.118-0.126
			c4.927-0.296,14.108-1.13,23.321-2.722c4.607-0.797,9.22-1.781,13.323-2.994c4.106-1.219,7.699-2.643,10.332-4.432l-0.845-1.238
			l-1.183,0.922c0.018,0.021,2.476,3.173,6.11,7.121c3.64,3.951,8.434,8.696,13.232,11.943c4.561,3.08,8.194,6.11,10.679,9.906
			c2.48,3.799,3.904,8.407,3.911,14.942h1.5l-0.21-1.485c-0.114,0.021-2.655,0.37-5.326,2.003c-1.331,0.819-2.702,1.977-3.743,3.603
			c-1.043,1.621-1.725,3.707-1.721,6.221c0,0.395,0.16,0.781,0.439,1.061s0.665,0.439,1.061,0.439h13.5
			c0.486,0,0.942-0.235,1.224-0.633l4.5-6.344c0.146-0.207,0.238-0.446,0.267-0.699l2.75-24.297
			c0.043-0.381-0.063-0.771-0.296-1.076l0,0c-0.141-0.189-4.073-5.604-4.069-14.769c0.001-3.925,0.715-8.55,2.771-13.8
			c1.954-4.99,3.095-10.717,3.097-16.503c0-8.22-2.316-16.616-8.06-22.994c-2.868-3.184-6.587-5.84-11.22-7.682
			c-4.635-1.844-10.175-2.879-16.714-2.879c-11.571,0-20.835,0.867-28.55,1.729c-7.715,0.864-13.878,1.713-19.22,1.71
			c-5.354-0.006-9.852-0.821-14.533-3.273c-3.51-1.843-6.604-4.364-9.733-7.162c-4.694-4.19-9.453-9.008-15.869-12.792
			C39.441,2.683,31.371-0.007,20.26,0l-0.146,0.007c-0.14,0.02-3.547,0.347-7.071,2.73c-1.758,1.193-3.537,2.92-4.858,5.358
			c-1.324,2.437-2.176,5.564-2.174,9.486h1.5l-0.029-1.5c-0.103,0.002-0.606,0.021-1.331,0.232c-1.08,0.311-2.686,1.097-3.964,2.872
			C0.903,20.958-0.003,23.627,0,27.538c0,2.652,0.409,5.892,1.402,9.89l1.456-0.362l-1.489,0.182
			c0.021,0.117,0.387,3.208,2.32,6.433c0.97,1.609,2.35,3.258,4.3,4.505c1.945,1.25,4.455,2.065,7.521,2.062
			c1.229-0.002,2.452-0.271,3.628-0.644c3.504-1.126,6.642-3.24,6.704-3.275c0.689-0.459,0.876-1.391,0.416-2.08
			s-1.391-0.875-2.08-0.416l-0.009,0.006c-0.127,0.084-1.484,0.968-3.236,1.81c-0.875,0.421-1.849,0.831-2.799,1.126
			c-0.949,0.298-1.877,0.476-2.624,0.473c-2.547-0.004-4.426-0.648-5.904-1.589c-2.209-1.407-3.547-3.586-4.316-5.466
			c-0.384-0.935-0.624-1.784-0.765-2.389c-0.07-0.302-0.116-0.543-0.144-0.703l-0.028-0.176l-0.005-0.038v-0.002l-0.034-0.18
			C3.364,32.888,2.999,29.88,3,27.538c0-2.308,0.353-3.964,0.829-5.144c0.725-1.765,1.686-2.512,2.461-2.92
			c0.39-0.199,0.736-0.299,0.972-0.348c0.117-0.024,0.205-0.036,0.255-0.041l0.045-0.004l-0.033-0.545l0.011,0.545l0.022,0
			l-0.033-0.545l0.011,0.545c0.814-0.016,1.471-0.685,1.471-1.5c0.002-3.495,0.744-6.086,1.811-8.055
			c1.599-2.945,3.981-4.567,6.018-5.48c1.014-0.454,1.933-0.722,2.584-0.873c0.326-0.076,0.586-0.123,0.757-0.149l0.188-0.027
			l0.039-0.005h0.001L20.26,1.5V3c7.092,0.001,12.756,1.127,17.523,2.917c7.146,2.685,12.317,6.882,17.159,11.239
			c4.84,4.345,9.322,8.871,15.119,11.925c5.156,2.716,10.275,3.625,15.929,3.618c5.657-0.002,11.881-0.874,19.553-1.729
			c7.671-0.857,16.794-1.71,28.217-1.711c6.225,0,11.377,0.984,15.604,2.667c6.337,2.529,10.625,6.604,13.399,11.498
			c2.769,4.894,3.99,10.638,3.989,16.391c0.001,5.39-1.073,10.777-2.89,15.409c-2.191,5.589-2.979,10.604-2.979,14.895
			c0,5.18,1.144,9.295,2.299,12.123c1.155,2.829,2.319,4.378,2.382,4.46l1.194-0.906l-1.49-0.169l-2.707,23.913l-3.828,5.396H146.01
			v1.5h1.5c0.004-1.986,0.51-3.443,1.248-4.604c1.103-1.733,2.832-2.822,4.333-3.458c0.746-0.317,1.426-0.521,1.906-0.642
			c0.241-0.061,0.433-0.1,0.558-0.123l0.138-0.025l0.028-0.004l-0.016-0.102l0.015,0.102h0.001l-0.016-0.102l0.015,0.102
			c0.739-0.104,1.29-0.738,1.29-1.485c0.007-6.965-1.569-12.276-4.401-16.587c-2.828-4.312-6.82-7.577-11.509-10.747
			c-4.451-3.003-9.157-7.63-12.705-11.489c-1.776-1.93-3.269-3.67-4.315-4.924c-0.522-0.627-0.934-1.132-1.214-1.479
			c-0.14-0.174-0.246-0.308-0.317-0.398c-0.072-0.09-0.105-0.134-0.105-0.134c-0.487-0.624-1.373-0.762-2.027-0.316
			c-2.492,1.709-6.539,3.26-11.216,4.521c-7.021,1.903-15.476,3.22-22.594,4.051c-3.56,0.416-6.788,0.712-9.342,0.903
			c-2.547,0.191-4.446,0.277-5.254,0.277c-1.538,0-2.91,0.529-4.053,1.249c-1.717,1.087-2.995,2.598-3.888,3.836
			c-0.889,1.24-1.377,2.22-1.402,2.269c-0.068,0.139-0.119,0.298-0.142,0.45l-4.25,28.798l1.484,0.219v-1.5
			c-1.924-0.002-3.592,0.8-4.916,1.869c-1.995,1.614-3.377,3.844-4.324,5.676c-0.939,1.832-1.417,3.279-1.435,3.328l1.425,0.471
			v-1.5H34.76v1.5h1.5c0.01-1.418,0.434-2.345,1.086-3.124c0.493-0.578,1.145-1.056,1.87-1.434c1.086-0.569,2.327-0.903,3.281-1.076
			c0.477-0.087,0.882-0.138,1.161-0.164c0.139-0.014,0.247-0.022,0.316-0.026l0.075-0.004l0.015-0.001l-0.011-0.262l0.009,0.262
			h0.002l-0.011-0.262l0.009,0.262c0.634-0.022,1.185-0.44,1.377-1.044l2.25-7.079c0.101-0.318,0.094-0.656-0.021-0.97l-1.955-5.346
			l-5.478-30.561c-0.052-0.287-0.186-0.553-0.386-0.765c-6.121-6.465-10.357-16.032-12.99-23.965
			c-1.32-3.966-2.25-7.523-2.847-10.082c-0.299-1.279-0.515-2.309-0.654-3.015c-0.07-0.354-0.122-0.626-0.155-0.809
			c-0.018-0.092-0.029-0.161-0.037-0.206l-0.012-0.064c-0.139-0.817-0.914-1.366-1.73-1.227S20.059,46.39,20.198,47.206z"/>
		<path fill="#283A82" d="M26.408,13.153l0.436-0.81l-0.441,0.807L26.408,13.153l0.436-0.81l-0.441,0.807l0.043,0.024
			c0.229,0.131,1.308,0.806,2.272,1.952c0.971,1.156,1.818,2.712,1.821,4.787c0,0.659-0.087,1.379-0.295,2.172
			c-0.923,3.535-1.76,6.69-1.77,9.521c0,1.457,0.234,2.859,0.893,4.119c0.653,1.262,1.74,2.313,3.172,3.038
			c1.155,0.586,2.484,0.805,3.897,0.809c1.563-0.001,3.243-0.282,4.914-0.8c2.504-0.781,4.992-2.091,6.936-3.929
			c0.97-0.92,1.803-1.979,2.398-3.179c0.596-1.198,0.948-2.544,0.947-3.973c0-0.247-0.011-0.496-0.031-0.747v-0.002
			c-0.361-4.36-1.899-7.295-3.401-9.098c-1.501-1.808-2.927-2.495-3.072-2.562c-0.752-0.349-1.644-0.021-1.992,0.73
			c-0.348,0.751-0.021,1.643,0.73,1.991l0.018-0.038l-0.02,0.038h0.002l0.018-0.038l-0.02,0.038c0.127,0.065,1.168,0.63,2.24,2.023
			c1.071,1.397,2.205,3.62,2.507,7.166v-0.002c0.014,0.169,0.021,0.336,0.021,0.5c-0.002,1.253-0.395,2.385-1.108,3.454
			c-1.065,1.598-2.898,2.995-4.96,3.951c-2.055,0.962-4.327,1.481-6.126,1.477c-1.084,0.003-1.981-0.192-2.53-0.479
			c-0.975-0.506-1.512-1.067-1.881-1.759c-0.364-0.693-0.551-1.586-0.551-2.728c-0.01-2.212,0.74-5.245,1.671-8.759
			c0.271-1.029,0.394-2.011,0.394-2.935c0.001-1.586-0.363-2.993-0.903-4.177c-0.813-1.779-2-3.061-2.976-3.912
			c-0.979-0.851-1.76-1.275-1.83-1.313c-0.729-0.393-1.64-0.12-2.032,0.61S25.679,12.761,26.408,13.153z"/>
		<path fill="#283A82" d="M18.202,20.336l3,1c0.786,0.262,1.636-0.163,1.897-0.949c0.262-0.786-0.163-1.635-0.948-1.897l-3-1
			c-0.786-0.262-1.636,0.163-1.897,0.949C16.991,19.225,17.416,20.075,18.202,20.336"/>
		<path fill="#283A82" d="M2.898,22.414l-0.014-0.902v0.902H2.898l-0.014-0.902v0.902c0.037-0.004,0.965,0.013,1.717,0.212
			c0.374,0.092,0.688,0.241,0.79,0.328l0.046,0.041l0.002,0.003l0.121-0.092l-0.142,0.049l0.021,0.043l0.121-0.092l-0.142,0.049
			l0.127-0.044H5.409l0.01,0.044l0.127-0.044H5.409l-0.016,0.086l0.001-0.003c-0.058,0.224-0.233,0.498-0.597,0.795
			c-0.533,0.445-1.42,0.841-2.154,1.074c-0.367,0.119-0.696,0.205-0.927,0.258c-0.115,0.027-0.206,0.046-0.265,0.058l-0.064,0.012
			l-0.012,0.002l0.047,0.264l-0.046-0.264H1.376l0.047,0.264l-0.046-0.264c-0.815,0.142-1.362,0.919-1.22,1.735
			c0.142,0.816,0.919,1.363,1.735,1.22c0.064-0.013,1.281-0.221,2.676-0.802c0.698-0.294,1.447-0.68,2.131-1.238
			c0.676-0.553,1.317-1.316,1.594-2.342l0.001-0.003c0.073-0.277,0.115-0.563,0.115-0.854c0.003-0.488-0.128-0.977-0.352-1.377
			c-0.398-0.709-0.99-1.117-1.535-1.389c-0.83-0.403-1.664-0.553-2.34-0.643c-0.675-0.085-1.186-0.088-1.298-0.088H2.854
			c-0.828,0.013-1.49,0.694-1.478,1.522C1.389,21.765,2.07,22.426,2.898,22.414z"/>
		<path fill="#283A82" d="M9.867,6.647L9.885,6.71c0.186,0.666,1.771,6.56,2.399,13.342c0.562,6.055,3.029,12.278,7.596,17.214
			c4.562,4.937,11.243,8.535,19.997,9.308c0.618,0.055,1.222,0.082,1.81,0.082c2.34,0.001,4.438-0.431,6.281-1.202
			c3.233-1.35,5.641-3.716,7.398-6.414c2.639-4.056,3.91-8.888,4.568-12.802c0.653-3.915,0.672-6.919,0.673-7.296V18.94
			l-0.905-0.012l0.904,0.022l0.001-0.011l-0.905-0.012l0.904,0.022c0.021-0.828-0.634-1.516-1.462-1.537s-1.517,0.634-1.536,1.462
			l-0.001,0.066c0.005,0.399-0.051,6.842-2.16,12.988c-1.048,3.075-2.604,6.05-4.807,8.193c-1.103,1.074-2.363,1.948-3.83,2.562
			c-1.468,0.612-3.149,0.969-5.124,0.97c-0.496,0-1.01-0.023-1.544-0.07c-8.08-0.727-13.981-3.962-18.062-8.358
			c-4.074-4.397-6.307-10.008-6.811-15.453c-0.701-7.547-2.504-13.893-2.517-13.946c-0.227-0.797-1.056-1.26-1.853-1.034
			C10.104,5.021,9.642,5.85,9.867,6.647z"/>
		<path fill="#283A82" d="M69.274,27.958l0.559-0.08l-0.559,0.077V27.958l0.559-0.08l-0.559,0.077
			c0.002,0.014,0.157,1.147,0.157,3.131c-0.001,5.086-1.018,15.726-8.204,27.547c-2.471,4.06-3.457,8.107-3.453,11.869
			c0,3.228,0.713,6.238,1.763,8.926c1.578,4.031,3.91,7.348,5.848,9.676c1.939,2.326,3.489,3.664,3.536,3.705
			c0.627,0.54,1.574,0.469,2.115-0.158c0.541-0.628,0.47-1.575-0.158-2.115l-0.002-0.002c-0.1-0.085-2.673-2.346-5.181-5.971
			c-2.516-3.629-4.929-8.59-4.921-14.061c0.004-3.247,0.824-6.696,3.018-10.311c7.541-12.409,8.641-23.63,8.64-29.106
			c0-2.21-0.179-3.49-0.187-3.551c-0.117-0.82-0.876-1.391-1.696-1.274C69.729,26.378,69.158,27.138,69.274,27.958z"/>
		<path fill="#283A82" d="M162.258,42.383l0.045,0.035c0.494,0.385,4.985,3.93,10.086,9.191
			c5.103,5.254,10.799,12.249,13.734,19.377c4.744,11.486,5.277,18.699,5.278,21.389c0,0.424-0.014,0.736-0.026,0.935
			c-0.006,0.099-0.012,0.17-0.016,0.212l-0.005,0.042l0.072,0.008l-0.071-0.009l-0.001,0.001l0.072,0.008l-0.071-0.009l1.488,0.186
			l0.015-1.5l-0.006,0.527l0.01-0.527h-0.004l-0.006,0.527l0.01-0.527c-0.032,0.002-2.407-0.054-5.236-1.232
			c-1.416-0.588-2.945-1.45-4.381-2.718c-1.437-1.269-2.786-2.94-3.853-5.192c-4.794-10.129-10.767-16.174-10.842-16.253
			c-0.582-0.589-1.532-0.595-2.121-0.013c-0.589,0.583-0.595,1.532-0.012,2.121l0.009,0.01c0.275,0.279,5.824,6.044,10.254,15.417
			c1.26,2.665,2.907,4.703,4.661,6.23c2.633,2.294,5.48,3.443,7.667,4.025c2.188,0.582,3.729,0.602,3.82,0.604
			c0.761,0.007,1.409-0.561,1.503-1.314c0.008-0.061,0.069-0.584,0.069-1.559c0.001-3.09-0.621-10.713-5.505-22.534
			c-3.304-7.975-9.498-15.37-14.859-20.837c-5.364-5.46-9.911-8.967-9.947-8.996c-0.656-0.506-1.598-0.384-2.104,0.272
			C161.48,40.935,161.602,41.876,162.258,42.383z"/>
		<path fill="#283A82" d="M148.109,47.619l0.003,0.006c0.089,0.233,2.122,5.753,2.119,13.727c0,4.116-0.538,8.886-2.15,13.938
			c-0.252,0.789,0.184,1.634,0.973,1.886s1.633-0.185,1.885-0.974c1.721-5.391,2.293-10.474,2.293-14.851
			c-0.002-8.756-2.279-14.695-2.322-14.81c-0.297-0.773-1.165-1.159-1.938-0.861C148.198,45.978,147.812,46.846,148.109,47.619
			L148.109,47.619z"/>
		<path fill="#283A82" d="M37.13,59.828c0.007,0.081,0.301,3.774,1.921,9.127c1.621,5.351,4.567,12.371,9.909,19.062
			c0.517,0.647,1.46,0.753,2.107,0.236s0.754-1.461,0.236-2.108c-5.037-6.308-7.843-12.976-9.382-18.059
			c-0.769-2.541-1.222-4.685-1.48-6.183c-0.129-0.749-0.21-1.336-0.259-1.732c-0.024-0.198-0.04-0.347-0.05-0.445l-0.011-0.107
			l-0.002-0.026c-0.064-0.826-0.787-1.442-1.612-1.378C37.682,58.279,37.064,59.001,37.13,59.828z"/>
		<path fill="#283A82" d="M81.343,41.154l-0.001,0.037c-0.016,0.452-0.221,4.903-1.769,10.62
			c-1.546,5.721-4.438,12.684-9.729,18.236c-0.57,0.6-0.547,1.55,0.053,2.121c0.6,0.57,1.55,0.547,2.121-0.053
			c5.96-6.269,9.011-13.976,10.604-20.1c1.59-6.129,1.717-10.701,1.72-10.779c0.022-0.828-0.63-1.518-1.458-1.541
			C82.056,39.673,81.366,40.326,81.343,41.154L81.343,41.154z"/>
		<path fill="#283A82" d="M180.086,58.799c-0.146,0.183-4.604,6.135-4.602,17.757c0,1.844,0.111,3.831,0.37,5.958
			c0.1,0.822,0.848,1.408,1.67,1.308c0.822-0.1,1.408-0.848,1.309-1.67c-0.244-2.008-0.349-3.873-0.349-5.596
			c0-5.424,1.034-9.446,2.048-12.099c0.507-1.326,1.009-2.309,1.375-2.948c0.184-0.32,0.333-0.554,0.433-0.702l0.108-0.158
			l0.022-0.03l0.002-0.003l-0.659-0.496l0.655,0.501l0.004-0.005l-0.659-0.496l0.655,0.501c0.503-0.658,0.378-1.6-0.28-2.103
			C181.53,58.015,180.589,58.141,180.086,58.799z"/>
	</g>
</g>
</svg>
