<?xml version="1.0" encoding="utf-8"?>
<!-- Generator: Adobe Illustrator 16.0.0, SVG Export Plug-In . SVG Version: 6.00 Build 0)  -->
<!DOCTYPE svg PUBLIC "-//W3C//DTD SVG 1.1//EN" "http://www.w3.org/Graphics/SVG/1.1/DTD/svg11.dtd">
<svg version="1.1" id="Layer_1" xmlns="http://www.w3.org/2000/svg" xmlns:xlink="http://www.w3.org/1999/xlink" x="0px" y="0px"
	 width="24px" height="24px" viewBox="0 0 24 24" enable-background="new 0 0 24 24" xml:space="preserve">
<g>
	<path d="M11.39,14.433l-1.147-1.139l1.147-1.147l1.139,1.147l1.141-1.147l-1.141-1.14l1.141-1.139l1.147,1.139l1.139-1.139
		L13.67,7.583l-5.713,5.711l2.287,2.286L11.39,14.433 M4.87,17.52l2.521-2.512l-1.713-1.714l7.992-7.998l1.72,1.721l1.131-1.147
		L15.39,4.722l1.131-1.14l3.434,3.434l-1.139,1.131l-1.147-1.131l-1.147,1.131l1.722,1.721l-7.999,7.99L8.53,16.146l-3.66,3.668
		V17.52z"/>
	<path d="M9.499,5.204V7.25l2.729-2.729L9.499,1.793v2.046c-3.014,0-5.457,2.443-5.457,5.457c0,1.071,0.313,2.067,0.846,2.905
		l0.996-0.995c-0.307-0.566-0.478-1.228-0.478-1.91C5.406,7.036,7.238,5.204,9.499,5.204"/>
	<path d="M19.064,10.895l-1.05,1.051c0.314,0.604,0.503,1.297,0.503,2.016c0,2.385-1.935,4.321-4.32,4.321v-2.161l-2.88,2.882
		l2.88,2.879v-2.162c3.182,0,5.761-2.577,5.761-5.759C19.958,12.832,19.626,11.781,19.064,10.895z"/>
</g>
</svg>
