<?xml version="1.0" encoding="utf-8"?>
<!-- Generator: Adobe Illustrator 16.0.0, SVG Export Plug-In . SVG Version: 6.00 Build 0)  -->
<!DOCTYPE svg PUBLIC "-//W3C//DTD SVG 1.1//EN" "http://www.w3.org/Graphics/SVG/1.1/DTD/svg11.dtd">
<svg version="1.1" id="Layer_1" xmlns="http://www.w3.org/2000/svg" xmlns:xlink="http://www.w3.org/1999/xlink" x="0px" y="0px"
	 width="16px" height="16px" viewBox="0 0 16 16" enable-background="new 0 0 16 16" xml:space="preserve">
<g>
	<path fill="#7D581E" d="M15.973,7.868C15.97,7.845,15.961,7.819,15.968,7.8c0.023-0.063,0.012-0.126,0.011-0.189
		c-0.002-0.032,0.001-0.063,0.005-0.095c0.015-0.121-0.004-0.243,0.016-0.364c0.002-0.011,0-0.024-0.005-0.034
		c-0.021-0.036-0.014-0.075-0.008-0.11c0.022-0.115,0.012-0.231-0.004-0.346c-0.006-0.043,0.005-0.09-0.017-0.129
		c-0.068-0.124-0.083-0.27-0.157-0.391c-0.009-0.014-0.008-0.034-0.012-0.051c-0.006-0.028-0.012-0.056-0.023-0.083
		c-0.045-0.097-0.112-0.182-0.144-0.286c-0.003-0.01-0.013-0.02-0.021-0.027c-0.031-0.027-0.05-0.062-0.07-0.097
		c-0.047-0.086-0.109-0.154-0.208-0.176c-0.025-0.005-0.047-0.019-0.067-0.034c-0.046-0.033-0.096-0.042-0.15-0.045
		c-0.078-0.004-0.159-0.002-0.229-0.042c-0.035-0.02-0.065-0.027-0.104-0.023c-0.071,0.008-0.145,0.002-0.216-0.009
		c-0.097-0.016-0.192-0.046-0.281,0.022c-0.011,0.008-0.026,0.01-0.039,0.015c-0.103,0.035-0.205,0.069-0.307,0.105
		c-0.059,0.02-0.116,0.043-0.174,0.063c-0.158,0.054-0.32,0.096-0.469,0.179c-0.018,0.01-0.036,0.016-0.057,0.015
		s-0.036,0.006-0.053,0.02c-0.061,0.048-0.112,0.108-0.188,0.136c-0.018,0.006-0.033,0.023-0.044,0.04
		c-0.019,0.027-0.045,0.043-0.072,0.056c-0.001,0-0.001,0-0.001,0c0.002-0.006,0.008-0.012,0.01-0.019
		c0.059-0.142,0.059-0.296,0.091-0.443c0.004-0.018,0.003-0.037-0.008-0.053c-0.017-0.022-0.012-0.046-0.011-0.07
		c0.002-0.085,0.006-0.171,0.015-0.255c0.019-0.186,0.029-0.368-0.024-0.549c-0.006-0.017-0.006-0.037,0-0.054
		c0.011-0.039-0.002-0.073-0.017-0.106c-0.023-0.05-0.04-0.104-0.042-0.158c-0.004-0.112-0.079-0.209-0.065-0.326
		c0.002-0.018-0.017-0.039-0.024-0.058c-0.01-0.022-0.027-0.045-0.026-0.067c0.005-0.07-0.027-0.13-0.049-0.193
		c-0.011-0.032-0.018-0.064-0.023-0.097c-0.022-0.126-0.08-0.243-0.097-0.371c-0.002-0.011-0.008-0.024-0.017-0.032
		c-0.032-0.03-0.037-0.07-0.042-0.108c-0.013-0.124-0.06-0.235-0.111-0.346c-0.02-0.041-0.023-0.092-0.058-0.124
		c-0.109-0.102-0.17-0.244-0.285-0.34c-0.014-0.011-0.019-0.031-0.028-0.047c-0.014-0.027-0.029-0.053-0.051-0.076
		c-0.076-0.083-0.172-0.145-0.237-0.239c-0.006-0.009-0.019-0.016-0.03-0.02c-0.04-0.017-0.07-0.046-0.102-0.075
		c-0.076-0.07-0.162-0.117-0.271-0.106c-0.028,0.003-0.055-0.004-0.081-0.012c-0.058-0.017-0.112-0.01-0.17,0.006
		c-0.082,0.021-0.165,0.05-0.25,0.035C10.834,1.607,10.8,1.61,10.763,1.626c-0.072,0.032-0.149,0.051-0.227,0.063
		c-0.105,0.017-0.214,0.018-0.285,0.116c-0.009,0.012-0.023,0.02-0.036,0.028c-0.095,0.069-0.19,0.138-0.285,0.208
		c-0.054,0.04-0.105,0.082-0.16,0.122C9.623,2.271,9.468,2.368,9.34,2.5C9.324,2.516,9.308,2.528,9.286,2.534
		C9.265,2.54,9.25,2.552,9.237,2.571c-0.048,0.069-0.083,0.147-0.151,0.2C9.07,2.783,9.059,2.805,9.053,2.825
		C9.042,2.859,9.02,2.883,8.995,2.906C8.924,2.97,8.872,3.049,8.82,3.127C8.746,3.24,8.646,3.337,8.592,3.464
		c-0.003,0.008-0.01,0.015-0.017,0.021C8.482,3.58,8.43,3.699,8.37,3.813C8.324,3.899,8.281,3.985,8.237,4.072
		C8.185,4.177,8.121,4.277,8.074,4.385c-0.016,0.037-0.03,0.073-0.05,0.107C8.001,4.528,7.979,4.565,7.958,4.603
		c0.005-0.132-0.024-0.266-0.03-0.398c0-0.018-0.006-0.038-0.021-0.052C7.887,4.133,7.885,4.109,7.88,4.084
		C7.861,3.999,7.843,3.912,7.831,3.826C7.802,3.638,7.767,3.454,7.67,3.28C7.661,3.264,7.656,3.243,7.656,3.226
		c0.001-0.041-0.02-0.073-0.042-0.104C7.58,3.074,7.551,3.022,7.536,2.968c-0.032-0.112-0.127-0.2-0.144-0.318
		C7.39,2.632,7.367,2.614,7.354,2.595C7.34,2.574,7.317,2.553,7.313,2.531C7.3,2.459,7.254,2.404,7.219,2.344
		C7.2,2.313,7.186,2.282,7.172,2.25C7.119,2.126,7.035,2.017,6.987,1.891c-0.004-0.011-0.014-0.023-0.023-0.03
		C6.926,1.835,6.911,1.795,6.897,1.757C6.854,1.635,6.782,1.529,6.705,1.425C6.676,1.387,6.66,1.336,6.62,1.309
		C6.491,1.222,6.398,1.087,6.265,1.006C6.25,0.997,6.239,0.977,6.227,0.962C6.206,0.938,6.186,0.914,6.16,0.893
		c-0.093-0.073-0.2-0.123-0.285-0.208C5.867,0.676,5.853,0.671,5.841,0.668C5.799,0.657,5.763,0.632,5.726,0.607
		C5.636,0.546,5.543,0.511,5.443,0.536C5.417,0.542,5.391,0.54,5.364,0.535C5.305,0.525,5.255,0.54,5.204,0.563
		C5.132,0.596,5.061,0.635,4.976,0.631C4.934,0.628,4.902,0.635,4.871,0.657C4.811,0.699,4.742,0.728,4.672,0.75
		c-0.096,0.03-0.198,0.046-0.241,0.154C4.426,0.918,4.413,0.927,4.404,0.938C4.331,1.02,4.258,1.102,4.186,1.184
		C4.145,1.231,4.106,1.28,4.064,1.327C3.952,1.454,3.829,1.571,3.741,1.721c-0.01,0.018-0.024,0.032-0.042,0.041
		c-0.02,0.009-0.03,0.023-0.038,0.044C3.634,1.881,3.62,1.963,3.568,2.026C3.556,2.04,3.551,2.063,3.551,2.084
		C3.549,2.12,3.533,2.147,3.516,2.173c-0.051,0.074-0.081,0.16-0.109,0.245C3.364,2.542,3.293,2.651,3.274,2.787
		C3.273,2.795,3.268,2.803,3.264,2.81C3.199,2.916,3.179,3.042,3.15,3.165C3.129,3.257,3.109,3.35,3.09,3.442
		C3.066,3.555,3.031,3.663,3.013,3.778c-0.006,0.038-0.01,0.076-0.021,0.113C2.949,4.034,2.91,4.178,2.918,4.337
		c0.002,0.051-0.002,0.103-0.021,0.15C2.869,4.561,2.866,4.647,2.811,4.708C2.8,4.72,2.808,4.75,2.808,4.771
		C2.807,4.825,2.819,4.886,2.801,4.932c-0.016,0.04-0.019,0.08-0.019,0.121c0.001,0.043,0,0.084-0.009,0.125
		C2.75,5.283,2.732,5.39,2.711,5.496C2.707,5.519,2.69,5.543,2.697,5.563c0.035,0.105,0.012,0.208,0.032,0.312
		C2.73,5.881,2.73,5.888,2.731,5.894C2.684,5.862,2.637,5.831,2.596,5.791C2.589,5.784,2.577,5.778,2.567,5.777
		C2.528,5.773,2.502,5.749,2.478,5.724c-0.078-0.077-0.173-0.13-0.27-0.179C2.171,5.526,2.14,5.494,2.099,5.489
		C1.967,5.474,1.846,5.408,1.713,5.399c-0.015-0.001-0.03-0.012-0.045-0.019C1.644,5.37,1.619,5.36,1.591,5.355
		C1.493,5.336,1.393,5.342,1.295,5.31c-0.01-0.003-0.022-0.001-0.032,0.001c-0.037,0.008-0.074,0.004-0.112,0
		c-0.091-0.01-0.176,0-0.244,0.062C0.89,5.389,0.869,5.398,0.846,5.406C0.797,5.422,0.764,5.455,0.733,5.494
		C0.69,5.549,0.649,5.61,0.582,5.642C0.549,5.657,0.527,5.676,0.511,5.706C0.479,5.764,0.438,5.815,0.392,5.862
		C0.33,5.925,0.256,5.98,0.263,6.083C0.264,6.095,0.257,6.107,0.254,6.12C0.228,6.214,0.201,6.308,0.176,6.403
		C0.162,6.457,0.15,6.511,0.135,6.565C0.095,6.711,0.043,6.854,0.03,7.007C0.029,7.025,0.024,7.042,0.013,7.057
		C0.001,7.071-0.001,7.087,0,7.107c0.006,0.07,0.026,0.141,0.009,0.211c-0.004,0.016,0,0.037,0.007,0.053
		c0.012,0.029,0.01,0.057,0.006,0.084C0.01,7.533,0.019,7.613,0.028,7.691c0.013,0.114-0.001,0.229,0.034,0.343
		c0.002,0.007,0.001,0.016,0,0.023c-0.011,0.11,0.02,0.217,0.043,0.325C0.123,8.463,0.141,8.543,0.16,8.624
		c0.023,0.098,0.035,0.197,0.063,0.294c0.01,0.033,0.021,0.064,0.026,0.098c0.02,0.13,0.042,0.258,0.107,0.379
		c0.021,0.039,0.036,0.081,0.04,0.126C0.4,9.591,0.43,9.659,0.41,9.73C0.406,9.744,0.422,9.764,0.43,9.78
		c0.019,0.043,0.051,0.085,0.054,0.128c0.002,0.038,0.014,0.071,0.03,0.103c0.017,0.033,0.031,0.066,0.039,0.103
		c0.021,0.091,0.046,0.183,0.069,0.273c0.005,0.021,0.001,0.047,0.014,0.06c0.065,0.067,0.085,0.157,0.139,0.229
		c0.023,0.032,0.041,0.068,0.05,0.107c0.019,0.074,0.067,0.138,0.108,0.2c0.026,0.04,0.039,0.091,0.075,0.12
		c0.083,0.066,0.148,0.149,0.238,0.212c0.165,0.115,0.35,0.183,0.531,0.262C1.85,11.608,1.927,11.623,2,11.648
		c0.07,0.025,0.139,0.041,0.21,0.053c-0.056,0.129-0.114,0.257-0.145,0.397c-0.024,0.108-0.061,0.216-0.091,0.323
		c-0.004,0.017-0.009,0.032-0.011,0.049c-0.01,0.097,0.003,0.192-0.006,0.289c-0.012,0.13,0.06,0.238,0.104,0.353
		c0.039,0.102,0.11,0.189,0.131,0.3c0.002,0.013,0.007,0.025,0.018,0.03c0.025,0.01,0.031,0.033,0.041,0.055
		c0.061,0.128,0.154,0.228,0.265,0.313c0.009,0.007,0.018,0.02,0.03,0.012c0.047-0.031,0.056,0.008,0.07,0.038
		c0.023,0.05,0.038,0.105,0.069,0.149c0.062,0.086,0.137,0.163,0.196,0.252c0.054,0.081,0.145,0.125,0.202,0.201
		c0.043,0.059,0.097,0.103,0.151,0.15c0.076,0.066,0.155,0.131,0.226,0.203c0.054,0.056,0.107,0.114,0.164,0.166
		c0.061,0.056,0.137,0.094,0.202,0.146c0.042,0.032,0.089,0.054,0.13,0.085c0.098,0.076,0.204,0.14,0.323,0.178
		c0.039,0.013,0.079,0.016,0.118,0.026c0.073,0.02,0.147,0.039,0.222,0.048c0.15,0.017,0.301,0.003,0.452,0.001
		c0.026,0,0.053-0.004,0.074-0.021c0.028-0.022,0.061-0.025,0.094-0.025c0.053,0.001,0.102-0.011,0.147-0.044
		c0.068-0.05,0.163-0.05,0.222-0.117c0.005-0.006,0.018-0.005,0.027-0.007c0.085-0.02,0.159-0.074,0.247-0.085
		c0.009-0.001,0.019-0.008,0.024-0.015c0.026-0.034,0.067-0.045,0.104-0.057c0.034-0.012,0.065-0.026,0.094-0.049
		c0.077-0.06,0.164-0.105,0.254-0.139c0.067-0.023,0.128-0.068,0.204-0.063c0.006,0.001,0.014-0.002,0.02-0.005
		c0.056-0.031,0.117-0.034,0.179-0.04c0.04-0.004,0.08-0.002,0.12-0.016c0.112-0.038,0.23-0.055,0.346-0.08
		c0.027-0.006,0.055-0.001,0.083-0.013c0.063-0.026,0.131-0.045,0.2-0.035c0.054,0.008,0.107,0.003,0.154-0.015
		c0.062-0.023,0.125-0.024,0.187-0.03c0.031-0.003,0.062-0.007,0.09-0.019c0.009-0.004,0.02-0.009,0.027-0.006
		c0.076,0.029,0.148-0.027,0.224-0.006c0.096-0.028,0.196-0.01,0.294-0.024c0.097-0.015,0.197-0.006,0.292-0.008
		c0.126-0.019,0.245,0.009,0.361,0.041c0.147,0.041,0.299,0.069,0.44,0.13c0.035,0.016,0.067,0.04,0.104,0.047
		c0.1,0.019,0.184,0.075,0.274,0.113c0.103,0.043,0.2,0.099,0.3,0.146c0.12,0.055,0.236,0.117,0.355,0.172
		c0.079,0.036,0.159,0.076,0.249,0.077c0.013,0,0.024,0.002,0.032,0.012c0.02,0.021,0.048,0.025,0.072,0.025
		c0.094,0.001,0.183,0.031,0.274,0.035c0.066,0.003,0.135,0.018,0.198-0.006c0.05-0.021,0.101-0.028,0.152-0.025
		c0.049,0.003,0.094-0.007,0.141-0.014c0.037-0.005,0.063-0.029,0.097-0.042c0.074-0.028,0.145-0.065,0.196-0.132
		c0.019-0.023,0.031-0.054,0.063-0.067c0.042-0.018,0.063-0.055,0.084-0.093c0.034-0.062,0.059-0.129,0.109-0.18
		c0.015-0.016,0.023-0.036,0.036-0.053c0.051-0.07,0.071-0.16,0.134-0.224c0.01-0.009,0.009-0.026,0.015-0.039
		c0.027-0.063,0.043-0.128,0.086-0.186c0.047-0.063,0.081-0.14,0.07-0.226c-0.007-0.046-0.034-0.089-0.012-0.138
		c0.007-0.016-0.01-0.03-0.02-0.045c-0.011-0.017-0.015-0.033-0.008-0.054c0.038-0.107,0.075-0.216,0.065-0.334
		c-0.001-0.016,0.005-0.033,0.009-0.049c0.029-0.121,0.048-0.244,0.041-0.369c-0.004-0.078,0.015-0.157-0.007-0.235
		c-0.01-0.035-0.007-0.07-0.007-0.106c-0.002-0.111,0.002-0.225-0.025-0.335c-0.02-0.079-0.041-0.158-0.056-0.237
		c-0.022-0.124-0.086-0.232-0.126-0.349c0.054,0.012,0.108,0.017,0.164,0.007c0.023-0.005,0.045-0.005,0.067,0
		c0.056,0.014,0.109,0.008,0.164-0.008c0.039-0.012,0.078-0.025,0.123-0.006c0.029,0.013,0.071,0.005,0.097-0.016
		c0.056-0.046,0.121-0.043,0.184-0.048c0.047-0.003,0.095,0,0.137-0.015c0.067,0.003,0.12-0.021,0.177-0.051
		c0.064-0.033,0.123-0.074,0.191-0.102c0.102-0.04,0.199-0.093,0.285-0.165c0.019-0.017,0.039-0.029,0.063-0.038
		c0.045-0.015,0.097-0.026,0.128-0.058c0.064-0.063,0.16-0.083,0.21-0.164c0.132-0.074,0.233-0.19,0.348-0.287
		c0.085-0.072,0.15-0.179,0.2-0.283c0.061-0.126,0.139-0.239,0.204-0.361c0.078-0.146,0.211-0.257,0.249-0.429
		c0.002-0.008,0.012-0.012,0.017-0.019c0.09-0.112,0.132-0.251,0.2-0.375c0.009-0.015,0.014-0.032,0.008-0.051
		c-0.009-0.024,0.002-0.045,0.01-0.066c0.025-0.076,0.052-0.153,0.082-0.227c0.067-0.162,0.126-0.324,0.128-0.504
		c0-0.016,0.006-0.035,0.015-0.049c0.021-0.032,0.019-0.066,0.015-0.101c-0.007-0.053-0.006-0.105,0.007-0.156
		c0.026-0.103-0.013-0.212,0.031-0.313C15.985,7.912,15.975,7.889,15.973,7.868z"/>
	<g>
		<path fill="#FFFFFF" d="M8.636,13.984c-0.08,0.002-0.164-0.005-0.246,0.007c-0.083,0.013-0.167-0.003-0.249,0.021
			c-0.063-0.019-0.125,0.03-0.189,0.005c-0.006-0.002-0.015,0.002-0.022,0.006c-0.024,0.01-0.05,0.012-0.077,0.015
			c-0.053,0.006-0.105,0.007-0.158,0.026c-0.04,0.015-0.084,0.019-0.129,0.012c-0.058-0.008-0.115,0.008-0.168,0.029
			c-0.024,0.01-0.047,0.007-0.07,0.012C7.23,14.137,7.13,14.15,7.035,14.184c-0.033,0.011-0.067,0.009-0.101,0.012
			c-0.052,0.005-0.104,0.009-0.15,0.034c-0.005,0.003-0.012,0.005-0.017,0.005c-0.064-0.006-0.116,0.032-0.172,0.053
			c-0.077,0.027-0.15,0.065-0.215,0.115c-0.024,0.019-0.05,0.031-0.079,0.041c-0.032,0.01-0.066,0.019-0.088,0.048
			c-0.005,0.006-0.013,0.011-0.021,0.012c-0.075,0.01-0.137,0.055-0.208,0.071c-0.008,0.002-0.019,0.001-0.023,0.006
			c-0.05,0.057-0.13,0.057-0.188,0.099c-0.038,0.027-0.079,0.037-0.124,0.037c-0.028-0.001-0.055,0.002-0.079,0.021
			c-0.019,0.015-0.041,0.017-0.063,0.018c-0.127,0.002-0.254,0.014-0.381-0.001C5.062,14.746,5,14.729,4.938,14.713
			c-0.033-0.009-0.067-0.011-0.099-0.021c-0.101-0.031-0.19-0.085-0.272-0.147c-0.035-0.027-0.075-0.045-0.11-0.072
			c-0.055-0.043-0.119-0.074-0.17-0.121c-0.048-0.044-0.093-0.093-0.139-0.139c-0.06-0.062-0.127-0.114-0.191-0.171
			c-0.045-0.039-0.09-0.076-0.127-0.125c-0.048-0.063-0.125-0.101-0.17-0.167c-0.05-0.075-0.113-0.14-0.166-0.212
			c-0.026-0.036-0.014-0.021-0.033-0.063c-0.012-0.024-0.028-0.091-0.067-0.065c-0.011,0.007-0.034-0.032-0.042-0.038
			c-0.094-0.07-0.172-0.153-0.223-0.261c-0.009-0.018-0.014-0.037-0.035-0.046c-0.009-0.004-0.013-0.015-0.015-0.024
			C3.061,12.946,3,12.873,2.968,12.788c-0.037-0.096-0.097-0.187-0.087-0.295c0.008-0.081-0.003-0.162,0.005-0.242
			c0.001-0.014,0.006-0.027,0.01-0.041c0.026-0.09,0.057-0.18,0.077-0.271C3,11.82,3.05,11.711,3.098,11.601
			c0.02-0.044,0.052-0.08,0.078-0.121c0.03-0.047,0.057-0.096,0.089-0.143c0.01-0.015,0.019-0.029,0.034-0.04
			c0.028-0.019,0.055-0.04,0.078-0.065c0.017-0.02,0.041-0.029,0.063-0.033c0.057-0.012,0.112-0.024,0.162-0.057
			c0.005-0.004,0.012-0.006,0.017-0.005c0.077,0.02,0.148-0.024,0.225-0.021c0.045,0.003,0.086-0.024,0.13-0.036
			c0.028-0.008,0.056-0.02,0.086-0.021c0.016-0.001,0.032-0.005,0.046-0.011c0.063-0.03,0.136-0.029,0.2-0.057
			c0.016-0.007,0.036-0.005,0.053-0.006c0.08-0.004,0.156-0.006,0.226-0.061c0.036-0.027,0.088-0.042,0.134-0.059
			c0.027-0.009,0.052-0.021,0.068-0.047c0.005-0.008,0.013-0.016,0.021-0.021c0.109-0.057,0.193-0.146,0.282-0.228
			c0.055-0.051,0.099-0.114,0.147-0.172c0.042-0.051,0.085-0.1,0.126-0.151c0.014-0.018,0.029-0.036,0.034-0.056
			c0.017-0.066,0.067-0.118,0.077-0.187c0.001-0.011,0.006-0.019,0.014-0.026c0.029-0.026,0.033-0.063,0.033-0.099
			c0-0.015,0.001-0.027,0.008-0.04C5.561,9.79,5.581,9.733,5.594,9.676c0.014-0.062,0.031-0.117,0.071-0.17
			c0.032-0.041,0.048-0.097,0.042-0.152C5.705,9.33,5.71,9.311,5.726,9.292C5.733,9.283,5.74,9.271,5.741,9.261
			c0.01-0.077,0.048-0.146,0.073-0.219c0.024-0.067,0.057-0.133,0.082-0.203c0.007-0.018,0.013-0.035,0.013-0.056
			c0-0.034,0.032-0.053,0.043-0.084C5.98,8.625,6.029,8.563,6.077,8.501c0.015-0.02,0.024-0.042,0.03-0.065
			c0.002-0.012,0.002-0.025,0.011-0.034c0.047-0.043,0.052-0.107,0.076-0.161C6.21,8.204,6.234,8.17,6.263,8.148
			C6.3,8.12,6.316,8.081,6.339,8.045c0.024-0.037,0.042-0.072,0.084-0.094C6.446,7.94,6.471,7.922,6.485,7.896
			C6.505,7.862,6.544,7.85,6.57,7.821c0.036-0.039,0.081-0.069,0.114-0.113c0.02-0.026,0.06-0.037,0.093-0.051
			C6.83,7.635,6.876,7.604,6.918,7.568C6.939,7.55,6.965,7.542,6.987,7.535C7.029,7.523,7.068,7.5,7.112,7.498
			c0.038-0.001,0.066-0.027,0.099-0.04c0.061-0.022,0.122-0.034,0.186-0.025c0.069,0.01,0.14,0.005,0.208,0.022
			c0.003,0.001,0.008,0.002,0.012,0.001c0.079-0.02,0.147,0.018,0.207,0.054c0.106,0.066,0.199,0.147,0.26,0.265
			C8.129,7.859,8.159,7.95,8.201,8.035C8.238,8.11,8.271,8.185,8.323,8.25c0.017,0.021,0.034,0.046,0.03,0.077
			c-0.002,0.015,0.01,0.026,0.017,0.038C8.423,8.461,8.47,8.561,8.537,8.648C8.557,8.673,8.574,8.7,8.585,8.73
			c0.019,0.053,0.063,0.091,0.093,0.138c0.011,0.017,0.023,0.033,0.024,0.054C8.704,8.937,8.709,8.951,8.719,8.96
			c0.042,0.038,0.059,0.094,0.098,0.134C8.84,9.119,8.854,9.15,8.871,9.18c0.038,0.068,0.076,0.136,0.113,0.204
			c0.014,0.025,0.033,0.05,0.051,0.065c0.067,0.06,0.104,0.142,0.167,0.202c0.02,0.02,0.033,0.045,0.047,0.069
			c0.047,0.084,0.119,0.142,0.199,0.191C9.459,9.919,9.473,9.926,9.48,9.937c0.046,0.061,0.114,0.093,0.172,0.138
			c0.06,0.046,0.135,0.066,0.203,0.097c0.114,0.051,0.24,0.068,0.355,0.119c0.053,0.023,0.11,0.039,0.168,0.043
			c0.06,0.006,0.11,0.033,0.162,0.056c0.063,0.027,0.131,0.044,0.193,0.076c0.064,0.034,0.136,0.056,0.191,0.106
			c0.012,0.011,0.025,0.019,0.041,0.024c0.017,0.007,0.036,0.013,0.047,0.025c0.04,0.047,0.099,0.066,0.146,0.103
			c0.044,0.035,0.092,0.064,0.122,0.114c0.006,0.01,0.013,0.021,0.023,0.026c0.058,0.028,0.084,0.088,0.128,0.131
			c0.023,0.022,0.035,0.055,0.049,0.082c0.03,0.063,0.099,0.103,0.112,0.178c0.012,0.063,0.037,0.12,0.072,0.174
			c0.008,0.011,0.006,0.027,0.009,0.041c0.01,0.045,0.022,0.089,0.052,0.126c0.006,0.008,0.014,0.017,0.016,0.026
			c0.026,0.125,0.102,0.232,0.125,0.36c0.012,0.066,0.03,0.132,0.047,0.198c0.022,0.093,0.02,0.187,0.021,0.28
			c0,0.03-0.002,0.06,0.006,0.089c0.019,0.065,0.003,0.131,0.006,0.197c0.005,0.104-0.01,0.207-0.035,0.309
			c-0.003,0.014-0.008,0.027-0.007,0.041c0.008,0.099,0.01,0.171-0.022,0.262c-0.006,0.017-0.013,0.045-0.014,0.063
			s0.008,0.043,0.003,0.056c-0.02,0.041,0.005,0.059,0.01,0.097c0.01,0.072-0.02,0.136-0.06,0.189
			c-0.036,0.048-0.049,0.103-0.072,0.155c-0.005,0.011-0.005,0.025-0.013,0.033c-0.053,0.053-0.07,0.128-0.113,0.187
			c-0.01,0.014-0.018,0.031-0.03,0.044c-0.043,0.043-0.063,0.1-0.093,0.151c-0.018,0.031-0.035,0.063-0.07,0.077
			c-0.026,0.011-0.037,0.036-0.053,0.057c-0.044,0.055-0.104,0.086-0.166,0.11c-0.028,0.01-0.051,0.031-0.082,0.035
			c-0.039,0.005-0.077,0.014-0.118,0.012c-0.044-0.003-0.087,0.004-0.129,0.021c-0.053,0.021-0.111,0.008-0.167,0.005
			c-0.078-0.003-0.153-0.027-0.232-0.028c-0.02,0-0.044-0.003-0.061-0.021c-0.007-0.009-0.017-0.01-0.027-0.01
			c-0.076-0.001-0.144-0.034-0.21-0.063c-0.101-0.046-0.198-0.099-0.3-0.145c-0.085-0.039-0.167-0.085-0.253-0.121
			c-0.077-0.032-0.147-0.079-0.231-0.096c-0.03-0.005-0.059-0.025-0.087-0.038c-0.12-0.051-0.248-0.074-0.373-0.108
			C8.843,13.991,8.743,13.969,8.636,13.984z M3.217,12.371c0.001,0.017-0.006,0.126-0.003,0.136c0.034,0.14,0.124,0.237,0.271,0.438
			c0.177,0.239,0.354,0.354,0.396,0.398c0.057,0.06,0.103,0.133,0.156,0.198c0.006,0.008,0.013,0.016,0.022,0.02
			c0.06,0.028,0.099,0.08,0.146,0.124c0.033,0.029,0.056,0.068,0.087,0.097c0.074,0.066,0.135,0.147,0.221,0.199
			c0.071,0.042,0.12,0.11,0.188,0.155c0.025,0.017,0.052,0.029,0.077,0.046c0.105,0.071,0.211,0.144,0.347,0.139
			c0.01,0,0.02,0.003,0.029,0.007c0.079,0.034,0.164,0.027,0.242,0.015c0.082-0.014,0.165-0.024,0.246-0.045
			c0.014-0.003,0.028-0.004,0.041-0.011c0.104-0.051,0.209-0.104,0.322-0.138c0.004-0.001,0.007-0.004,0.011-0.006
			c0.104-0.046,0.207-0.091,0.311-0.138c0.074-0.033,0.148-0.068,0.22-0.105c0.035-0.018,0.063-0.051,0.104-0.056
			c0.042-0.006,0.089-0.002,0.12-0.031c0.04-0.037,0.082,0.002,0.119-0.016c0.003-0.002,0.008-0.001,0.012-0.003
			c0.059-0.029,0.125-0.034,0.188-0.045c0.077-0.013,0.152-0.031,0.228-0.048c0.049-0.011,0.095-0.027,0.144-0.038
			c0.03-0.006,0.059,0.009,0.089-0.002c0.064-0.023,0.133-0.022,0.2-0.036c0.031-0.007,0.063-0.021,0.093-0.021
			c0.07,0.001,0.139,0.001,0.207-0.018c0.035-0.01,0.071-0.011,0.107,0c0.021,0.005,0.043,0.004,0.065-0.001
			c0.062-0.012,0.125-0.018,0.188-0.029c0.054-0.011,0.107,0.015,0.161,0.002c0.117-0.027,0.234-0.011,0.351,0
			c0.074,0.007,0.143,0.037,0.215,0.048c0.043,0.007,0.087,0.006,0.129,0.023c0.023,0.011,0.046,0.021,0.07,0.031
			c0.083,0.032,0.174,0.041,0.254,0.083c0.063,0.034,0.139,0.039,0.193,0.091c0.005,0.003,0.012,0.004,0.018,0.005
			c0.067,0.002,0.117,0.047,0.172,0.077c0.029,0.017,0.062,0.025,0.091,0.043c0.084,0.052,0.178,0.087,0.263,0.138
			c0.004,0.003,0.008,0.003,0.012,0.003c0.089,0.005,0.167,0.051,0.255,0.061c0.058,0.006,0.114,0.009,0.172,0.016
			c0.079,0.009,0.159-0.002,0.238-0.006c0.05-0.003,0.103-0.014,0.149-0.03c0.107-0.04,0.166-0.129,0.215-0.228
			c0.022-0.047,0.042-0.094,0.047-0.147c0-0.015,0.009-0.031,0.018-0.044c0.012-0.015,0.018-0.03,0.021-0.049
			c0.011-0.051,0.022-0.101,0.044-0.148c0.01-0.023,0.017-0.049,0.02-0.075c0.004-0.035,0.007-0.075,0.026-0.103
			c0.035-0.046,0.039-0.101,0.049-0.152c0.019-0.104,0.031-0.212,0.037-0.318c0.006-0.104,0.005-0.207-0.006-0.311
			c-0.007-0.069-0.016-0.139-0.027-0.208c-0.009-0.042-0.014-0.087-0.026-0.127c-0.017-0.051-0.03-0.104-0.046-0.154
			c-0.02-0.071-0.041-0.142-0.074-0.209c-0.021-0.042-0.044-0.084-0.063-0.127c-0.034-0.074-0.064-0.149-0.104-0.222
			c-0.041-0.075-0.06-0.162-0.139-0.211c-0.087-0.136-0.223-0.215-0.347-0.309c-0.073-0.055-0.155-0.095-0.236-0.137
			c-0.092-0.048-0.19-0.081-0.287-0.116c-0.088-0.03-0.182-0.046-0.27-0.076c-0.092-0.032-0.188-0.045-0.277-0.09
			c-0.095-0.05-0.198-0.081-0.291-0.137c-0.077-0.044-0.147-0.097-0.21-0.157c-0.081-0.079-0.16-0.161-0.236-0.245
			C8.938,9.987,8.911,9.914,8.846,9.873C8.782,9.752,8.688,9.652,8.619,9.534c-0.047-0.083-0.105-0.159-0.155-0.24
			c-0.05-0.079-0.09-0.164-0.152-0.235c-0.026-0.03-0.05-0.063-0.066-0.099C8.22,8.901,8.186,8.848,8.152,8.794
			C8.126,8.751,8.095,8.711,8.074,8.667C8.051,8.615,8.018,8.567,8.001,8.511c-0.012-0.04-0.035-0.072-0.058-0.104
			C7.917,8.371,7.896,8.332,7.884,8.29C7.879,8.274,7.871,8.261,7.863,8.247C7.823,8.178,7.782,8.11,7.749,8.038
			C7.729,7.994,7.698,7.96,7.664,7.932c-0.055-0.046-0.121-0.06-0.193-0.058c-0.036,0-0.074,0.012-0.11-0.011
			C7.341,7.85,7.313,7.854,7.29,7.861C7.204,7.888,7.114,7.896,7.03,7.93C6.982,7.948,6.945,7.981,6.902,8.005
			C6.868,8.023,6.826,8.03,6.8,8.065C6.781,8.09,6.761,8.112,6.729,8.125C6.707,8.134,6.683,8.154,6.674,8.178
			C6.657,8.225,6.619,8.25,6.586,8.281c-0.038,0.037-0.074,0.077-0.09,0.124C6.474,8.47,6.431,8.521,6.404,8.582
			C6.381,8.636,6.36,8.692,6.333,8.745C6.31,8.788,6.305,8.84,6.263,8.875c-0.017,0.014-0.024,0.038-0.027,0.06
			c-0.005,0.029-0.019,0.051-0.04,0.071c-0.013,0.014-0.02,0.03-0.03,0.045c-0.025,0.036-0.022,0.081-0.04,0.118
			C6.109,9.202,6.1,9.237,6.092,9.274C6.079,9.34,6.075,9.407,6.044,9.468C6.013,9.53,5.981,9.593,5.97,9.663
			C5.969,9.669,5.965,9.674,5.962,9.679C5.935,9.721,5.918,9.768,5.903,9.814c-0.02,0.063-0.039,0.127-0.071,0.183
			c-0.047,0.081-0.056,0.179-0.115,0.254c-0.004,0.006-0.003,0.016-0.006,0.023c-0.015,0.036-0.022,0.078-0.046,0.108
			c-0.028,0.034-0.049,0.071-0.074,0.107c-0.059,0.085-0.135,0.155-0.206,0.229c-0.021,0.021-0.044,0.04-0.061,0.066
			c-0.039,0.063-0.099,0.107-0.155,0.153C5.146,10.959,5.121,10.976,5.104,11c-0.012,0.017-0.025,0.03-0.042,0.041
			c-0.108,0.069-0.215,0.141-0.323,0.21c-0.012,0.008-0.025,0.015-0.039,0.016c-0.023,0.002-0.041,0.017-0.06,0.026
			c-0.065,0.034-0.132,0.065-0.204,0.083c-0.053,0.012-0.106,0.017-0.16,0.021c-0.065,0.006-0.13,0.024-0.195,0.032
			c-0.035,0.004-0.072-0.001-0.103,0.026c-0.007,0.006-0.025,0.007-0.034,0.003c-0.029-0.014-0.055,0-0.082,0.006
			c-0.076,0.018-0.151,0.036-0.229,0.047c-0.058,0.009-0.11,0.034-0.164,0.057c-0.009,0.004-0.019,0.011-0.023,0.019
			c-0.034,0.062-0.087,0.11-0.112,0.177c-0.051,0.135-0.074,0.226-0.102,0.368C3.219,12.2,3.199,12.307,3.217,12.371z"/>
		<path fill="#FFFFFF" d="M3.422,5.142C3.407,5.043,3.413,4.943,3.413,4.844c0-0.035,0.018-0.068,0.025-0.102
			c0.009-0.038,0.033-0.073,0.044-0.11C3.492,4.601,3.53,4.594,3.534,4.561c0.009-0.068,0.074-0.113,0.079-0.184
			c0-0.003,0.004-0.007,0.006-0.01c0.046-0.049,0.068-0.107,0.089-0.171c0.018-0.052,0.041-0.106,0.07-0.154
			c0.034-0.056,0.046-0.118,0.066-0.178c0.022-0.066,0.047-0.131,0.074-0.195c0.028-0.066,0.048-0.135,0.068-0.203
			c0.01-0.033,0.024-0.063,0.036-0.095c0.025-0.065,0.053-0.129,0.065-0.198c0.004-0.024,0.012-0.046,0.021-0.068
			c0.014-0.031,0.03-0.061,0.027-0.097C4.137,2.999,4.139,2.99,4.143,2.983c0.04-0.065,0.033-0.144,0.061-0.21
			c0.043-0.105,0.028-0.228,0.102-0.322c0.001-0.057,0.046-0.096,0.056-0.15c0.008-0.044,0.043-0.076,0.07-0.11
			c0.022-0.028,0.044-0.055,0.064-0.085c0.027-0.041,0.05-0.087,0.101-0.107c0.012-0.004,0.025-0.018,0.029-0.029
			c0.016-0.046,0.053-0.08,0.072-0.124c0.01-0.022,0.025-0.041,0.042-0.058c0.063-0.063,0.135-0.117,0.209-0.167
			c0.045-0.03,0.099-0.051,0.159-0.049c0.06,0.002,0.118-0.02,0.175-0.036c0.033-0.01,0.066-0.012,0.1-0.013
			C5.447,1.52,5.51,1.548,5.576,1.533C5.591,1.53,5.603,1.54,5.616,1.545C5.68,1.571,5.744,1.597,5.808,1.623
			C5.819,1.628,5.832,1.632,5.839,1.64c0.04,0.048,0.094,0.073,0.147,0.1C5.991,1.742,5.997,1.745,6,1.75
			c0.042,0.056,0.104,0.086,0.155,0.13C6.22,1.937,6.273,2.005,6.324,2.073c0.042,0.058,0.075,0.122,0.132,0.167
			c0.004,0.003,0.007,0.01,0.008,0.016C6.47,2.313,6.509,2.349,6.54,2.389c0.047,0.06,0.074,0.132,0.12,0.194
			c0.061,0.083,0.118,0.169,0.165,0.262C6.846,2.886,6.854,2.93,6.874,2.97c0.014,0.028,0.019,0.059,0.043,0.083
			C6.938,3.075,6.933,3.11,6.943,3.139c0.014,0.04,0.031,0.077,0.049,0.115C7.02,3.31,7.042,3.371,7.054,3.432
			c0.018,0.09,0.041,0.179,0.057,0.269c0.015,0.088,0.043,0.175,0.046,0.265C7.159,4.013,7.172,4.058,7.189,4.1
			c0.02,0.05,0.02,0.1,0.023,0.151C7.22,4.362,7.221,4.472,7.245,4.583C7.27,4.697,7.273,4.816,7.273,4.934
			c0,0.022,0.003,0.043,0.006,0.065C7.287,5.05,7.294,5.102,7.278,5.153c-0.006,0.019-0.007,0.04-0.003,0.06
			c0.006,0.032,0.001,0.063,0,0.096C7.273,5.365,7.271,5.423,7.28,5.48c0.002,0.014,0.006,0.029,0.003,0.042
			c-0.021,0.09-0.005,0.183-0.013,0.274C7.262,5.912,7.23,6.018,7.165,6.115C7.126,6.173,7.103,6.241,7.089,6.31
			C7.085,6.332,7.082,6.353,7.065,6.369c-0.01,0.01-0.016,0.022-0.019,0.037c-0.013,0.06-0.049,0.108-0.08,0.159
			c-0.04,0.064-0.083,0.126-0.094,0.204c-0.004,0.025-0.011,0.05-0.039,0.063C6.827,6.834,6.821,6.842,6.817,6.849
			C6.789,6.9,6.758,6.951,6.734,7.005c-0.009,0.02-0.02,0.037-0.037,0.044C6.654,7.065,6.63,7.1,6.608,7.134
			C6.577,7.182,6.53,7.197,6.481,7.214c-0.063,0.021-0.129,0.04-0.179,0.09c-0.008,0.008-0.019,0.018-0.03,0.019
			C6.219,7.328,6.167,7.345,6.114,7.346C6.016,7.349,5.918,7.342,5.82,7.339C5.779,7.338,5.726,7.293,5.719,7.253
			C5.71,7.206,5.714,7.209,5.757,7.18C5.824,7.135,5.898,7.102,5.967,7.06c0.04-0.025,0.081-0.032,0.125-0.031
			c0.029,0,0.052-0.007,0.076-0.027c0.029-0.023,0.059-0.052,0.095-0.059c0.078-0.015,0.12-0.071,0.156-0.131
			C6.451,6.759,6.49,6.71,6.516,6.653c0.017-0.037,0.019-0.085,0.06-0.111c-0.001-0.05,0.035-0.08,0.061-0.117
			C6.647,6.41,6.655,6.389,6.656,6.37c0-0.047,0.028-0.082,0.048-0.119c0.029-0.055,0.053-0.109,0.05-0.174
			C6.752,6.049,6.76,6.023,6.778,5.999c0.05-0.066,0.091-0.137,0.064-0.226c-0.003-0.012,0-0.024,0.005-0.035
			c0.037-0.085,0.018-0.172,0.011-0.26C6.852,5.39,6.838,5.301,6.851,5.21c0.009-0.069,0.015-0.138-0.002-0.208
			c-0.012-0.05-0.017-0.103-0.007-0.155C6.845,4.825,6.844,4.802,6.84,4.781C6.814,4.627,6.816,4.469,6.778,4.317
			C6.76,4.25,6.763,4.179,6.742,4.112C6.737,4.095,6.739,4.077,6.738,4.059C6.737,3.978,6.714,3.901,6.699,3.823
			C6.688,3.762,6.66,3.706,6.651,3.646C6.636,3.552,6.597,3.462,6.59,3.366c-0.002-0.03-0.031-0.044-0.042-0.07
			C6.522,3.234,6.51,3.168,6.479,3.11C6.44,3.041,6.407,2.967,6.361,2.903C6.33,2.86,6.299,2.816,6.273,2.772
			c-0.032-0.059-0.08-0.106-0.109-0.166c-0.03-0.061-0.062-0.122-0.1-0.177C6.001,2.335,5.935,2.243,5.852,2.164
			C5.787,2.102,5.712,2.052,5.65,1.986C5.639,1.974,5.625,1.969,5.609,1.964c-0.04-0.014-0.078-0.03-0.113-0.054
			C5.453,1.882,5.4,1.881,5.352,1.894C5.327,1.9,5.303,1.908,5.277,1.911c-0.096,0.01-0.175,0.051-0.231,0.132
			C5.024,2.073,5.002,2.104,4.972,2.128c-0.009,0.007-0.02,0.018-0.022,0.028C4.936,2.213,4.891,2.245,4.854,2.284
			c-0.049,0.053-0.09,0.112-0.129,0.172C4.715,2.474,4.705,2.492,4.691,2.506c-0.043,0.043-0.06,0.1-0.071,0.156
			c-0.014,0.069-0.027,0.136-0.058,0.2c-0.01,0.021-0.018,0.046-0.016,0.07c0.006,0.064-0.021,0.12-0.043,0.177
			C4.484,3.163,4.47,3.218,4.445,3.271C4.387,3.397,4.352,3.532,4.305,3.662C4.286,3.714,4.268,3.767,4.251,3.819
			C4.244,3.841,4.234,3.86,4.223,3.878C4.2,3.912,4.181,3.947,4.193,3.99C4.195,4,4.194,4.011,4.188,4.02
			C4.154,4.069,4.133,4.123,4.122,4.182C4.121,4.19,4.117,4.198,4.113,4.204C4.045,4.288,4.03,4.398,3.972,4.486
			C3.968,4.492,3.967,4.501,3.966,4.509C3.951,4.583,3.911,4.646,3.879,4.712C3.855,4.76,3.846,4.816,3.816,4.863
			C3.84,4.915,3.82,4.968,3.823,5.02c0.001,0.025,0.013,0.05,0.024,0.074c0.01,0.022,0.016,0.045,0.017,0.069
			c0.001,0.057,0.022,0.109,0.038,0.163c0.013,0.046,0.042,0.085,0.066,0.126c0.019,0.033,0.038,0.065,0.059,0.097
			C4.076,5.628,4.125,5.708,4.184,5.78C4.2,5.801,4.216,5.821,4.232,5.842C4.319,5.958,4.398,6.079,4.48,6.199
			c0.043,0.063,0.09,0.126,0.122,0.198c0.012,0.027,0.027,0.054,0.045,0.078C4.702,6.547,4.743,6.63,4.811,6.693
			C4.816,6.698,4.82,6.707,4.822,6.714c0.039,0.112,0.126,0.189,0.194,0.281c0.078,0.105,0.189,0.174,0.28,0.265
			c0.02,0.02,0.042,0.033,0.074,0.029c0.023-0.002,0.047,0.009,0.07,0.014c0.08,0.019,0.161,0.022,0.242,0.029
			C5.719,7.336,5.82,7.43,5.822,7.465c0.001,0.022,0,0.044,0.003,0.066c0.002,0.018-0.005,0.03-0.016,0.043
			C5.76,7.628,5.69,7.651,5.635,7.695C5.625,7.703,5.611,7.696,5.6,7.696c-0.036,0-0.072-0.007-0.105,0.012
			C5.477,7.717,5.458,7.713,5.441,7.707C5.398,7.691,5.353,7.692,5.309,7.687C5.265,7.681,5.217,7.676,5.176,7.654
			c-0.06-0.031-0.123-0.061-0.178-0.098c-0.053-0.036-0.11-0.069-0.149-0.125C4.824,7.396,4.786,7.373,4.752,7.345
			C4.747,7.34,4.734,7.338,4.733,7.333c-0.011-0.07-0.084-0.098-0.107-0.156C4.604,7.122,4.552,7.09,4.537,7.032
			C4.532,7.011,4.51,6.998,4.498,6.98C4.421,6.876,4.359,6.763,4.288,6.655C4.251,6.6,4.206,6.55,4.179,6.49
			C4.152,6.431,4.096,6.389,4.081,6.323c-0.002-0.007-0.007-0.015-0.013-0.02C4.01,6.252,3.975,6.184,3.935,6.121
			C3.91,6.083,3.881,6.044,3.857,6.005C3.832,5.963,3.8,5.925,3.771,5.884C3.731,5.825,3.686,5.769,3.645,5.711
			C3.598,5.645,3.548,5.581,3.528,5.5C3.525,5.489,3.52,5.477,3.513,5.468C3.453,5.393,3.455,5.3,3.433,5.213
			C3.427,5.19,3.425,5.166,3.422,5.142z"/>
		<path fill="#FFFFFF" d="M8.281,6.333c-0.015-0.045,0-0.09-0.005-0.132C8.259,6.069,8.28,5.94,8.288,5.811
			c0.002-0.044,0.019-0.088,0.007-0.134C8.288,5.648,8.311,5.622,8.32,5.599c0.021-0.047,0.027-0.097,0.041-0.144
			c0.022-0.073,0.062-0.133,0.091-0.199C8.477,5.202,8.506,5.15,8.521,5.09c0.011-0.046,0.045-0.088,0.07-0.131
			C8.612,4.921,8.638,4.885,8.645,4.84c0.002-0.011,0.008-0.018,0.014-0.026c0.025-0.033,0.049-0.065,0.064-0.106
			C8.737,4.671,8.77,4.64,8.791,4.604C8.82,4.555,8.859,4.51,8.88,4.459C8.904,4.4,8.937,4.352,8.98,4.308
			c0.007-0.007,0.013-0.015,0.017-0.024C9.033,4.201,9.091,4.131,9.143,4.06c0.043-0.061,0.082-0.126,0.146-0.17
			c0.009-0.006,0.013-0.02,0.019-0.03C9.321,3.837,9.331,3.812,9.35,3.794C9.387,3.757,9.41,3.713,9.438,3.668
			c0.024-0.042,0.056-0.084,0.089-0.122C9.542,3.528,9.558,3.51,9.564,3.486C9.574,3.45,9.59,3.417,9.621,3.393
			c0.044-0.036,0.066-0.088,0.097-0.134c0.04-0.062,0.088-0.118,0.139-0.171c0.019-0.021,0.04-0.039,0.049-0.067
			c0.004-0.012,0.01-0.024,0.022-0.027c0.058-0.011,0.084-0.061,0.114-0.101c0.038-0.05,0.084-0.085,0.139-0.11
			c0.05-0.023,0.089-0.06,0.134-0.089c0.035-0.023,0.079-0.04,0.093-0.088c0.001-0.004,0.008-0.009,0.013-0.011
			c0.086-0.023,0.158-0.081,0.248-0.094c0.029-0.004,0.059-0.008,0.089-0.011c0.031-0.004,0.064,0,0.091-0.024
			c0.004-0.003,0.012-0.006,0.018-0.005c0.106,0.007,0.215-0.017,0.321,0.011c0.004,0.001,0.009,0.003,0.012,0.002
			c0.054-0.02,0.086,0.015,0.116,0.048c0.031,0.035,0.077,0.047,0.113,0.076c0.063,0.05,0.12,0.102,0.167,0.166
			c0.036,0.049,0.077,0.094,0.104,0.149c0.02,0.041,0.028,0.086,0.049,0.128c0.054,0.111,0.102,0.225,0.15,0.338
			c0.018,0.042,0.04,0.083,0.032,0.132c-0.002,0.008-0.001,0.017,0.006,0.021c0.061,0.037,0.045,0.104,0.06,0.157
			c0.014,0.053,0.015,0.109,0.036,0.162c0.005,0.012,0.003,0.027,0.004,0.042c0.001,0.014-0.004,0.032,0.003,0.041
			C12.091,4,12.053,4.078,12.063,4.15c0.012,0.096-0.016,0.193,0.007,0.29c0.008,0.034-0.002,0.071-0.003,0.107
			c-0.001,0.028,0,0.056,0.014,0.082c0.004,0.007,0.01,0.016,0.008,0.022c-0.02,0.08-0.006,0.163-0.022,0.243
			c-0.004,0.02-0.008,0.038-0.004,0.058c0.003,0.014,0.003,0.03-0.006,0.041c-0.026,0.032-0.02,0.07-0.017,0.104
			c0.006,0.055,0.003,0.106-0.018,0.157c-0.004,0.009-0.004,0.02-0.004,0.03c-0.004,0.081-0.008,0.16-0.033,0.239
			c-0.016,0.051-0.028,0.106-0.03,0.163c-0.003,0.045-0.021,0.089-0.039,0.13c-0.016,0.036-0.026,0.071-0.022,0.11
			c0.004,0.051-0.021,0.097-0.034,0.145c-0.024,0.1-0.05,0.2-0.069,0.302c-0.01,0.05,0,0.11-0.043,0.152
			c0.006,0.066-0.031,0.118-0.057,0.174c-0.003,0.005-0.005,0.011-0.005,0.017c0.001,0.068-0.037,0.124-0.056,0.186
			c-0.017,0.054-0.047,0.101-0.074,0.149c-0.014,0.024-0.03,0.047-0.053,0.064c-0.041,0.032-0.073,0.072-0.106,0.113
			c-0.05,0.062-0.103,0.123-0.16,0.177c-0.032,0.03-0.052,0.069-0.085,0.098c-0.031,0.027-0.061,0.058-0.095,0.082
			c-0.048,0.034-0.084,0.08-0.134,0.111c-0.117,0.074-0.235,0.149-0.378,0.169c-0.057,0.008-0.112,0.027-0.169,0.042
			c-0.007,0.002-0.016,0.003-0.021,0.007c-0.054,0.041-0.114,0.044-0.18,0.044c-0.107,0-0.215-0.018-0.323-0.011
			c-0.008,0-0.017,0.002-0.024-0.001C9.757,7.921,9.683,7.915,9.61,7.902c-0.033-0.005-0.064-0.013-0.1-0.012
			C9.475,7.892,9.441,7.868,9.405,7.858C9.358,7.847,9.314,7.825,9.273,7.794C9.218,7.752,9.157,7.716,9.096,7.681
			c-0.037-0.021-0.08-0.044-0.1-0.089C8.992,7.585,8.986,7.577,8.979,7.575C8.936,7.562,8.917,7.521,8.888,7.492
			c-0.016-0.016-0.026-0.035-0.05-0.041c-0.01-0.002-0.017-0.01-0.021-0.02C8.785,7.36,8.74,7.296,8.713,7.222
			C8.698,7.18,8.685,7.072,8.709,6.999C8.836,6.602,8.681,6.811,8.664,6.82C8.641,6.844,8.598,6.888,8.556,6.88
			C8.479,6.872,8.463,6.864,8.441,6.83C8.414,6.785,8.438,6.8,8.414,6.754C8.382,6.695,8.356,6.631,8.342,6.566
			C8.324,6.487,8.28,6.414,8.281,6.333z M10.19,7.59c0.057-0.014,0.12-0.02,0.182-0.037c0.061-0.017,0.124-0.027,0.183-0.051
			c0.081-0.033,0.155-0.078,0.228-0.128c0.04-0.028,0.067-0.067,0.103-0.099c0.063-0.057,0.121-0.121,0.184-0.179
			c0.032-0.029,0.043-0.073,0.069-0.104c0.056-0.062,0.094-0.133,0.122-0.21c0.012-0.03,0.024-0.059,0.045-0.084
			c0.035-0.045,0.055-0.097,0.064-0.153c0.017-0.082,0.035-0.164,0.054-0.245c0.02-0.085,0.061-0.164,0.06-0.255
			c-0.001-0.025,0.006-0.056,0.022-0.08c0.008-0.012,0.011-0.026,0.009-0.041c-0.005-0.029,0.004-0.056,0.015-0.082
			c0.013-0.028,0.018-0.057,0.019-0.087c0-0.028,0.004-0.057,0.014-0.083c0.02-0.046,0.029-0.092,0.031-0.144
			c0.004-0.106,0.03-0.211,0.048-0.315c0.016-0.092,0.026-0.188,0.019-0.28c-0.008-0.081,0.015-0.158,0.008-0.238
			c-0.008-0.105-0.001-0.211-0.009-0.316c-0.003-0.052-0.006-0.104-0.01-0.155c-0.007-0.095-0.015-0.19-0.036-0.284
			c-0.015-0.064-0.044-0.125-0.054-0.188c-0.015-0.093-0.063-0.171-0.088-0.259c-0.02-0.07-0.04-0.144-0.09-0.206
			c-0.029-0.035-0.044-0.085-0.068-0.124c-0.046-0.071-0.08-0.152-0.149-0.207c-0.013-0.046-0.054-0.055-0.091-0.069
			c-0.055-0.021-0.109-0.046-0.172-0.031c-0.019,0.004-0.039-0.005-0.06-0.007c-0.016-0.001-0.033-0.005-0.047,0
			c-0.073,0.025-0.148,0.05-0.211,0.097c-0.064,0.047-0.119,0.106-0.193,0.139c-0.019,0.008-0.028,0.027-0.042,0.042
			c-0.031,0.033-0.062,0.068-0.099,0.094c-0.024,0.017-0.041,0.034-0.056,0.059c-0.051,0.088-0.104,0.176-0.187,0.239
			C9.991,3.532,9.979,3.547,9.977,3.564c-0.014,0.062-0.053,0.105-0.094,0.15C9.85,3.751,9.804,3.78,9.789,3.829
			C9.776,3.871,9.757,3.904,9.725,3.933C9.716,3.94,9.708,3.95,9.703,3.961C9.677,4.017,9.631,4.06,9.594,4.107
			c-0.014,0.02-0.025,0.043-0.046,0.06C9.473,4.226,9.43,4.313,9.364,4.38C9.36,4.384,9.355,4.39,9.355,4.395
			c-0.001,0.036-0.03,0.056-0.049,0.08c-0.017,0.02-0.03,0.041-0.045,0.062C9.23,4.577,9.227,4.633,9.192,4.667
			c-0.04,0.04-0.059,0.089-0.086,0.134C9.068,4.863,9.023,4.92,9,4.99C8.998,4.998,8.994,5.006,8.987,5.01
			c-0.03,0.019-0.039,0.049-0.043,0.082c-0.001,0.01-0.004,0.02-0.01,0.027C8.878,5.188,8.845,5.27,8.807,5.349
			C8.769,5.426,8.75,5.51,8.726,5.59C8.704,5.661,8.679,5.734,8.678,5.812c0,0.043-0.018,0.085-0.016,0.127
			C8.665,6.03,8.66,6.122,8.665,6.213c0.004,0.073,0.033,0.144,0.051,0.214c0.008,0.031,0.025,0.061,0.03,0.094
			c0.042,0.089-0.03,0.181,0.026,0.214c0.052,0.017,0.155-0.02,0.197-0.005c0.04,0.013,0.069,0.073,0.078,0.115
			c0.011,0.053,0.007,0.041,0.022,0.092c0.013,0.04,0.036,0.073,0.05,0.111c0.023,0.06,0.043,0.119,0.098,0.159
			C9.232,7.219,9.24,7.24,9.254,7.254c0.041,0.041,0.082,0.083,0.128,0.118c0.04,0.031,0.084,0.059,0.128,0.086
			c0.059,0.037,0.119,0.068,0.186,0.076c0.07,0.009,0.136,0.033,0.201,0.056c0.036,0.012,0.071,0.016,0.106,0.008
			c0.049-0.011,0.097-0.026,0.146-0.006C10.16,7.596,10.174,7.591,10.19,7.59z"/>
		<path fill="#FFFFFF" d="M13.43,10.741c-0.03,0.01-0.064,0.008-0.098,0.01c-0.044,0.004-0.092,0.002-0.132,0.034
			c-0.018,0.014-0.048,0.02-0.068,0.011c-0.032-0.014-0.06-0.004-0.088,0.005c-0.039,0.011-0.078,0.015-0.118,0.006
			c-0.016-0.003-0.031-0.003-0.047,0c-0.055,0.011-0.108,0.001-0.16-0.015c-0.023-0.007-0.047-0.013-0.07-0.01
			c-0.043,0.005-0.084-0.006-0.125-0.01c-0.062-0.006-0.121-0.022-0.18-0.034c-0.055-0.011-0.113-0.022-0.161-0.058
			c-0.009-0.006-0.015-0.017-0.023-0.019c-0.04-0.008-0.074-0.021-0.106-0.052c-0.029-0.027-0.075-0.036-0.115-0.05
			c-0.02-0.008-0.038-0.013-0.044-0.035c-0.001-0.004-0.004-0.009-0.007-0.01c-0.093-0.054-0.123-0.124-0.204-0.189
			c-0.01-0.007-0.069-0.065-0.079-0.068c-0.098-0.03-0.112-0.107-0.199-0.151c-0.008-0.004-0.016-0.015-0.018-0.023
			c-0.014-0.063-0.059-0.109-0.09-0.161c-0.042-0.068-0.075-0.139-0.098-0.218c-0.015-0.055-0.04-0.107-0.051-0.164
			c-0.027-0.143-0.065-0.282-0.063-0.43c0.002-0.081,0.028-0.155,0.035-0.233c0.003-0.034,0.03-0.063,0.045-0.096
			c0.023-0.051,0.044-0.107,0.084-0.15c0.021-0.022,0.037-0.048,0.048-0.076c0.023-0.063,0.074-0.114,0.09-0.182
			c0.003-0.013,0.021-0.021,0.032-0.033c0.05-0.052,0.099-0.106,0.149-0.158c0.02-0.021,0.035-0.042,0.049-0.066
			c0.014-0.023,0.03-0.044,0.054-0.062c0.027-0.02,0.041-0.057,0.061-0.087c0.008-0.012,0.014-0.03,0.024-0.033
			c0.055-0.018,0.087-0.065,0.131-0.098c0.027-0.021,0.049-0.048,0.064-0.077c0.051-0.09,0.125-0.158,0.201-0.226
			c0.02-0.017,0.036-0.037,0.053-0.057c0.051-0.059,0.111-0.108,0.165-0.163c0.044-0.046,0.089-0.091,0.134-0.136
			c0.061-0.06,0.117-0.124,0.194-0.164c0.005-0.003,0.011-0.006,0.015-0.01c0.059-0.069,0.141-0.11,0.21-0.166
			c0.047-0.038,0.096-0.078,0.152-0.104c0.02-0.009,0.039-0.02,0.053-0.039c0.008-0.011,0.019-0.022,0.03-0.027
			c0.055-0.02,0.092-0.062,0.135-0.095c0.013-0.009,0.023-0.014,0.039-0.014c0.014,0.001,0.027-0.003,0.04-0.01
			c0.105-0.058,0.222-0.087,0.336-0.125c0.041-0.014,0.082-0.03,0.124-0.044c0.073-0.025,0.146-0.049,0.22-0.074
			c0.01-0.003,0.021-0.005,0.027-0.01c0.064-0.048,0.133-0.027,0.202-0.017c0.051,0.008,0.103,0.011,0.154,0.005
			c0.027-0.003,0.049,0.002,0.074,0.016c0.05,0.027,0.107,0.025,0.163,0.028c0.039,0.002,0.075,0.008,0.107,0.03
			c0.015,0.01,0.03,0.02,0.049,0.023c0.069,0.015,0.114,0.061,0.147,0.12c0.014,0.024,0.027,0.049,0.049,0.067
			c0.007,0.005,0.014,0.012,0.016,0.019c0.021,0.072,0.069,0.13,0.101,0.197c0.009,0.019,0.014,0.038,0.018,0.057
			c0.002,0.012,0.001,0.025,0.008,0.035c0.053,0.083,0.063,0.184,0.11,0.27c0.016,0.026,0.008,0.059,0.012,0.088
			c0.011,0.08,0.018,0.159,0.002,0.239c-0.006,0.025-0.01,0.051,0.004,0.076c0.004,0.006,0.006,0.016,0.004,0.023
			c-0.015,0.083-0.002,0.168-0.013,0.251c-0.003,0.022-0.005,0.043-0.004,0.066c0.001,0.043,0.009,0.087-0.008,0.13
			c-0.005,0.013,0.001,0.031,0.002,0.047c0.002,0.014,0.009,0.03,0.005,0.041c-0.032,0.07-0.005,0.146-0.024,0.217
			c-0.009,0.035-0.01,0.071-0.005,0.107c0.003,0.024,0.004,0.047-0.011,0.07c-0.007,0.009-0.011,0.022-0.011,0.034
			c-0.002,0.124-0.045,0.236-0.094,0.348c-0.021,0.051-0.041,0.104-0.06,0.156c-0.006,0.015-0.013,0.029-0.008,0.046
			c0.005,0.013,0.001,0.024-0.005,0.035c-0.05,0.086-0.08,0.182-0.145,0.26c-0.004,0.004-0.011,0.008-0.012,0.013
			c-0.029,0.118-0.124,0.196-0.181,0.297c-0.047,0.085-0.104,0.163-0.147,0.251c-0.036,0.071-0.083,0.146-0.145,0.195
			c-0.082,0.068-0.154,0.148-0.249,0.2c-0.036,0.057-0.104,0.069-0.15,0.114c-0.023,0.021-0.06,0.03-0.092,0.04
			c-0.019,0.006-0.032,0.015-0.046,0.026c-0.062,0.051-0.132,0.087-0.205,0.115c-0.049,0.019-0.091,0.048-0.137,0.071
			C13.517,10.725,13.479,10.742,13.43,10.741z M13.351,10.384c0.045-0.015,0.095-0.019,0.143-0.036
			c0.047-0.018,0.089-0.046,0.135-0.063c0.058-0.021,0.103-0.061,0.149-0.095c0.032-0.023,0.063-0.049,0.1-0.063
			c0.027-0.009,0.045-0.027,0.063-0.045c0.048-0.05,0.106-0.082,0.159-0.123c0.061-0.047,0.113-0.1,0.162-0.157
			c0.029-0.036,0.044-0.084,0.074-0.113c0.084-0.079,0.122-0.185,0.183-0.277c0.037-0.058,0.085-0.109,0.113-0.173
			c0.021-0.048,0.029-0.103,0.072-0.139c0.004-0.003,0.001-0.012,0.003-0.018c0.024-0.054,0.032-0.113,0.057-0.168
			c0.018-0.039,0.042-0.074,0.048-0.12c0.008-0.059-0.01-0.119,0.019-0.176c0.017-0.034,0.008-0.076,0.017-0.111
			c0.011-0.04,0.015-0.077,0.011-0.116c-0.001-0.01,0.003-0.02,0.005-0.029c0.007-0.049,0.016-0.097,0.01-0.148
			c-0.004-0.037,0.004-0.075,0.009-0.112c0.007-0.054,0.015-0.108,0.024-0.162c0.01-0.048,0.003-0.095,0.004-0.143
			c0-0.075,0.012-0.15-0.002-0.227c-0.007-0.044-0.011-0.091-0.014-0.137c-0.009-0.125-0.031-0.246-0.109-0.349
			c-0.007-0.01-0.01-0.021-0.014-0.033c-0.042-0.168-0.165-0.269-0.302-0.356c-0.016-0.01-0.037-0.017-0.058-0.011
			c-0.016,0.004-0.031-0.003-0.047-0.003c-0.063,0.003-0.126-0.022-0.189-0.012c-0.054,0.009-0.105,0.024-0.159,0.03
			c-0.051,0.006-0.093,0.037-0.143,0.042c-0.039,0.004-0.077,0.014-0.108,0.033c-0.052,0.032-0.115,0.031-0.164,0.069
			c-0.011,0.009-0.03,0.008-0.046,0.01c-0.012,0.001-0.023,0-0.035,0.006c-0.078,0.042-0.151,0.093-0.225,0.142
			c-0.064,0.043-0.121,0.098-0.183,0.145c-0.037,0.029-0.08,0.048-0.118,0.076c-0.031,0.023-0.049,0.059-0.083,0.075
			c-0.075,0.036-0.128,0.1-0.191,0.15c-0.058,0.046-0.116,0.092-0.15,0.16c-0.005,0.008-0.015,0.014-0.021,0.021
			c-0.059,0.061-0.145,0.096-0.175,0.183c0,0.002-0.002,0.003-0.004,0.005c-0.04,0.042-0.081,0.083-0.119,0.125
			c-0.057,0.061-0.116,0.118-0.171,0.182c-0.035,0.041-0.064,0.085-0.099,0.125c-0.03,0.037-0.058,0.075-0.088,0.112
			c-0.03,0.038-0.074,0.07-0.091,0.113c-0.023,0.058-0.074,0.093-0.098,0.147c-0.019,0.042-0.064,0.068-0.077,0.111
			c-0.013,0.044-0.04,0.078-0.063,0.113c-0.022,0.033-0.035,0.068-0.045,0.104c-0.01,0.044-0.01,0.09-0.03,0.133
			c-0.006,0.013-0.003,0.028,0.003,0.041c0.009,0.017,0.008,0.034,0.007,0.053c-0.003,0.042,0.004,0.082,0.018,0.122
			c0.006,0.019,0.007,0.039,0.012,0.059c0.013,0.048,0.015,0.104,0.041,0.143c0.053,0.077,0.075,0.167,0.12,0.247
			c0.037,0.066,0.062,0.098,0.135,0.142c0.025,0.036,0.074,0.063,0.091,0.084c0.039,0.046,0.109,0.109,0.145,0.158
			c0.049,0.068,0.067,0.044,0.141,0.087c0.047,0.027,0.095,0.053,0.14,0.081c0.106,0.067,0.221,0.109,0.349,0.11
			c0.01,0,0.02,0.002,0.029,0.005c0.056,0.016,0.111,0.017,0.169,0.021c0.042,0.003,0.084-0.005,0.124-0.002
			c0.064,0.005,0.127,0.001,0.188-0.019C13.246,10.4,13.296,10.388,13.351,10.384z"/>
		<path fill="#FFFFFF" d="M1.734,6.251C1.778,6.236,1.82,6.23,1.862,6.229c0.053-0.002,0.1,0.026,0.152,0.026
			c0.031,0.046,0.085,0.039,0.128,0.058c0.093,0.04,0.181,0.091,0.27,0.141c0.058,0.033,0.113,0.07,0.162,0.112
			C2.636,6.62,2.708,6.658,2.773,6.708c0.021,0.017,0.036,0.037,0.053,0.057C2.867,6.814,2.928,6.84,2.969,6.89
			C2.98,6.904,2.995,6.915,3.004,6.931C3.02,6.957,3.038,6.979,3.066,6.993c0.016,0.008,0.031,0.019,0.04,0.036
			c0.013,0.023,0.029,0.042,0.057,0.049c0.013,0.003,0.019,0.014,0.025,0.024c0.017,0.024,0.035,0.048,0.065,0.06
			C3.262,7.165,3.271,7.172,3.276,7.18C3.321,7.25,3.385,7.299,3.441,7.357C3.489,7.405,3.537,7.452,3.584,7.5
			c0.025,0.024,0.058,0.036,0.082,0.06c0.069,0.072,0.146,0.135,0.221,0.199c0.051,0.043,0.105,0.089,0.136,0.152
			c0.01,0.021,0.038,0.021,0.052,0.039c0.04,0.051,0.089,0.092,0.125,0.147c0.016,0.024,0.042,0.042,0.056,0.07
			c0.031,0.06,0.098,0.097,0.109,0.17C4.4,8.372,4.416,8.417,4.438,8.459c0.016,0.03,0.023,0.062,0.029,0.096
			c0.007,0.043,0.03,0.084,0.049,0.125c0.016,0.034,0.038,0.065,0.04,0.103C4.56,8.854,4.564,8.925,4.563,8.997
			c-0.001,0.055-0.003,0.11,0,0.166c0.001,0.027-0.007,0.052-0.013,0.077c-0.023,0.108-0.08,0.201-0.14,0.292
			C4.403,9.543,4.392,9.554,4.389,9.567c-0.015,0.054-0.062,0.081-0.1,0.114C4.271,9.698,4.256,9.711,4.258,9.735
			C4.26,9.758,4.25,9.772,4.232,9.784C4.215,9.796,4.199,9.813,4.195,9.831c-0.015,0.072-0.078,0.12-0.098,0.19
			c-0.005,0.019-0.025,0.03-0.037,0.046c-0.081,0.101-0.142,0.214-0.218,0.317c-0.027,0.037-0.056,0.073-0.085,0.108
			c-0.023,0.028-0.046,0.058-0.068,0.086c-0.064,0.085-0.15,0.138-0.242,0.188c-0.092,0.049-0.192,0.069-0.291,0.086
			c-0.089,0.014-0.183,0.016-0.271-0.022c-0.01-0.005-0.023-0.007-0.035-0.006c-0.069,0.005-0.126-0.023-0.182-0.061
			c-0.026-0.018-0.058-0.028-0.085-0.044c-0.075-0.043-0.15-0.085-0.185-0.174c-0.017-0.042-0.032-0.08-0.017-0.126
			s0.073-0.08,0.121-0.073c0.081,0.012,0.159,0.035,0.237,0.06c0.058,0.018,0.112,0.041,0.169,0.059
			c0.128,0.041,0.256,0.035,0.384,0.002c0.022-0.006,0.043-0.018,0.057-0.032c0.041-0.046,0.091-0.082,0.127-0.133
			c0.046-0.065,0.093-0.13,0.137-0.196c0.017-0.025,0.038-0.047,0.059-0.068C3.74,9.968,3.781,9.88,3.836,9.801
			c0.05-0.071,0.095-0.147,0.125-0.23c0.01-0.029,0.035-0.048,0.052-0.072c0.038-0.055,0.075-0.109,0.11-0.165
			C4.143,9.301,4.15,9.261,4.167,9.23c0.038-0.069,0.009-0.138,0.016-0.205C4.187,8.99,4.156,8.959,4.157,8.922
			C4.158,8.863,4.136,8.81,4.115,8.756C4.098,8.716,4.073,8.68,4.051,8.643C4.028,8.601,4.016,8.554,3.985,8.516
			C3.97,8.498,3.957,8.478,3.94,8.461C3.933,8.454,3.923,8.448,3.919,8.44c-0.037-0.086-0.12-0.131-0.177-0.197
			C3.657,8.145,3.543,8.076,3.469,7.968c-0.01-0.016-0.028-0.022-0.042-0.033C3.412,7.924,3.392,7.918,3.387,7.9
			c-0.008-0.03-0.03-0.042-0.056-0.049C3.307,7.844,3.296,7.824,3.284,7.808C3.249,7.761,3.213,7.716,3.16,7.689
			C3.142,7.681,3.14,7.661,3.128,7.647C3.096,7.609,3.053,7.589,3.012,7.566C2.997,7.558,2.983,7.552,2.986,7.531
			C2.988,7.521,2.98,7.511,2.973,7.506c-0.043-0.024-0.063-0.074-0.101-0.1C2.825,7.373,2.8,7.319,2.748,7.295
			C2.741,7.292,2.734,7.286,2.73,7.28C2.644,7.166,2.535,7.078,2.418,6.996c-0.066-0.046-0.13-0.098-0.197-0.144
			c-0.015-0.011-0.03-0.02-0.048-0.022C2.158,6.828,2.147,6.82,2.136,6.811c-0.047-0.04-0.1-0.071-0.163-0.079
			C1.958,6.73,1.944,6.719,1.93,6.711C1.921,6.707,1.91,6.694,1.905,6.697C1.864,6.719,1.83,6.686,1.792,6.686
			c-0.032,0-0.064-0.001-0.098,0.016C1.582,6.756,1.492,6.838,1.404,6.923C1.313,7.01,1.257,7.12,1.2,7.23
			C1.19,7.249,1.187,7.271,1.182,7.293C1.18,7.305,1.18,7.319,1.168,7.324C1.134,7.338,1.125,7.367,1.114,7.398
			C1.098,7.442,1.069,7.482,1.08,7.533c0,0.004,0,0.008-0.002,0.012C1.029,7.647,1.051,7.759,1.041,7.866
			C1.035,7.916,1.04,7.96,1.06,8.005c0.007,0.014,0.009,0.031,0.009,0.047C1.066,8.144,1.1,8.231,1.107,8.323
			C1.113,8.397,1.143,8.471,1.18,8.538c0.039,0.069,0.06,0.143,0.082,0.217c0.016,0.054,0.036,0.105,0.07,0.15
			c0.014,0.02,0.024,0.041,0.029,0.065C1.373,9.035,1.4,9.095,1.437,9.15c0.021,0.032,0.034,0.071,0.041,0.104
			c0.014,0.074,0.054,0.138,0.078,0.207C1.6,9.584,1.651,9.705,1.719,9.818c0.036,0.06,0.081,0.112,0.115,0.172
			c0.031,0.054,0.062,0.107,0.096,0.158c0.04,0.06,0.072,0.125,0.114,0.183c0.031,0.042,0.055,0.092,0.098,0.126
			c0.012,0.009,0.022,0.022,0.03,0.036c0.029,0.049,0.06,0.095,0.119,0.112c0.019,0.006,0.025,0.024,0.034,0.04
			c0.017,0.032,0.019,0.069,0.031,0.104c0.011,0.031-0.021,0.071-0.061,0.075c-0.1,0.01-0.2,0.017-0.282-0.062
			c-0.009-0.009-0.018-0.016-0.031-0.016c-0.012-0.001-0.026-0.005-0.03-0.017c-0.01-0.037-0.043-0.052-0.068-0.073
			c-0.067-0.056-0.129-0.115-0.167-0.195c-0.001-0.002-0.001-0.004-0.003-0.006c-0.086-0.081-0.119-0.197-0.186-0.291
			c-0.043-0.061-0.08-0.127-0.119-0.19C1.375,9.916,1.347,9.852,1.32,9.788C1.254,9.63,1.192,9.47,1.124,9.313
			C1.082,9.216,1.03,9.124,0.997,9.023c-0.055-0.055-0.047-0.143-0.1-0.199C0.895,8.822,0.893,8.817,0.892,8.813
			C0.852,8.65,0.779,8.498,0.741,8.335C0.718,8.236,0.697,8.136,0.707,8.032c0.003-0.03-0.004-0.06-0.01-0.089
			c-0.01-0.05-0.01-0.099-0.006-0.149C0.697,7.725,0.697,7.656,0.7,7.587c0.001-0.034,0.005-0.068,0.018-0.1
			c0.033-0.084,0.058-0.17,0.1-0.252C0.862,7.149,0.901,7.06,0.955,6.978c0.022-0.035,0.043-0.071,0.073-0.1
			c0.016-0.016,0.026-0.036,0.037-0.055c0.013-0.025,0.025-0.05,0.047-0.068c0.004-0.004,0.008-0.01,0.01-0.015
			C1.143,6.68,1.18,6.634,1.232,6.598c0.001-0.001,0.003-0.003,0.004-0.004c0.027-0.075,0.1-0.102,0.155-0.147
			c0.004-0.004,0.013-0.005,0.015-0.01c0.035-0.07,0.11-0.085,0.167-0.124C1.576,6.312,1.578,6.311,1.579,6.31
			C1.625,6.271,1.677,6.249,1.734,6.251z"/>
	</g>
</g>
</svg>
