<?xml version="1.0" encoding="utf-8"?>
<!-- Generator: Adobe Illustrator 16.0.0, SVG Export Plug-In . SVG Version: 6.00 Build 0)  -->
<!DOCTYPE svg PUBLIC "-//W3C//DTD SVG 1.1//EN" "http://www.w3.org/Graphics/SVG/1.1/DTD/svg11.dtd">
<svg version="1.1" id="Layer_1" xmlns="http://www.w3.org/2000/svg" xmlns:xlink="http://www.w3.org/1999/xlink" x="0px" y="0px"
	 width="512px" height="512px" viewBox="0 0 512 512" enable-background="new 0 0 512 512" xml:space="preserve">
<g>
	<path fill="#7D581E" d="M511.113,251.784c-0.07-0.732-0.36-1.573-0.132-2.193c0.735-2.001,0.36-4.024,0.313-6.041
		c-0.035-1.032,0.059-2.023,0.18-3.041c0.47-3.864-0.143-7.783,0.503-11.642c0.063-0.345-0.01-0.783-0.18-1.086
		c-0.642-1.159-0.438-2.382-0.222-3.526c0.708-3.696,0.368-7.384-0.131-11.064c-0.186-1.378,0.145-2.886-0.536-4.12
		c-2.179-3.968-2.649-8.646-5.044-12.523c-0.271-0.44-0.258-1.074-0.365-1.618c-0.176-0.91-0.378-1.802-0.765-2.664
		c-1.42-3.112-3.589-5.822-4.583-9.153c-0.096-0.326-0.4-0.633-0.665-0.867c-0.991-0.861-1.594-1.987-2.222-3.12
		c-1.525-2.753-3.53-4.919-6.661-5.616c-0.817-0.175-1.506-0.618-2.169-1.09c-1.467-1.043-3.063-1.332-4.823-1.429
		c-2.479-0.137-5.079-0.085-7.33-1.343c-1.117-0.626-2.101-0.875-3.304-0.74c-2.306,0.266-4.633,0.078-6.905-0.291
		c-3.095-0.501-6.163-1.477-9.021,0.709c-0.341,0.26-0.833,0.331-1.254,0.473c-3.27,1.12-6.55,2.223-9.814,3.355
		c-1.865,0.648-3.696,1.393-5.554,2.021c-5.067,1.721-10.261,3.08-14.999,5.714c-0.563,0.311-1.158,0.506-1.802,0.47
		c-0.659-0.034-1.175,0.203-1.703,0.629c-1.929,1.545-3.597,3.472-5.993,4.36c-0.545,0.205-1.048,0.743-1.396,1.257
		c-0.598,0.887-1.445,1.374-2.327,1.792c-0.012,0.005-0.021,0.006-0.029,0.014c0.074-0.198,0.248-0.397,0.331-0.603
		c1.854-4.547,1.869-9.472,2.896-14.188c0.123-0.561,0.107-1.186-0.261-1.692c-0.52-0.704-0.379-1.472-0.352-2.254
		c0.09-2.726,0.213-5.475,0.486-8.163c0.608-5.923,0.938-11.76-0.794-17.551c-0.162-0.534-0.164-1.191-0.004-1.724
		c0.366-1.243-0.049-2.339-0.523-3.399c-0.735-1.623-1.258-3.317-1.326-5.069c-0.145-3.588-2.535-6.702-2.101-10.417
		c0.066-0.582-0.526-1.23-0.792-1.859c-0.306-0.712-0.865-1.46-0.823-2.162c0.137-2.251-0.877-4.158-1.565-6.166
		c-0.346-1.023-0.57-2.054-0.755-3.113c-0.716-4.035-2.573-7.771-3.107-11.861c-0.045-0.362-0.256-0.782-0.524-1.031
		c-1.024-0.944-1.2-2.241-1.328-3.467c-0.422-3.947-1.918-7.535-3.581-11.063c-0.622-1.319-0.759-2.944-1.844-3.953
		c-3.495-3.253-5.432-7.8-9.13-10.888c-0.417-0.349-0.601-0.994-0.882-1.503c-0.47-0.855-0.953-1.684-1.626-2.415
		c-2.437-2.652-5.528-4.647-7.602-7.66c-0.203-0.294-0.604-0.503-0.963-0.642c-1.29-0.536-2.267-1.466-3.275-2.394
		c-2.426-2.254-5.188-3.753-8.643-3.402c-0.905,0.093-1.753-0.121-2.594-0.374c-1.838-0.552-3.587-0.311-5.438,0.183
		c-2.607,0.694-5.287,1.615-8.01,1.104c-1.355-0.252-2.454-0.171-3.647,0.367c-2.315,1.035-4.781,1.627-7.252,2.022
		c-3.362,0.53-6.844,0.582-9.126,3.733c-0.273,0.379-0.751,0.609-1.146,0.898c-3.042,2.217-6.095,4.42-9.124,6.656
		c-1.725,1.274-3.386,2.628-5.124,3.889c-4.712,3.424-9.67,6.527-13.756,10.758c-0.488,0.502-1.04,0.896-1.717,1.078
		c-0.692,0.187-1.15,0.594-1.57,1.203c-1.514,2.198-2.641,4.69-4.845,6.39c-0.507,0.389-0.856,1.093-1.058,1.727
		c-0.341,1.087-1.068,1.857-1.856,2.579c-2.253,2.05-3.933,4.596-5.564,7.075c-2.39,3.635-5.594,6.721-7.301,10.81
		c-0.107,0.26-0.338,0.478-0.542,0.688c-2.99,2.985-4.646,6.803-6.583,10.465c-1.449,2.748-2.85,5.51-4.236,8.281
		c-1.686,3.365-3.729,6.561-5.237,10.017c-0.509,1.16-0.959,2.319-1.617,3.417c-0.711,1.175-1.405,2.36-2.071,3.557
		c0.162-4.205-0.775-8.487-0.954-12.723c-0.02-0.579-0.197-1.203-0.671-1.66c-0.665-0.64-0.724-1.429-0.891-2.215
		c-0.598-2.744-1.171-5.517-1.575-8.25c-0.911-6.019-2.054-11.914-5.144-17.494c-0.282-0.515-0.448-1.178-0.436-1.73
		c0.037-1.293-0.624-2.336-1.338-3.335c-1.103-1.533-2.018-3.167-2.524-4.91c-1.037-3.58-4.078-6.387-4.589-10.17
		c-0.085-0.589-0.803-1.162-1.214-1.757c-0.472-0.677-1.188-1.352-1.322-2.06c-0.428-2.28-1.871-4.057-3.021-5.98
		c-0.584-0.982-1.051-1.984-1.491-3.019c-1.691-3.955-4.381-7.456-5.907-11.486c-0.131-0.357-0.44-0.746-0.758-0.96
		c-1.203-0.817-1.697-2.095-2.12-3.302c-1.387-3.906-3.701-7.305-6.159-10.623c-0.918-1.239-1.449-2.858-2.732-3.724
		c-4.126-2.802-7.096-7.102-11.363-9.712c-0.486-0.293-0.819-0.911-1.216-1.39c-0.657-0.796-1.319-1.558-2.142-2.21
		c-2.971-2.334-6.395-3.926-9.111-6.673c-0.267-0.271-0.7-0.425-1.071-0.523c-1.354-0.364-2.515-1.165-3.698-1.968
		c-2.863-1.937-5.847-3.078-9.039-2.27c-0.831,0.214-1.685,0.113-2.544-0.031c-1.883-0.311-3.475,0.16-5.108,0.901
		c-2.296,1.041-4.605,2.315-7.316,2.164c-1.339-0.077-2.363,0.15-3.36,0.848c-1.929,1.346-4.117,2.264-6.363,2.982
		c-3.05,0.976-6.336,1.485-7.708,4.944c-0.163,0.416-0.563,0.711-0.863,1.05c-2.325,2.625-4.668,5.238-6.979,7.879
		c-1.314,1.507-2.549,3.088-3.878,4.579c-3.608,4.055-7.533,7.82-10.343,12.6c-0.335,0.567-0.761,1.036-1.356,1.309
		c-0.612,0.28-0.944,0.748-1.188,1.409c-0.886,2.406-1.331,5.051-2.995,7.048c-0.379,0.453-0.538,1.206-0.565,1.872
		c-0.054,1.135-0.552,2.004-1.116,2.832c-1.619,2.352-2.575,5.125-3.506,7.826c-1.353,3.959-3.621,7.482-4.212,11.804
		c-0.036,0.277-0.199,0.521-0.344,0.755c-2.085,3.391-2.706,7.438-3.622,11.366c-0.684,2.945-1.322,5.897-1.941,8.862
		c-0.757,3.596-1.894,7.069-2.461,10.735c-0.192,1.225-0.333,2.451-0.68,3.638c-1.35,4.577-2.599,9.185-2.342,14.261
		c0.082,1.643-0.058,3.283-0.655,4.803c-0.925,2.36-1.015,5.141-2.786,7.095c-0.336,0.371-0.099,1.313-0.111,1.992
		c-0.03,1.728,0.371,3.686-0.206,5.135c-0.507,1.293-0.622,2.576-0.598,3.879c0.027,1.381-0.006,2.689-0.296,4.008
		c-0.73,3.361-1.319,6.77-1.98,10.16c-0.141,0.738-0.67,1.535-0.463,2.174c1.11,3.356,0.381,6.637,1.028,9.973
		c0.039,0.206,0.06,0.411,0.087,0.615c-1.511-1.019-3.014-2.045-4.338-3.305c-0.233-0.222-0.613-0.405-0.935-0.438
		c-1.23-0.132-2.076-0.928-2.849-1.698c-2.503-2.475-5.539-4.175-8.65-5.743c-1.164-0.592-2.168-1.635-3.472-1.783
		c-4.21-0.477-8.079-2.601-12.329-2.865c-0.484-0.029-0.967-0.379-1.447-0.589c-0.8-0.347-1.59-0.667-2.462-0.834
		c-3.147-0.593-6.374-0.412-9.475-1.434c-0.307-0.097-0.7-0.041-1.021,0.038c-1.179,0.277-2.366,0.134-3.574,0.001
		c-2.918-0.326-5.64,0.024-7.802,1.982c-0.564,0.506-1.258,0.783-1.975,1.031c-1.566,0.537-2.62,1.57-3.61,2.829
		c-1.385,1.764-2.7,3.723-4.844,4.729c-1.065,0.501-1.768,1.1-2.282,2.06c-0.993,1.859-2.341,3.481-3.814,4.98
		c-1.989,2.031-4.336,3.794-4.125,7.07c0.027,0.392-0.172,0.785-0.28,1.18c-0.828,3.019-1.676,6.033-2.487,9.059
		c-0.464,1.728-0.835,3.475-1.312,5.193c-1.298,4.668-2.939,9.245-3.353,14.153c-0.049,0.583-0.205,1.123-0.563,1.586
		c-0.373,0.469-0.455,0.975-0.4,1.596c0.201,2.247,0.83,4.501,0.28,6.753c-0.128,0.513,0.029,1.171,0.245,1.697
		c0.38,0.916,0.314,1.799,0.182,2.679c-0.381,2.517-0.102,5.081,0.174,7.583c0.407,3.658-0.048,7.346,1.083,10.972
		c0.073,0.232,0.036,0.494,0.011,0.741c-0.36,3.513,0.644,6.939,1.382,10.393c0.556,2.586,1.147,5.158,1.752,7.735
		c0.74,3.12,1.137,6.31,2.043,9.415c0.308,1.041,0.647,2.054,0.817,3.128c0.637,4.141,1.364,8.255,3.427,12.122
		c0.666,1.253,1.158,2.591,1.26,4.028c0.151,2.233,1.102,4.44,0.456,6.707c-0.124,0.434,0.402,1.065,0.646,1.605
		c0.609,1.363,1.635,2.727,1.724,4.098c0.08,1.228,0.467,2.278,0.964,3.281c0.531,1.068,0.978,2.108,1.243,3.261
		c0.669,2.932,1.469,5.848,2.202,8.768c0.162,0.638,0.044,1.482,0.44,1.888c2.089,2.165,2.73,5.036,4.454,7.371
		c0.738,1.008,1.295,2.185,1.61,3.423c0.601,2.368,2.137,4.4,3.455,6.423c0.826,1.266,1.235,2.887,2.397,3.817
		c2.667,2.13,4.726,4.8,7.611,6.807c5.29,3.679,11.218,5.816,16.998,8.356c2.319,1.021,4.803,1.473,7.144,2.297
		c2.234,0.79,4.453,1.315,6.715,1.664c-1.786,4.146-3.658,8.248-4.649,12.715c-0.773,3.499-1.934,6.911-2.912,10.367
		c-0.148,0.515-0.309,1.031-0.366,1.557c-0.322,3.079,0.096,6.165-0.193,9.249c-0.381,4.166,1.91,7.624,3.314,11.285
		c1.248,3.249,3.54,6.063,4.208,9.602c0.07,0.381,0.218,0.794,0.577,0.948c0.814,0.322,1.003,1.085,1.322,1.764
		c1.93,4.096,4.927,7.278,8.479,9.98c0.298,0.228,0.554,0.653,0.952,0.396c1.504-0.989,1.792,0.252,2.226,1.209
		c0.733,1.592,1.215,3.377,2.22,4.777c1.992,2.764,4.387,5.227,6.29,8.086c1.713,2.577,4.623,3.985,6.446,6.423
		c1.394,1.871,3.123,3.283,4.827,4.795c2.423,2.155,4.957,4.189,7.236,6.521c1.746,1.782,3.425,3.65,5.257,5.322
		c1.948,1.766,4.37,3,6.453,4.645c1.319,1.045,2.84,1.704,4.172,2.732c3.125,2.434,6.517,4.464,10.329,5.676
		c1.229,0.397,2.517,0.485,3.764,0.833c2.329,0.64,4.698,1.248,7.093,1.522c4.805,0.557,9.634,0.119,14.453,0.045
		c0.85-0.01,1.689-0.112,2.378-0.653c0.902-0.706,1.927-0.821,3.01-0.812c1.708,0.025,3.276-0.354,4.705-1.412
		c2.173-1.599,5.204-1.589,7.107-3.76c0.161-0.182,0.576-0.131,0.871-0.199c2.729-0.632,5.081-2.378,7.913-2.717
		c0.272-0.029,0.592-0.246,0.764-0.475c0.848-1.109,2.133-1.426,3.334-1.823c1.1-0.36,2.085-0.831,3.003-1.547
		c2.473-1.927,5.246-3.378,8.154-4.428c2.13-0.755,4.088-2.204,6.525-2.003c0.212,0.018,0.453-0.074,0.648-0.178
		c1.784-0.982,3.74-1.098,5.711-1.289c1.271-0.113,2.564-0.039,3.822-0.474c3.601-1.236,7.371-1.764,11.076-2.563
		c0.866-0.185,1.759-0.05,2.653-0.425c2.026-0.847,4.191-1.43,6.379-1.109c1.729,0.247,3.435,0.099,4.924-0.463
		c1.979-0.751,3.979-0.782,5.99-0.99c0.985-0.102,1.965-0.193,2.896-0.58c0.269-0.114,0.62-0.284,0.848-0.196
		c2.425,0.953,4.759-0.882,7.16-0.188c3.078-0.909,6.276-0.293,9.423-0.767c3.099-0.468,6.304-0.201,9.327-0.266
		c4.057-0.593,7.829,0.287,11.551,1.323c4.724,1.316,9.574,2.206,14.104,4.162c1.107,0.481,2.155,1.258,3.304,1.475
		c3.197,0.608,5.885,2.416,8.793,3.647c3.259,1.383,6.384,3.157,9.58,4.634c3.841,1.766,7.555,3.774,11.387,5.525
		c2.526,1.157,5.077,2.415,7.962,2.454c0.395,0.006,0.767,0.049,1.042,0.362c0.62,0.704,1.527,0.825,2.308,0.827
		c2.979,0.021,5.841,0.993,8.786,1.114c2.104,0.092,4.316,0.591,6.322-0.188c1.618-0.642,3.239-0.89,4.89-0.8
		c1.545,0.086,3.003-0.23,4.493-0.435c1.177-0.158,2.031-0.956,3.086-1.357c2.376-0.905,4.643-2.095,6.294-4.203
		c0.603-0.763,1.017-1.732,1.991-2.151c1.345-0.58,2.035-1.756,2.694-2.971c1.082-1.975,1.866-4.128,3.505-5.77
		c0.472-0.484,0.759-1.144,1.148-1.682c1.641-2.253,2.28-5.114,4.295-7.143c0.291-0.286,0.285-0.849,0.471-1.271
		c0.877-1.981,1.369-4.088,2.736-5.936c1.492-2.028,2.609-4.459,2.241-7.215c-0.195-1.455-1.069-2.838-0.354-4.408
		c0.221-0.481-0.321-0.975-0.63-1.416c-0.359-0.532-0.485-1.088-0.254-1.729c1.233-3.454,2.399-6.91,2.103-10.681
		c-0.035-0.513,0.139-1.06,0.26-1.578c0.952-3.882,1.535-7.804,1.334-11.804c-0.127-2.515,0.448-5.042-0.24-7.535
		c-0.31-1.119-0.206-2.253-0.218-3.401c-0.043-3.581,0.07-7.174-0.808-10.726c-0.618-2.524-1.309-5.048-1.771-7.584
		c-0.728-3.967-2.748-7.437-4.025-11.174c1.723,0.398,3.476,0.558,5.253,0.223c0.728-0.143,1.43-0.16,2.134,0.006
		c1.796,0.425,3.517,0.259,5.275-0.26c1.249-0.368,2.487-0.804,3.911-0.191c0.957,0.416,2.302,0.158,3.1-0.497
		c1.772-1.447,3.887-1.379,5.882-1.51c1.5-0.107,3.016-0.004,4.359-0.466c2.161,0.094,3.862-0.712,5.672-1.637
		c2.048-1.049,3.94-2.391,6.111-3.241c3.274-1.279,6.392-2.973,9.12-5.302c0.618-0.524,1.256-0.938,2.06-1.201
		c1.422-0.463,3.066-0.858,4.086-1.861c2.06-2.024,5.126-2.631,6.712-5.24c4.225-2.382,7.47-6.084,11.121-9.198
		c2.715-2.308,4.814-5.719,6.411-9.045c1.938-4.023,4.438-7.669,6.528-11.568c2.493-4.651,6.741-8.225,7.983-13.719
		c0.053-0.234,0.366-0.391,0.534-0.606c2.867-3.573,4.217-8.024,6.405-11.992c0.258-0.474,0.416-1.041,0.227-1.61
		c-0.262-0.784,0.08-1.443,0.309-2.138c0.824-2.446,1.679-4.898,2.652-7.248c2.149-5.179,4.029-10.369,4.082-16.121
		c0.008-0.526,0.186-1.121,0.468-1.563c0.662-1.016,0.602-2.126,0.471-3.222c-0.207-1.689-0.201-3.376,0.215-4.978
		c0.85-3.29-0.404-6.81,0.992-10.045C511.518,253.193,511.174,252.435,511.113,251.784z"/>
	<g>
		<path fill="#FFFFFF" d="M276.362,447.506c-2.555,0.055-5.255-0.164-7.874,0.226c-2.65,0.398-5.348-0.114-7.95,0.648
			c-2.03-0.58-3.998,0.963-6.044,0.161c-0.187-0.072-0.488,0.074-0.716,0.168c-0.778,0.326-1.613,0.397-2.449,0.489
			c-1.691,0.178-3.381,0.207-5.057,0.831c-1.258,0.477-2.698,0.601-4.148,0.389c-1.851-0.266-3.68,0.229-5.39,0.939
			c-0.76,0.309-1.509,0.203-2.245,0.355c-3.122,0.665-6.311,1.111-9.348,2.153c-1.063,0.358-2.152,0.3-3.228,0.397
			c-1.662,0.154-3.313,0.256-4.817,1.083c-0.166,0.088-0.375,0.158-0.55,0.148c-2.057-0.168-3.715,1.043-5.513,1.688
			c-2.455,0.874-4.798,2.091-6.883,3.698c-0.779,0.606-1.608,1.001-2.539,1.307c-1.013,0.328-2.099,0.593-2.814,1.521
			c-0.147,0.193-0.415,0.371-0.644,0.397c-2.392,0.297-4.38,1.744-6.684,2.284c-0.248,0.053-0.598,0.01-0.733,0.164
			c-1.61,1.818-4.167,1.811-6.006,3.152c-1.204,0.881-2.527,1.199-3.97,1.188c-0.914-0.01-1.779,0.082-2.542,0.679
			c-0.578,0.45-1.293,0.54-2.009,0.548c-4.068,0.066-8.145,0.436-12.199-0.021c-2.019-0.231-4.021-0.737-5.982-1.273
			c-1.056-0.29-2.141-0.366-3.181-0.69c-3.213-1.013-6.078-2.709-8.713-4.739c-1.122-0.864-2.406-1.414-3.521-2.288
			c-1.754-1.375-3.801-2.397-5.439-3.88c-1.547-1.398-2.965-2.963-4.438-4.45c-1.923-1.953-4.057-3.649-6.102-5.452
			c-1.438-1.264-2.895-2.441-4.072-4.004c-1.535-2.04-3.989-3.221-5.435-5.366c-1.604-2.391-3.624-4.452-5.302-6.77
			c-0.85-1.165-0.439-0.683-1.056-2.019c-0.367-0.796-0.884-2.924-2.158-2.104c-0.337,0.22-1.088-1.019-1.339-1.208
			c-2.996-2.251-5.52-4.915-7.148-8.344c-0.269-0.571-0.429-1.199-1.114-1.48c-0.304-0.121-0.427-0.462-0.487-0.788
			c-0.561-2.957-2.495-5.301-3.546-8.036c-1.179-3.058-3.111-5.95-2.784-9.428c0.242-2.583-0.104-5.169,0.168-7.738
			c0.048-0.438,0.185-0.877,0.308-1.309c0.828-2.887,1.813-5.744,2.468-8.676c0.855-3.807,2.481-7.298,4.016-10.832
			c0.614-1.419,1.659-2.581,2.474-3.872c0.956-1.514,1.836-3.08,2.858-4.551c0.333-0.481,0.615-0.971,1.101-1.299
			c0.905-0.606,1.753-1.287,2.482-2.106c0.526-0.601,1.287-0.911,2.015-1.055c1.82-0.361,3.597-0.776,5.17-1.816
			c0.152-0.104,0.387-0.188,0.548-0.146c2.462,0.618,4.736-0.792,7.182-0.646c1.436,0.084,2.781-0.78,4.179-1.17
			c0.913-0.244,1.777-0.63,2.751-0.681c0.506-0.025,1.033-0.15,1.485-0.359c2.032-0.963,4.345-0.912,6.399-1.808
			c0.501-0.223,1.136-0.148,1.709-0.178c2.539-0.127,4.988-0.201,7.213-1.935c1.151-0.897,2.815-1.361,4.305-1.869
			c0.874-0.302,1.654-0.679,2.161-1.5c0.165-0.257,0.411-0.524,0.679-0.663c3.501-1.81,6.175-4.665,9.015-7.278
			c1.768-1.633,3.159-3.655,4.714-5.515c1.346-1.61,2.741-3.175,4.036-4.831c0.44-0.565,0.943-1.152,1.098-1.78
			c0.528-2.128,2.132-3.792,2.461-5.982c0.05-0.33,0.204-0.599,0.445-0.827c0.93-0.86,1.061-1.995,1.053-3.153
			c-0.008-0.469,0.04-0.896,0.274-1.29c0.981-1.646,1.641-3.448,2.057-5.279c0.452-1.973,1-3.769,2.282-5.44
			c1.022-1.328,1.549-3.081,1.349-4.88c-0.083-0.753,0.095-1.371,0.574-1.956c0.234-0.285,0.456-0.659,0.505-1.017
			c0.329-2.477,1.533-4.683,2.351-6.982c0.777-2.177,1.803-4.295,2.6-6.503c0.217-0.595,0.426-1.119,0.425-1.788
			c0-1.077,1.021-1.709,1.388-2.683c0.888-2.375,2.448-4.362,3.965-6.36c0.469-0.624,0.787-1.326,0.954-2.089
			c0.083-0.37,0.059-0.798,0.356-1.074c1.503-1.383,1.662-3.417,2.433-5.138c0.541-1.213,1.285-2.278,2.224-2.982
			c1.192-0.905,1.708-2.181,2.439-3.308c0.762-1.163,1.342-2.31,2.697-2.993c0.729-0.364,1.505-0.938,1.977-1.762
			c0.621-1.09,1.875-1.513,2.71-2.42c1.156-1.256,2.595-2.211,3.666-3.621c0.629-0.827,1.929-1.184,2.984-1.626
			c1.667-0.701,3.15-1.694,4.499-2.846c0.675-0.576,1.508-0.84,2.205-1.046c1.333-0.384,2.57-1.146,3.999-1.191
			c1.212-0.037,2.11-0.858,3.181-1.263c1.94-0.729,3.895-1.099,5.947-0.813c2.207,0.306,4.463,0.146,6.648,0.695
			c0.115,0.027,0.261,0.07,0.372,0.038c2.523-0.645,4.729,0.552,6.626,1.723c3.401,2.103,6.38,4.696,8.337,8.461
			c1.422,2.721,2.381,5.612,3.727,8.344c1.179,2.39,2.255,4.783,3.903,6.894c0.524,0.669,1.067,1.471,0.94,2.463
			c-0.061,0.478,0.313,0.821,0.532,1.211c1.721,3.064,3.243,6.24,5.387,9.055c0.611,0.81,1.167,1.642,1.525,2.627
			c0.612,1.709,2.024,2.912,2.986,4.408c0.355,0.54,0.733,1.059,0.778,1.729c0.043,0.469,0.195,0.921,0.522,1.22
			c1.346,1.221,1.865,3.027,3.113,4.311c0.765,0.786,1.203,1.79,1.733,2.738c1.206,2.179,2.444,4.336,3.622,6.532
			c0.43,0.8,1.04,1.566,1.621,2.085c2.142,1.888,3.323,4.512,5.333,6.472c0.622,0.608,1.055,1.438,1.496,2.212
			c1.522,2.672,3.811,4.534,6.382,6.112c0.376,0.236,0.812,0.461,1.072,0.802c1.459,1.927,3.644,2.949,5.485,4.387
			c1.911,1.49,4.313,2.124,6.52,3.107c3.649,1.638,7.662,2.199,11.346,3.813c1.684,0.735,3.555,1.234,5.376,1.383
			c1.931,0.168,3.54,1.034,5.198,1.762c2.03,0.886,4.186,1.43,6.173,2.447c2.085,1.079,4.357,1.779,6.132,3.406
			c0.383,0.354,0.821,0.597,1.306,0.793c0.534,0.211,1.168,0.393,1.519,0.804c1.284,1.5,3.154,2.112,4.643,3.291
			c1.4,1.109,2.947,2.04,3.905,3.632c0.192,0.321,0.427,0.704,0.747,0.857c1.87,0.911,2.717,2.819,4.121,4.173
			c0.747,0.72,1.107,1.751,1.537,2.621c0.996,2.052,3.181,3.306,3.623,5.686c0.375,2.017,1.188,3.853,2.302,5.572
			c0.229,0.344,0.176,0.866,0.273,1.305c0.321,1.439,0.708,2.859,1.654,4.052c0.196,0.247,0.429,0.524,0.487,0.823
			c0.862,4.004,3.259,7.462,4.008,11.542c0.391,2.116,0.974,4.23,1.496,6.34c0.735,2.972,0.646,5.976,0.671,8.974
			c0.01,0.97-0.072,1.909,0.186,2.848c0.579,2.091,0.082,4.201,0.189,6.308c0.171,3.345-0.324,6.632-1.124,9.873
			c-0.113,0.434-0.257,0.886-0.226,1.318c0.247,3.156,0.331,5.479-0.714,8.366c-0.195,0.542-0.42,1.461-0.451,2.001
			c-0.025,0.556,0.27,1.385,0.09,1.792c-0.606,1.313,0.162,1.885,0.324,3.102c0.317,2.306-0.634,4.34-1.896,6.035
			c-1.152,1.551-1.572,3.312-2.313,4.974c-0.158,0.351-0.152,0.825-0.396,1.064c-1.703,1.693-2.247,4.093-3.632,5.977
			c-0.331,0.45-0.569,1.004-0.973,1.4c-1.382,1.383-2.045,3.183-2.965,4.841c-0.556,1.011-1.142,1.999-2.271,2.481
			c-0.823,0.356-1.178,1.164-1.682,1.806c-1.398,1.764-3.313,2.764-5.318,3.521c-0.894,0.338-1.619,1.003-2.606,1.14
			c-1.258,0.167-2.484,0.431-3.795,0.364c-1.391-0.07-2.759,0.139-4.13,0.673c-1.683,0.653-3.554,0.238-5.334,0.166
			c-2.489-0.102-4.897-0.905-7.42-0.933c-0.655-0.002-1.424-0.098-1.946-0.688c-0.227-0.267-0.546-0.296-0.876-0.298
			c-2.434-0.027-4.585-1.085-6.715-2.047c-3.232-1.468-6.366-3.14-9.614-4.62c-2.695-1.229-5.324-2.713-8.077-3.866
			c-2.457-1.027-4.72-2.543-7.421-3.046c-0.97-0.178-1.848-0.831-2.783-1.229c-3.821-1.634-7.923-2.375-11.902-3.47
			C282.971,447.735,279.783,447.004,276.362,447.506z M102.942,395.885c0.054,0.519-0.183,4.043-0.105,4.355
			c1.095,4.463,3.959,7.589,8.67,13.971c5.658,7.67,11.333,11.332,12.656,12.748c1.815,1.932,3.276,4.276,5,6.361
			c0.199,0.241,0.425,0.509,0.696,0.636c1.92,0.896,3.167,2.559,4.666,3.947c1.037,0.96,1.771,2.204,2.778,3.109
			c2.362,2.12,4.305,4.718,7.082,6.37c2.264,1.34,3.819,3.53,6.024,4.972c0.801,0.515,1.661,0.927,2.455,1.463
			c3.359,2.296,6.758,4.579,11.112,4.438c0.306-0.01,0.634,0.098,0.919,0.22c2.521,1.095,5.226,0.89,7.742,0.471
			c2.613-0.439,5.272-0.796,7.863-1.432c0.435-0.107,0.902-0.145,1.293-0.34c3.358-1.653,6.689-3.366,10.308-4.414
			c0.12-0.029,0.218-0.132,0.332-0.187c3.315-1.467,6.642-2.906,9.941-4.408c2.372-1.081,4.736-2.185,7.054-3.374
			c1.116-0.578,1.992-1.619,3.324-1.793c1.328-0.174,2.858-0.055,3.837-0.981c1.261-1.195,2.609,0.061,3.803-0.511
			c0.117-0.051,0.264-0.023,0.376-0.082c1.893-0.951,3.986-1.119,6.02-1.453c2.465-0.397,4.873-1.008,7.301-1.539
			c1.555-0.335,3.052-0.861,4.61-1.197c0.968-0.207,1.888,0.277,2.833-0.066c2.061-0.743,4.271-0.722,6.395-1.168
			c0.997-0.209,1.996-0.677,2.991-0.663c2.227,0.043,4.425,0.041,6.604-0.56c1.119-0.307,2.279-0.324,3.423-0.008
			c0.688,0.187,1.367,0.128,2.087-0.012c1.985-0.373,4.018-0.564,6.001-0.948c1.74-0.336,3.429,0.472,5.165,0.068
			c3.735-0.864,7.486-0.336,11.232,0.006c2.368,0.209,4.559,1.186,6.886,1.535c1.375,0.208,2.787,0.173,4.107,0.753
			c0.755,0.325,1.494,0.688,2.269,0.992c2.66,1.019,5.539,1.297,8.107,2.666c2.006,1.079,4.461,1.231,6.215,2.879
			c0.129,0.119,0.36,0.156,0.534,0.16c2.181,0.064,3.776,1.512,5.508,2.483c0.94,0.534,1.972,0.802,2.902,1.367
			c2.707,1.648,5.697,2.789,8.424,4.424c0.104,0.066,0.246,0.084,0.373,0.09c2.828,0.134,5.326,1.626,8.158,1.913
			c1.82,0.188,3.653,0.288,5.479,0.503c2.533,0.291,5.091-0.049,7.628-0.189c1.619-0.091,3.29-0.411,4.806-0.969
			c3.436-1.273,5.313-4.123,6.845-7.273c0.724-1.508,1.357-3.01,1.498-4.71c0.033-0.482,0.294-1.003,0.595-1.394
			c0.374-0.481,0.54-0.99,0.671-1.565c0.349-1.625,0.726-3.229,1.406-4.771c0.325-0.737,0.546-1.544,0.626-2.396
			c0.117-1.116,0.227-2.419,0.854-3.266c1.115-1.494,1.25-3.237,1.537-4.876c0.604-3.37,1.02-6.789,1.199-10.213
			c0.176-3.296,0.158-6.602-0.17-9.914c-0.224-2.237-0.499-4.462-0.904-6.66c-0.254-1.361-0.416-2.795-0.833-4.077
			c-0.545-1.632-0.974-3.298-1.449-4.942c-0.655-2.276-1.322-4.522-2.386-6.666c-0.673-1.366-1.408-2.696-2.038-4.073
			c-1.099-2.375-2.067-4.784-3.323-7.094c-1.288-2.395-1.895-5.194-4.432-6.756c-2.768-4.336-7.129-6.886-11.104-9.862
			c-2.33-1.743-4.95-3.042-7.538-4.382c-2.951-1.529-6.107-2.603-9.21-3.706c-2.787-0.997-5.787-1.467-8.611-2.452
			c-2.936-1.027-6.037-1.441-8.863-2.883c-3.049-1.568-6.343-2.594-9.333-4.354c-2.447-1.43-4.696-3.099-6.711-5.046
			c-2.608-2.518-5.122-5.145-7.545-7.835c-1.566-1.735-2.451-4.063-4.534-5.385c-2.035-3.868-5.075-7.053-7.252-10.845
			c-1.512-2.646-3.355-5.103-4.976-7.685c-1.586-2.534-2.881-5.247-4.868-7.523c-0.835-0.961-1.604-2.04-2.109-3.196
			c-0.824-1.877-1.925-3.565-2.989-5.298c-0.829-1.352-1.838-2.637-2.489-4.035c-0.767-1.678-1.818-3.23-2.347-5.015
			c-0.375-1.258-1.114-2.294-1.866-3.335c-0.817-1.149-1.495-2.39-1.896-3.753c-0.149-0.503-0.421-0.919-0.67-1.363
			c-1.256-2.216-2.585-4.391-3.643-6.704c-0.646-1.396-1.614-2.468-2.714-3.377c-1.754-1.458-3.884-1.918-6.179-1.862
			c-1.163,0.023-2.367,0.378-3.537-0.357c-0.623-0.396-1.536-0.269-2.267-0.04c-2.737,0.845-5.612,1.11-8.307,2.181
			c-1.516,0.598-2.7,1.652-4.084,2.406c-1.107,0.606-2.447,0.807-3.279,1.921c-0.603,0.81-1.251,1.527-2.286,1.944
			c-0.694,0.277-1.463,0.921-1.756,1.691c-0.543,1.473-1.761,2.304-2.806,3.3c-1.208,1.157-2.364,2.464-2.88,3.968
			c-0.697,2.058-2.078,3.691-2.926,5.658c-0.743,1.72-1.408,3.519-2.294,5.199c-0.728,1.391-0.904,3.051-2.229,4.161
			c-0.523,0.438-0.778,1.197-0.882,1.892c-0.145,0.938-0.607,1.652-1.252,2.302c-0.403,0.413-0.643,0.945-0.962,1.418
			c-0.799,1.164-0.69,2.609-1.284,3.793c-0.553,1.101-0.831,2.214-1.08,3.406c-0.432,2.081-0.555,4.248-1.542,6.192
			c-1.011,1.997-2.021,3.992-2.37,6.241c-0.026,0.174-0.172,0.336-0.272,0.492c-0.867,1.355-1.395,2.842-1.884,4.36
			c-0.639,1.992-1.236,4.058-2.275,5.842c-1.515,2.597-1.774,5.721-3.663,8.122c-0.146,0.186-0.111,0.497-0.207,0.737
			c-0.461,1.172-0.713,2.523-1.471,3.462c-0.893,1.099-1.574,2.31-2.372,3.452c-1.889,2.713-4.309,4.964-6.593,7.334
			c-0.666,0.688-1.419,1.299-1.928,2.132c-1.256,2.046-3.172,3.442-4.98,4.919c-0.744,0.61-1.545,1.144-2.095,1.933
			c-0.37,0.541-0.784,0.958-1.35,1.317c-3.468,2.215-6.897,4.483-10.354,6.721c-0.368,0.238-0.813,0.447-1.238,0.491
			c-0.75,0.074-1.288,0.533-1.908,0.853c-2.091,1.085-4.222,2.093-6.532,2.63c-1.688,0.386-3.398,0.538-5.123,0.704
			c-2.086,0.198-4.146,0.767-6.244,1.025c-1.119,0.135-2.31-0.027-3.278,0.837c-0.226,0.209-0.8,0.238-1.102,0.102
			c-0.934-0.43-1.756-0.008-2.611,0.188c-2.43,0.558-4.846,1.172-7.322,1.513c-1.851,0.266-3.533,1.075-5.225,1.809
			c-0.288,0.127-0.605,0.331-0.744,0.589c-1.07,1.964-2.785,3.524-3.588,5.645c-1.641,4.336-2.373,7.219-3.26,11.789
			C103.015,390.4,102.36,393.812,102.942,395.885z"/>
		<path fill="#FFFFFF" d="M109.503,164.539c-0.483-3.168-0.279-6.364-0.273-9.549c0.003-1.113,0.561-2.169,0.806-3.269
			c0.273-1.222,1.045-2.324,1.427-3.536c0.303-0.971,1.495-1.176,1.63-2.259c0.279-2.19,2.365-3.628,2.534-5.886
			c0.009-0.108,0.122-0.221,0.205-0.313c1.472-1.566,2.173-3.445,2.862-5.483c0.56-1.657,1.317-3.404,2.244-4.937
			c1.091-1.798,1.489-3.768,2.134-5.689c0.71-2.115,1.487-4.207,2.35-6.265c0.887-2.111,1.546-4.303,2.193-6.481
			c0.316-1.051,0.771-2.023,1.162-3.027c0.812-2.077,1.688-4.132,2.083-6.341c0.138-0.77,0.374-1.476,0.695-2.186
			c0.443-0.988,0.966-1.962,0.857-3.115c-0.021-0.243,0.027-0.536,0.154-0.743c1.276-2.08,1.074-4.615,1.937-6.744
			c1.369-3.366,0.899-7.281,3.254-10.3c0.045-1.799,1.48-3.063,1.798-4.785c0.261-1.417,1.393-2.423,2.248-3.513
			c0.714-0.904,1.429-1.777,2.067-2.747c0.856-1.305,1.586-2.793,3.222-3.435c0.378-0.146,0.788-0.556,0.919-0.938
			c0.516-1.476,1.688-2.551,2.296-3.945c0.319-0.729,0.798-1.312,1.337-1.851c2.026-2.035,4.331-3.752,6.694-5.341
			c1.449-0.976,3.167-1.625,5.068-1.56c1.937,0.067,3.765-0.643,5.599-1.164c1.068-0.307,2.109-0.373,3.201-0.423
			c2.103-0.102,4.13,0.807,6.241,0.333c0.472-0.106,0.856,0.205,1.265,0.371c2.051,0.846,4.106,1.667,6.151,2.511
			c0.35,0.144,0.769,0.272,0.99,0.546c1.268,1.521,3.007,2.315,4.702,3.184c0.164,0.085,0.359,0.172,0.465,0.32
			c1.324,1.792,3.339,2.754,4.967,4.168c2.066,1.806,3.745,4.002,5.384,6.19c1.364,1.831,2.412,3.891,4.238,5.355
			c0.137,0.112,0.246,0.323,0.263,0.503c0.16,1.787,1.415,2.96,2.422,4.246c1.505,1.925,2.369,4.229,3.827,6.197
			c1.966,2.65,3.783,5.408,5.293,8.387c0.662,1.312,0.909,2.713,1.559,4.003c0.446,0.892,0.606,1.883,1.372,2.672
			c0.676,0.697,0.501,1.818,0.833,2.721c0.458,1.263,0.982,2.461,1.58,3.67c0.891,1.798,1.579,3.759,1.981,5.724
			c0.588,2.866,1.318,5.712,1.816,8.587c0.484,2.831,1.37,5.6,1.478,8.495c0.059,1.497,0.474,2.953,1.014,4.282
			c0.647,1.603,0.656,3.184,0.759,4.83c0.226,3.547,0.269,7.088,1.04,10.613c0.799,3.671,0.917,7.472,0.905,11.244
			c-0.002,0.709,0.118,1.379,0.217,2.076c0.229,1.631,0.45,3.289-0.055,4.938c-0.184,0.604-0.216,1.257-0.089,1.905
			c0.196,1.019,0.046,2.033,0.005,3.057c-0.063,1.833-0.16,3.674,0.135,5.508c0.076,0.436,0.193,0.915,0.102,1.334
			c-0.647,2.902-0.17,5.856-0.396,8.78c-0.279,3.696-1.306,7.08-3.389,10.21c-1.233,1.852-1.988,4.01-2.411,6.229
			c-0.132,0.704-0.251,1.368-0.786,1.902c-0.315,0.318-0.519,0.703-0.613,1.171c-0.396,1.912-1.561,3.477-2.546,5.082
			c-1.273,2.065-2.632,4.043-3.007,6.514c-0.13,0.823-0.37,1.601-1.248,1.998c-0.211,0.094-0.383,0.354-0.504,0.572
			c-0.914,1.653-1.901,3.282-2.68,5.003c-0.29,0.642-0.615,1.184-1.185,1.4c-1.356,0.513-2.141,1.627-2.846,2.723
			c-0.984,1.536-2.488,2.026-4.057,2.554c-2.038,0.69-4.139,1.277-5.721,2.89c-0.266,0.263-0.619,0.575-0.95,0.607
			c-1.714,0.166-3.393,0.692-5.085,0.734c-3.124,0.083-6.251-0.136-9.379-0.224c-1.334-0.035-3.028-1.453-3.256-2.746
			c-0.267-1.499-0.153-1.397,1.228-2.333c2.148-1.457,4.502-2.521,6.698-3.867c1.275-0.784,2.589-1.018,4.006-1
			c0.934,0.008,1.673-0.233,2.438-0.862c0.917-0.75,1.869-1.654,3.041-1.89c2.482-0.488,3.82-2.281,4.985-4.19
			c1.03-1.677,2.266-3.219,3.114-5.042c0.558-1.199,0.617-2.729,1.909-3.551c-0.033-1.604,1.125-2.565,1.937-3.733
			c0.348-0.509,0.611-1.194,0.618-1.799c0.009-1.498,0.912-2.63,1.542-3.81c0.943-1.779,1.699-3.51,1.586-5.578
			c-0.045-0.875,0.225-1.698,0.807-2.476c1.58-2.128,2.903-4.378,2.054-7.226c-0.111-0.379-0.007-0.756,0.15-1.122
			c1.174-2.729,0.569-5.51,0.353-8.31c-0.221-2.851-0.642-5.695-0.252-8.59c0.295-2.207,0.478-4.429-0.067-6.68
			c-0.382-1.595-0.558-3.271-0.23-4.954c0.13-0.675,0.082-1.415-0.03-2.104c-0.818-4.922-0.765-9.976-1.998-14.82
			c-0.554-2.181-0.466-4.433-1.139-6.578c-0.171-0.534-0.106-1.136-0.119-1.712c-0.051-2.583-0.781-5.033-1.248-7.54
			c-0.366-1.958-1.257-3.744-1.558-5.641c-0.483-3.045-1.729-5.906-1.958-8.994c-0.067-0.951-0.989-1.396-1.342-2.247
			c-0.813-1.953-1.192-4.065-2.217-5.925c-1.227-2.229-2.275-4.589-3.757-6.635c-0.982-1.36-2-2.765-2.794-4.182
			c-1.045-1.871-2.57-3.375-3.519-5.301c-0.955-1.945-1.977-3.903-3.177-5.679c-2.02-2.995-4.148-5.941-6.803-8.475
			c-2.079-1.987-4.475-3.601-6.454-5.693c-0.376-0.398-0.82-0.54-1.314-0.708c-1.269-0.429-2.489-0.943-3.625-1.709
			c-1.389-0.934-3.049-0.94-4.6-0.546c-0.798,0.2-1.588,0.441-2.413,0.536c-3.071,0.34-5.581,1.642-7.386,4.22
			c-0.694,0.994-1.404,1.981-2.378,2.748c-0.293,0.23-0.631,0.555-0.709,0.891c-0.441,1.813-1.879,2.851-3.041,4.1
			c-1.575,1.692-2.883,3.573-4.115,5.514c-0.342,0.542-0.653,1.128-1.094,1.572c-1.375,1.4-1.919,3.19-2.276,4.999
			c-0.431,2.194-0.868,4.354-1.832,6.389c-0.322,0.688-0.58,1.461-0.51,2.238c0.197,2.057-0.669,3.836-1.364,5.676
			c-0.646,1.716-1.114,3.488-1.891,5.17c-1.864,4.049-2.994,8.372-4.511,12.544c-0.605,1.667-1.176,3.34-1.712,5.025
			c-0.216,0.682-0.526,1.293-0.921,1.887c-0.723,1.083-1.328,2.202-0.94,3.586c0.085,0.313,0.05,0.649-0.146,0.931
			c-1.099,1.576-1.779,3.32-2.12,5.202c-0.044,0.244-0.153,0.504-0.306,0.7c-2.149,2.681-2.634,6.2-4.506,9.023
			c-0.133,0.199-0.136,0.486-0.189,0.732c-0.479,2.37-1.754,4.367-2.787,6.507c-0.736,1.522-1.066,3.312-1.984,4.826
			c0.751,1.654,0.121,3.355,0.214,5.029c0.043,0.802,0.414,1.613,0.756,2.364c0.326,0.721,0.52,1.455,0.536,2.228
			c0.037,1.822,0.697,3.498,1.2,5.204c0.43,1.468,1.361,2.71,2.123,4.021c0.61,1.049,1.233,2.092,1.876,3.116
			c1.582,2.533,3.152,5.075,5.044,7.399c0.527,0.644,1.03,1.303,1.528,1.967c2.789,3.702,5.327,7.595,7.941,11.415
			c1.382,2.017,2.88,4.052,3.886,6.347c0.38,0.877,0.874,1.725,1.453,2.482c1.779,2.309,3.088,4.972,5.258,6.989
			c0.177,0.165,0.284,0.428,0.368,0.67c1.241,3.571,4.031,6.058,6.205,8.991c2.509,3.384,6.068,5.571,8.965,8.496
			c0.627,0.63,1.357,1.04,2.392,0.919c0.723-0.081,1.497,0.279,2.242,0.454c2.55,0.593,5.16,0.702,7.752,0.936
			c1.131,0.107,4.367,3.122,4.438,4.254c0.047,0.701,0.021,1.408,0.104,2.11c0.067,0.571-0.146,0.97-0.514,1.371
			c-1.572,1.71-3.815,2.447-5.59,3.867c-0.309,0.251-0.747,0.035-1.125,0.031c-1.14-0.014-2.299-0.208-3.383,0.377
			c-0.545,0.292-1.146,0.167-1.688-0.036c-1.386-0.507-2.83-0.474-4.254-0.652c-1.401-0.181-2.909-0.344-4.229-1.03
			c-1.927-0.995-3.931-1.929-5.692-3.12c-1.684-1.138-3.54-2.208-4.771-3.996c-0.789-1.146-2.036-1.88-3.093-2.78
			c-0.183-0.156-0.58-0.233-0.605-0.393c-0.362-2.237-2.704-3.127-3.442-4.996c-0.686-1.75-2.382-2.782-2.834-4.639
			c-0.168-0.667-0.865-1.068-1.283-1.637c-2.445-3.338-4.433-6.967-6.7-10.414c-1.166-1.763-2.626-3.354-3.49-5.282
			c-0.861-1.901-2.65-3.239-3.137-5.345c-0.051-0.237-0.233-0.473-0.423-0.634c-1.845-1.62-2.975-3.813-4.249-5.819
			c-0.794-1.245-1.707-2.453-2.484-3.725c-0.818-1.333-1.838-2.565-2.738-3.876c-1.295-1.89-2.753-3.667-4.079-5.533
			c-1.487-2.105-3.083-4.156-3.724-6.734c-0.09-0.366-0.251-0.749-0.483-1.041c-1.898-2.386-1.869-5.382-2.571-8.142
			C109.659,166.078,109.613,165.3,109.503,164.539z"/>
		<path fill="#FFFFFF" d="M264.995,202.625c-0.47-1.451,0.012-2.873-0.17-4.236c-0.528-4.175,0.146-8.3,0.396-12.441
			c0.083-1.434,0.61-2.814,0.226-4.312c-0.233-0.903,0.49-1.737,0.815-2.479c0.661-1.492,0.872-3.105,1.314-4.611
			c0.69-2.323,1.979-4.246,2.918-6.377c0.757-1.712,1.705-3.379,2.165-5.286c0.35-1.496,1.457-2.817,2.247-4.208
			c0.696-1.218,1.525-2.375,1.732-3.814c0.047-0.338,0.247-0.563,0.438-0.822c0.8-1.051,1.543-2.101,2.048-3.393
			c0.456-1.188,1.498-2.19,2.181-3.346c0.938-1.557,2.179-2.979,2.861-4.63c0.769-1.863,1.826-3.421,3.207-4.817
			c0.228-0.224,0.425-0.498,0.552-0.784c1.152-2.646,2.992-4.871,4.646-7.178c1.375-1.926,2.632-4.038,4.664-5.449
			c0.29-0.198,0.409-0.632,0.612-0.959c0.435-0.706,0.757-1.525,1.336-2.093c1.191-1.186,1.952-2.592,2.807-4.014
			c0.796-1.339,1.791-2.682,2.861-3.903c0.493-0.571,0.993-1.164,1.211-1.935c0.32-1.153,0.821-2.193,1.801-2.987
			c1.414-1.142,2.144-2.811,3.113-4.295c1.283-1.98,2.793-3.782,4.417-5.486c0.617-0.652,1.305-1.238,1.582-2.142
			c0.109-0.378,0.299-0.782,0.694-0.858c1.859-0.361,2.695-1.952,3.665-3.225c1.215-1.584,2.707-2.725,4.432-3.531
			c1.59-0.747,2.867-1.899,4.293-2.848c1.135-0.762,2.545-1.282,2.957-2.828c0.043-0.146,0.255-0.309,0.425-0.357
			c2.742-0.724,5.058-2.588,7.917-2.994c0.95-0.137,1.905-0.242,2.863-0.359c1.007-0.119,2.063,0.003,2.906-0.765
			c0.127-0.116,0.364-0.179,0.544-0.168c3.425,0.232,6.894-0.543,10.299,0.349c0.119,0.031,0.269,0.116,0.368,0.079
			c1.719-0.625,2.756,0.468,3.724,1.547c1.005,1.115,2.468,1.505,3.622,2.427c1.985,1.593,3.843,3.245,5.352,5.307
			c1.144,1.565,2.479,3.01,3.313,4.775c0.626,1.314,0.907,2.749,1.559,4.083c1.716,3.548,3.249,7.19,4.808,10.814
			c0.571,1.338,1.283,2.67,1.017,4.227c-0.045,0.258-0.018,0.547,0.222,0.692c1.915,1.181,1.432,3.308,1.885,5.019
			c0.44,1.699,0.476,3.504,1.164,5.171c0.166,0.389,0.096,0.885,0.121,1.331c0.029,0.447-0.135,1.029,0.092,1.317
			c1.677,2.174,0.47,4.649,0.769,6.962c0.401,3.066-0.49,6.176,0.233,9.282c0.246,1.083-0.057,2.292-0.09,3.446
			c-0.033,0.903-0.014,1.797,0.441,2.623c0.121,0.221,0.302,0.503,0.255,0.703c-0.634,2.563-0.214,5.223-0.729,7.782
			c-0.12,0.639-0.257,1.206-0.12,1.844c0.089,0.444,0.089,0.958-0.193,1.301c-0.837,1.011-0.634,2.25-0.519,3.305
			c0.173,1.762,0.091,3.399-0.588,5.021c-0.116,0.284-0.097,0.629-0.11,0.948c-0.127,2.578-0.262,5.118-1.048,7.654
			c-0.507,1.644-0.917,3.414-0.999,5.214c-0.07,1.455-0.64,2.844-1.229,4.177c-0.497,1.136-0.858,2.264-0.735,3.52
			c0.148,1.644-0.694,3.094-1.076,4.617c-0.808,3.208-1.6,6.406-2.22,9.657c-0.309,1.617-0.014,3.518-1.385,4.867
			c0.19,2.111-1.009,3.769-1.82,5.556c-0.076,0.17-0.158,0.363-0.152,0.545c0.037,2.175-1.184,3.961-1.79,5.941
			c-0.528,1.731-1.488,3.213-2.353,4.762c-0.446,0.788-0.969,1.506-1.687,2.058c-1.323,1.026-2.358,2.304-3.408,3.604
			c-1.608,1.972-3.29,3.924-5.141,5.666c-1.026,0.963-1.631,2.215-2.718,3.153c-0.994,0.871-1.933,1.841-3.026,2.612
			c-1.52,1.068-2.694,2.557-4.271,3.549c-3.772,2.38-7.527,4.782-12.104,5.423c-1.82,0.25-3.595,0.875-5.388,1.342
			c-0.244,0.063-0.526,0.099-0.712,0.245c-1.711,1.317-3.655,1.42-5.736,1.418c-3.456-0.004-6.891-0.563-10.347-0.341
			c-0.256,0.018-0.543,0.055-0.771-0.029c-2.243-0.788-4.602-1.008-6.927-1.407c-1.063-0.178-2.06-0.434-3.187-0.378
			c-1.136,0.059-2.21-0.723-3.374-1.011c-1.504-0.373-2.883-1.076-4.2-2.066c-1.782-1.337-3.74-2.496-5.703-3.624
			c-1.182-0.683-2.545-1.42-3.196-2.837c-0.102-0.216-0.299-0.482-0.509-0.546c-1.41-0.415-2.006-1.725-2.938-2.648
			c-0.504-0.494-0.849-1.134-1.611-1.309c-0.334-0.08-0.538-0.338-0.677-0.639c-0.997-2.276-2.45-4.32-3.3-6.699
			c-0.484-1.338-0.899-4.786-0.123-7.149c4.051-12.712-0.897-6.006-1.471-5.717c-0.735,0.752-2.099,2.184-3.448,1.931
			c-2.468-0.267-2.961-0.513-3.655-1.626c-0.897-1.436-0.104-0.933-0.884-2.415c-1.005-1.879-1.839-3.923-2.306-5.999
			C266.368,207.563,264.979,205.235,264.995,202.625z M326.099,242.859c1.814-0.445,3.833-0.635,5.809-1.181
			c1.942-0.542,3.96-0.869,5.836-1.626c2.59-1.059,4.979-2.504,7.287-4.092c1.289-0.889,2.146-2.166,3.271-3.171
			c2.046-1.837,3.876-3.873,5.895-5.721c1.034-0.946,1.354-2.339,2.216-3.31c1.776-1.996,3.008-4.261,3.912-6.718
			c0.361-0.979,0.782-1.878,1.425-2.69c1.127-1.44,1.737-3.102,2.081-4.896c0.517-2.625,1.115-5.234,1.71-7.846
			c0.616-2.708,1.92-5.251,1.883-8.151c-0.008-0.81,0.188-1.777,0.732-2.549c0.262-0.371,0.352-0.838,0.275-1.292
			c-0.15-0.933,0.135-1.788,0.487-2.609c0.379-0.9,0.545-1.834,0.566-2.803c0.018-0.906,0.13-1.804,0.466-2.638
			c0.599-1.487,0.925-2.958,0.991-4.614c0.128-3.395,0.953-6.738,1.521-10.095c0.504-2.939,0.868-5.998,0.594-8.944
			c-0.246-2.588,0.47-5.05,0.267-7.61c-0.269-3.366-0.039-6.769-0.288-10.135c-0.109-1.652-0.182-3.309-0.309-4.96
			c-0.238-3.04-0.46-6.096-1.154-9.085c-0.479-2.042-1.424-3.996-1.738-6.007c-0.464-2.967-2.017-5.475-2.803-8.295
			c-0.624-2.254-1.281-4.621-2.887-6.58c-0.933-1.131-1.379-2.715-2.177-3.952c-1.459-2.278-2.555-4.868-4.763-6.615
			c-0.422-1.467-1.748-1.759-2.922-2.219c-1.756-0.69-3.491-1.461-5.496-0.999c-0.584,0.131-1.257-0.16-1.895-0.215
			c-0.507-0.046-1.066-0.174-1.52-0.02c-2.35,0.813-4.741,1.601-6.754,3.09c-2.042,1.512-3.796,3.417-6.189,4.46
			c-0.579,0.255-0.908,0.88-1.344,1.343c-0.99,1.06-1.97,2.188-3.147,2.996c-0.784,0.535-1.301,1.095-1.77,1.892
			c-1.644,2.813-3.312,5.622-5.968,7.649c-0.475,0.368-0.847,0.851-0.962,1.403c-0.423,1.969-1.668,3.359-2.971,4.792
			c-1.068,1.169-2.549,2.114-3.02,3.662c-0.413,1.343-1.016,2.418-2.054,3.316c-0.288,0.25-0.536,0.573-0.704,0.911
			c-0.847,1.797-2.31,3.152-3.481,4.695c-0.46,0.621-0.823,1.392-1.488,1.914c-2.398,1.875-3.753,4.667-5.869,6.794
			c-0.122,0.133-0.271,0.327-0.278,0.495c-0.033,1.151-0.958,1.798-1.574,2.542c-0.526,0.639-0.954,1.318-1.438,1.971
			c-0.981,1.305-1.119,3.097-2.208,4.189c-1.266,1.276-1.878,2.837-2.76,4.288c-1.205,1.982-2.658,3.813-3.386,6.059
			c-0.078,0.231-0.211,0.503-0.406,0.628c-0.975,0.619-1.246,1.57-1.391,2.62c-0.045,0.3-0.146,0.641-0.339,0.876
			c-1.77,2.221-2.814,4.818-4.056,7.341c-1.211,2.479-1.794,5.146-2.584,7.723c-0.7,2.272-1.51,4.623-1.518,7.078
			c-0.008,1.398-0.56,2.739-0.509,4.087c0.088,2.924-0.074,5.851,0.086,8.759c0.133,2.331,1.043,4.602,1.642,6.867
			c0.266,0.976,0.79,1.942,0.948,3.021c1.334,2.843-0.958,5.79,0.831,6.841c1.678,0.533,4.966-0.627,6.308-0.17
			c1.252,0.429,2.202,2.331,2.474,3.682c0.345,1.686,0.214,1.293,0.729,2.953c0.397,1.279,1.148,2.34,1.606,3.542
			c0.728,1.909,1.375,3.799,3.105,5.103c0.491,0.374,0.739,1.042,1.195,1.488c1.324,1.292,2.612,2.647,4.075,3.771
			c1.289,0.996,2.697,1.874,4.092,2.752c1.878,1.183,3.821,2.175,5.951,2.444c2.262,0.297,4.346,1.06,6.449,1.785
			c1.144,0.397,2.265,0.523,3.395,0.266c1.563-0.356,3.083-0.836,4.7-0.194C325.112,243.07,325.551,242.904,326.099,242.859z"/>
		<path fill="#FFFFFF" d="M429.756,343.712c-0.969,0.318-2.056,0.258-3.124,0.336c-1.428,0.103-2.932,0.06-4.213,1.068
			c-0.572,0.452-1.531,0.644-2.212,0.361c-1.017-0.426-1.908-0.113-2.799,0.146c-1.263,0.365-2.495,0.482-3.776,0.197
			c-0.497-0.111-1.005-0.094-1.523,0.01c-1.742,0.322-3.444,0.008-5.108-0.485c-0.747-0.221-1.486-0.4-2.267-0.309
			c-1.354,0.156-2.662-0.191-3.986-0.312c-1.966-0.184-3.86-0.716-5.762-1.091c-1.736-0.347-3.62-0.731-5.147-1.849
			c-0.262-0.189-0.472-0.527-0.753-0.583c-1.289-0.26-2.372-0.68-3.415-1.666c-0.917-0.86-2.399-1.144-3.661-1.605
			c-0.62-0.229-1.215-0.407-1.418-1.125c-0.039-0.117-0.123-0.258-0.221-0.314c-2.964-1.699-3.945-3.971-6.535-6.042
			c-0.297-0.242-2.204-2.095-2.536-2.204c-3.105-0.96-3.583-3.422-6.366-4.832c-0.25-0.126-0.501-0.462-0.56-0.739
			c-0.438-2.022-1.861-3.499-2.879-5.17c-1.342-2.2-2.399-4.441-3.105-6.952c-0.493-1.755-1.285-3.437-1.646-5.266
			c-0.875-4.559-2.095-9.02-2.013-13.761c0.045-2.588,0.882-4.956,1.103-7.464c0.098-1.095,0.98-2.027,1.447-3.064
			c0.741-1.648,1.396-3.438,2.684-4.808c0.673-0.712,1.195-1.545,1.527-2.419c0.772-2.021,2.371-3.634,2.869-5.811
			c0.096-0.409,0.696-0.694,1.037-1.064c1.596-1.682,3.154-3.402,4.781-5.044c0.64-0.655,1.119-1.363,1.583-2.136
			c0.443-0.726,0.958-1.406,1.719-1.975c0.864-0.632,1.309-1.829,1.931-2.779c0.242-0.372,0.432-0.96,0.767-1.071
			c1.771-0.57,2.793-2.083,4.186-3.125c0.903-0.669,1.563-1.532,2.085-2.467c1.629-2.879,4.001-5.067,6.432-7.212
			c0.634-0.558,1.145-1.19,1.69-1.818c1.631-1.867,3.548-3.457,5.274-5.227c1.414-1.465,2.84-2.914,4.287-4.344
			c1.938-1.911,3.736-3.966,6.198-5.247c0.17-0.088,0.359-0.176,0.478-0.322c1.875-2.219,4.5-3.514,6.712-5.312
			c1.512-1.228,3.074-2.488,4.89-3.326c0.632-0.295,1.24-0.634,1.672-1.251c0.25-0.352,0.61-0.729,0.996-0.87
			c1.727-0.625,2.926-1.964,4.313-3.038c0.385-0.295,0.749-0.455,1.22-0.436c0.462,0.021,0.885-0.118,1.289-0.336
			c3.396-1.837,7.115-2.794,10.747-4.004c1.336-0.444,2.646-0.961,3.973-1.416c2.345-0.801,4.688-1.573,7.033-2.359
			c0.305-0.101,0.654-0.148,0.894-0.333c2.056-1.52,4.248-0.856,6.452-0.523c1.633,0.243,3.289,0.363,4.942,0.171
			c0.856-0.098,1.555,0.069,2.356,0.496c1.605,0.86,3.468,0.816,5.235,0.898c1.264,0.06,2.4,0.256,3.446,0.964
			c0.472,0.328,0.957,0.627,1.541,0.75c2.234,0.469,3.662,1.954,4.737,3.845c0.442,0.78,0.876,1.556,1.572,2.146
			c0.194,0.16,0.405,0.373,0.476,0.595c0.704,2.299,2.239,4.157,3.238,6.302c0.276,0.594,0.415,1.207,0.54,1.834
			c0.072,0.374,0.053,0.812,0.253,1.118c1.695,2.665,2.01,5.893,3.555,8.625c0.483,0.848,0.245,1.892,0.366,2.841
			c0.341,2.537,0.567,5.079,0.047,7.638c-0.166,0.79-0.311,1.633,0.145,2.428c0.115,0.214,0.165,0.511,0.129,0.751
			c-0.482,2.663-0.061,5.375-0.41,8.042c-0.096,0.702-0.166,1.384-0.145,2.1c0.029,1.387,0.283,2.783-0.247,4.169
			c-0.164,0.429,0.035,1.006,0.082,1.516c0.047,0.446,0.284,0.967,0.13,1.32c-1.014,2.237-0.13,4.665-0.755,6.939
			c-0.304,1.106-0.313,2.274-0.173,3.433c0.088,0.761,0.126,1.525-0.346,2.235c-0.207,0.299-0.335,0.71-0.345,1.077
			c-0.061,3.967-1.424,7.558-2.982,11.143c-0.708,1.627-1.32,3.32-1.924,5.015c-0.173,0.481-0.411,0.935-0.233,1.479
			c0.133,0.389,0.021,0.786-0.164,1.112c-1.59,2.744-2.566,5.825-4.628,8.301c-0.123,0.154-0.35,0.264-0.391,0.421
			c-0.911,3.798-3.955,6.283-5.764,9.503c-1.508,2.705-3.31,5.229-4.71,8.015c-1.161,2.306-2.669,4.667-4.621,6.272
			c-2.629,2.165-4.968,4.729-7.991,6.394c-1.148,1.816-3.339,2.241-4.817,3.647c-0.735,0.694-1.905,0.978-2.93,1.307
			c-0.573,0.18-1.031,0.464-1.469,0.831c-1.966,1.623-4.209,2.797-6.554,3.696c-1.552,0.599-2.907,1.531-4.376,2.263
			C432.518,343.205,431.295,343.763,429.756,343.712z M427.227,332.282c1.432-0.454,3.012-0.581,4.546-1.148
			c1.514-0.57,2.845-1.461,4.33-2.012c1.822-0.665,3.273-1.925,4.775-3.015c1.033-0.745,2.009-1.57,3.198-1.996
			c0.845-0.298,1.439-0.883,1.991-1.455c1.514-1.575,3.406-2.619,5.101-3.938c1.92-1.484,3.62-3.176,5.169-5.04
			c0.946-1.143,1.398-2.686,2.386-3.61c2.674-2.535,3.916-5.92,5.834-8.886c1.201-1.844,2.727-3.479,3.633-5.53
			c0.678-1.514,0.927-3.269,2.319-4.422c0.107-0.091,0.008-0.39,0.09-0.554c0.792-1.737,1.026-3.649,1.813-5.406
			c0.55-1.238,1.338-2.374,1.532-3.841c0.246-1.876-0.327-3.805,0.588-5.639c0.536-1.07,0.257-2.427,0.546-3.55
			c0.337-1.27,0.448-2.456,0.329-3.724c-0.031-0.308,0.1-0.624,0.146-0.936c0.236-1.572,0.504-3.113,0.32-4.738
			c-0.135-1.166,0.129-2.385,0.282-3.567c0.219-1.733,0.463-3.474,0.792-5.188c0.299-1.53,0.088-3.06,0.1-4.584
			c0.014-2.409,0.389-4.808-0.031-7.25c-0.242-1.417-0.36-2.909-0.464-4.377c-0.273-3.987-0.976-7.859-3.474-11.16
			c-0.248-0.329-0.342-0.672-0.438-1.047c-1.373-5.362-5.287-8.581-9.67-11.381c-0.494-0.311-1.181-0.531-1.83-0.372
			c-0.526,0.124-1.023-0.105-1.512-0.083c-2.042,0.089-4.039-0.709-6.079-0.374c-1.705,0.281-3.376,0.763-5.083,0.972
			c-1.621,0.197-2.979,1.179-4.574,1.354c-1.24,0.127-2.471,0.44-3.466,1.061c-1.651,1.02-3.694,0.995-5.238,2.222
			c-0.357,0.279-0.972,0.27-1.475,0.333c-0.381,0.043-0.759-0.017-1.128,0.178c-2.5,1.347-4.823,2.977-7.182,4.553
			c-2.067,1.383-3.863,3.115-5.828,4.635c-1.211,0.934-2.592,1.542-3.809,2.44c-0.989,0.728-1.547,1.875-2.641,2.399
			c-2.401,1.149-4.097,3.193-6.125,4.806c-1.843,1.474-3.72,2.93-4.829,5.116c-0.139,0.271-0.452,0.445-0.673,0.672
			c-1.873,1.954-4.617,3.068-5.586,5.872c-0.021,0.063-0.076,0.104-0.123,0.151c-1.281,1.331-2.591,2.631-3.833,3.994
			c-1.796,1.965-3.726,3.792-5.469,5.816c-1.118,1.303-2.058,2.717-3.135,4.026c-0.967,1.176-1.862,2.385-2.811,3.567
			c-0.979,1.223-2.386,2.24-2.932,3.619c-0.735,1.855-2.365,2.963-3.118,4.689c-0.598,1.373-2.045,2.188-2.452,3.55
			c-0.413,1.412-1.295,2.49-2.05,3.63c-0.704,1.051-1.131,2.177-1.414,3.327c-0.346,1.418-0.34,2.908-0.995,4.268
			c-0.19,0.408-0.068,0.915,0.119,1.314c0.273,0.553,0.252,1.112,0.213,1.688c-0.098,1.342,0.119,2.637,0.548,3.911
			c0.205,0.601,0.23,1.26,0.387,1.872c0.396,1.551,0.452,3.335,1.301,4.575c1.7,2.456,2.412,5.343,3.863,7.905
			c1.19,2.106,1.963,3.129,4.285,4.531c0.839,1.168,2.394,2.042,2.926,2.678c1.23,1.469,3.499,3.503,4.623,5.075
			c1.566,2.179,2.142,1.398,4.505,2.787c1.48,0.874,3.012,1.678,4.463,2.593c3.411,2.149,7.064,3.503,11.146,3.522
			c0.317,0.01,0.646,0.057,0.945,0.143c1.768,0.522,3.573,0.54,5.394,0.69c1.348,0.11,2.688-0.154,3.973-0.049
			c2.075,0.169,4.082,0.031,6.004-0.603C423.877,332.814,425.469,332.419,427.227,332.282z"/>
		<path fill="#FFFFFF" d="M55.497,200.037c1.419-0.496,2.748-0.671,4.099-0.734c1.688-0.075,3.198,0.831,4.863,0.847
			c1.001,1.47,2.723,1.249,4.102,1.839c2.981,1.272,5.801,2.918,8.637,4.516c1.852,1.045,3.625,2.228,5.163,3.568
			c2.002,1.741,4.312,2.962,6.373,4.561c0.677,0.526,1.17,1.182,1.698,1.817c1.312,1.597,3.278,2.42,4.594,4.021
			c0.358,0.433,0.808,0.788,1.11,1.296c0.494,0.822,1.089,1.556,1.998,2.001c0.512,0.249,0.986,0.614,1.274,1.14
			c0.415,0.754,0.946,1.35,1.822,1.583c0.393,0.106,0.585,0.44,0.813,0.763c0.545,0.776,1.11,1.552,2.075,1.9
			c0.277,0.101,0.556,0.347,0.721,0.604c1.429,2.207,3.489,3.799,5.299,5.647c1.507,1.542,3.052,3.042,4.576,4.566
			c0.79,0.788,1.865,1.151,2.606,1.92c2.22,2.296,4.661,4.32,7.084,6.382c1.641,1.391,3.348,2.841,4.33,4.872
			c0.332,0.687,1.213,0.686,1.66,1.255c1.276,1.612,2.867,2.949,3.991,4.706c0.505,0.792,1.339,1.372,1.788,2.237
			c0.997,1.926,3.151,3.113,3.487,5.464c1.145,1.078,1.66,2.535,2.367,3.875c0.506,0.966,0.741,1.97,0.917,3.072
			c0.218,1.381,0.969,2.693,1.563,4.004c0.492,1.073,1.215,2.075,1.283,3.295c0.127,2.271,0.286,4.544,0.245,6.822
			c-0.031,1.775-0.113,3.552,0,5.327c0.056,0.871-0.223,1.636-0.4,2.447c-0.759,3.478-2.547,6.454-4.49,9.362
			c-0.248,0.371-0.596,0.726-0.708,1.142c-0.472,1.739-1.974,2.609-3.185,3.662c-0.586,0.516-1.051,0.952-0.992,1.705
			c0.055,0.747-0.258,1.197-0.838,1.582c-0.551,0.366-1.031,0.899-1.158,1.496c-0.482,2.327-2.49,3.846-3.132,6.087
			c-0.167,0.587-0.797,0.974-1.195,1.471c-2.57,3.225-4.543,6.856-6.979,10.168c-0.869,1.188-1.799,2.331-2.717,3.47
			c-0.73,0.907-1.47,1.828-2.169,2.744c-2.073,2.711-4.792,4.41-7.749,5.982c-2.96,1.568-6.149,2.245-9.323,2.754
			c-2.847,0.454-5.853,0.497-8.66-0.702c-0.343-0.152-0.754-0.211-1.122-0.191c-2.217,0.148-4.049-0.763-5.821-1.952
			c-0.845-0.558-1.84-0.892-2.714-1.4c-2.396-1.355-4.809-2.699-5.929-5.539c-0.535-1.365-1.022-2.583-0.529-4.034
			c0.502-1.48,2.335-2.584,3.868-2.352c2.59,0.382,5.073,1.121,7.576,1.894c1.832,0.563,3.587,1.309,5.409,1.882
			c4.105,1.302,8.192,1.136,12.293,0.055c0.706-0.179,1.382-0.556,1.815-1.031c1.321-1.453,2.921-2.634,4.066-4.248
			c1.48-2.085,2.978-4.156,4.399-6.275c0.54-0.818,1.204-1.497,1.869-2.178c2.163-2.233,3.479-5.052,5.237-7.563
			c1.613-2.302,3.027-4.731,3.98-7.396c0.331-0.936,1.127-1.536,1.673-2.311c1.212-1.729,2.39-3.485,3.521-5.271
			c0.646-1.021,0.872-2.302,1.417-3.296c1.21-2.198,0.297-4.387,0.515-6.552c0.118-1.161-0.849-2.14-0.83-3.329
			c0.032-1.885-0.664-3.581-1.351-5.29c-0.526-1.307-1.352-2.448-2.026-3.655c-0.743-1.32-1.141-2.816-2.129-4.041
			c-0.473-0.579-0.904-1.216-1.435-1.762c-0.223-0.229-0.554-0.407-0.672-0.675c-1.181-2.768-3.841-4.182-5.685-6.31
			c-2.71-3.141-6.356-5.327-8.71-8.797c-0.338-0.499-0.897-0.713-1.36-1.047c-0.464-0.338-1.107-0.555-1.271-1.127
			c-0.271-0.949-0.971-1.358-1.781-1.572c-0.787-0.208-1.123-0.854-1.521-1.382c-1.119-1.487-2.259-2.923-3.973-3.774
			c-0.57-0.286-0.633-0.931-1.008-1.368c-1.031-1.203-2.418-1.833-3.739-2.577c-0.479-0.262-0.904-0.456-0.807-1.116
			c0.054-0.349-0.186-0.667-0.438-0.809c-1.384-0.794-2.021-2.382-3.225-3.216c-1.484-1.042-2.291-2.763-3.953-3.543
			c-0.222-0.108-0.438-0.288-0.588-0.485c-2.767-3.648-6.247-6.474-9.979-9.095c-2.127-1.49-4.17-3.116-6.307-4.614
			c-0.486-0.341-0.955-0.632-1.547-0.702c-0.465-0.05-0.814-0.283-1.177-0.587c-1.518-1.274-3.182-2.262-5.214-2.528
			c-0.478-0.063-0.917-0.429-1.369-0.668c-0.277-0.151-0.656-0.533-0.8-0.454c-1.32,0.71-2.411-0.374-3.603-0.374
			c-1.033-0.003-2.047-0.038-3.139,0.5c-3.596,1.761-6.465,4.396-9.304,7.107c-2.909,2.777-4.696,6.313-6.504,9.819
			c-0.314,0.614-0.439,1.333-0.579,2.021c-0.08,0.386-0.074,0.825-0.467,0.989c-1.082,0.444-1.359,1.377-1.717,2.372
			c-0.508,1.411-1.445,2.687-1.1,4.309c0.023,0.12-0.005,0.266-0.06,0.374c-1.569,3.303-0.853,6.858-1.197,10.296
			c-0.162,1.583-0.026,2.999,0.619,4.431c0.205,0.449,0.286,1,0.272,1.502c-0.072,2.957,1,5.742,1.248,8.676
			c0.198,2.384,1.147,4.75,2.333,6.874c1.235,2.208,1.93,4.585,2.622,6.963c0.51,1.736,1.165,3.366,2.229,4.81
			c0.465,0.642,0.796,1.293,0.943,2.073c0.387,2.101,1.253,4.019,2.428,5.791c0.68,1.032,1.099,2.267,1.311,3.344
			c0.463,2.373,1.716,4.396,2.502,6.607c1.397,3.931,3.04,7.78,5.203,11.406c1.14,1.912,2.583,3.591,3.693,5.509
			c0.989,1.708,1.958,3.433,3.061,5.071c1.28,1.915,2.312,4.002,3.65,5.829c0.987,1.348,1.751,2.947,3.135,4.026
			c0.394,0.306,0.707,0.745,0.973,1.18c0.948,1.541,1.93,3.029,3.81,3.587c0.619,0.189,0.819,0.792,1.087,1.293
			c0.54,1.024,0.612,2.2,0.992,3.287c0.354,1.02-0.67,2.295-1.928,2.414c-3.197,0.303-6.421,0.533-9.021-1.972
			c-0.282-0.27-0.577-0.487-0.996-0.505c-0.401-0.018-0.852-0.145-0.957-0.527c-0.314-1.191-1.396-1.653-2.196-2.33
			c-2.131-1.803-4.117-3.704-5.319-6.274c-0.027-0.063-0.06-0.123-0.104-0.162c-2.759-2.612-3.804-6.312-5.938-9.306
			c-1.401-1.968-2.578-4.069-3.827-6.123c-1.137-1.87-2.005-3.932-2.863-5.962c-2.127-5.052-4.104-10.174-6.3-15.202
			c-1.346-3.088-2.988-6.051-4.048-9.272c-1.758-1.775-1.512-4.559-3.203-6.374c-0.083-0.09-0.127-0.227-0.156-0.354
			c-1.292-5.207-3.635-10.086-4.847-15.307c-0.731-3.16-1.397-6.376-1.066-9.681c0.098-0.965-0.135-1.918-0.322-2.858
			c-0.317-1.588-0.306-3.165-0.182-4.773c0.162-2.199,0.171-4.41,0.272-6.617c0.052-1.088,0.178-2.188,0.568-3.201
			c1.046-2.692,1.853-5.452,3.197-8.058c1.424-2.765,2.682-5.62,4.383-8.238c0.718-1.103,1.372-2.259,2.331-3.208
			c0.488-0.487,0.843-1.134,1.166-1.752c0.421-0.797,0.799-1.597,1.513-2.188c0.139-0.118,0.253-0.301,0.317-0.476
			c0.675-1.911,1.883-3.397,3.545-4.536c0.05-0.038,0.104-0.089,0.124-0.144c0.87-2.406,3.203-3.261,4.969-4.717
			c0.145-0.115,0.409-0.158,0.479-0.302c1.108-2.251,3.531-2.714,5.37-3.968c0.052-0.036,0.114-0.062,0.162-0.102
			C52.004,200.643,53.682,199.958,55.497,200.037z"/>
	</g>
</g>
</svg>
