<?xml version="1.0" encoding="utf-8"?>
<!-- Generator: Adobe Illustrator 16.0.0, SVG Export Plug-In . SVG Version: 6.00 Build 0)  -->
<!DOCTYPE svg PUBLIC "-//W3C//DTD SVG 1.1//EN" "http://www.w3.org/Graphics/SVG/1.1/DTD/svg11.dtd">
<svg version="1.1" id="Layer_1" xmlns="http://www.w3.org/2000/svg" xmlns:xlink="http://www.w3.org/1999/xlink" x="0px" y="0px"
	 width="72px" height="72px" viewBox="0 0 72 72" enable-background="new 0 0 72 72" xml:space="preserve">
<g>
	<path fill="#7D581E" d="M71.875,35.407c-0.01-0.103-0.05-0.221-0.019-0.308c0.104-0.282,0.051-0.566,0.045-0.85
		c-0.005-0.145,0.008-0.285,0.024-0.428c0.066-0.543-0.02-1.094,0.071-1.637c0.009-0.048-0.002-0.11-0.025-0.153
		c-0.09-0.163-0.062-0.335-0.031-0.496c0.1-0.52,0.052-1.039-0.019-1.556c-0.025-0.194,0.021-0.406-0.075-0.58
		c-0.307-0.558-0.372-1.216-0.709-1.761c-0.038-0.062-0.036-0.151-0.052-0.228c-0.024-0.128-0.053-0.253-0.107-0.375
		c-0.199-0.438-0.505-0.819-0.645-1.287c-0.014-0.046-0.057-0.089-0.094-0.122c-0.139-0.121-0.224-0.279-0.313-0.438
		c-0.214-0.387-0.496-0.692-0.937-0.79c-0.115-0.024-0.212-0.087-0.305-0.153c-0.206-0.146-0.431-0.187-0.679-0.201
		c-0.349-0.019-0.714-0.012-1.03-0.189c-0.157-0.088-0.296-0.123-0.465-0.104c-0.324,0.037-0.651,0.011-0.971-0.041
		c-0.436-0.07-0.867-0.208-1.269,0.1c-0.048,0.037-0.117,0.047-0.177,0.067c-0.46,0.157-0.921,0.313-1.38,0.472
		c-0.263,0.091-0.52,0.196-0.781,0.284c-0.713,0.242-1.442,0.433-2.109,0.804c-0.079,0.043-0.163,0.071-0.253,0.066
		c-0.093-0.005-0.165,0.029-0.239,0.088c-0.271,0.217-0.506,0.488-0.843,0.613c-0.077,0.029-0.147,0.104-0.197,0.177
		c-0.084,0.125-0.203,0.193-0.327,0.252c-0.001,0.001-0.003,0.001-0.004,0.002c0.011-0.028,0.035-0.056,0.047-0.084
		c0.261-0.64,0.263-1.332,0.407-1.995c0.018-0.079,0.015-0.167-0.037-0.238c-0.072-0.099-0.053-0.207-0.049-0.317
		c0.013-0.383,0.029-0.77,0.068-1.148c0.085-0.833,0.132-1.654-0.112-2.468c-0.022-0.075-0.022-0.168,0-0.243
		c0.052-0.175-0.007-0.329-0.074-0.478c-0.103-0.228-0.177-0.466-0.186-0.713c-0.021-0.504-0.357-0.942-0.296-1.465
		c0.01-0.082-0.074-0.173-0.111-0.262c-0.043-0.1-0.122-0.205-0.116-0.304c0.02-0.317-0.123-0.585-0.22-0.867
		c-0.049-0.144-0.08-0.289-0.106-0.438c-0.101-0.567-0.361-1.093-0.437-1.668c-0.007-0.051-0.036-0.11-0.074-0.145
		c-0.144-0.133-0.168-0.315-0.187-0.487c-0.06-0.555-0.27-1.06-0.504-1.556c-0.087-0.186-0.106-0.414-0.259-0.556
		c-0.491-0.458-0.764-1.097-1.284-1.531c-0.059-0.049-0.084-0.14-0.124-0.211c-0.065-0.121-0.134-0.237-0.229-0.34
		c-0.343-0.373-0.777-0.653-1.069-1.077c-0.028-0.042-0.085-0.071-0.135-0.09c-0.182-0.075-0.319-0.206-0.461-0.336
		c-0.341-0.317-0.729-0.528-1.215-0.479c-0.128,0.013-0.247-0.017-0.365-0.052c-0.259-0.078-0.504-0.044-0.765,0.025
		c-0.367,0.098-0.743,0.227-1.126,0.155C48.754,7.233,48.6,7.244,48.432,7.32c-0.325,0.146-0.672,0.229-1.02,0.284
		c-0.473,0.075-0.962,0.082-1.283,0.525c-0.038,0.054-0.105,0.086-0.161,0.126c-0.428,0.312-0.857,0.622-1.283,0.936
		c-0.242,0.179-0.476,0.37-0.721,0.547c-0.662,0.481-1.359,0.918-1.935,1.513c-0.068,0.071-0.146,0.126-0.241,0.152
		c-0.098,0.026-0.161,0.083-0.221,0.169c-0.213,0.309-0.371,0.66-0.682,0.898c-0.071,0.055-0.12,0.154-0.148,0.243
		c-0.048,0.153-0.15,0.261-0.261,0.362c-0.317,0.289-0.554,0.646-0.783,0.995c-0.336,0.511-0.786,0.945-1.026,1.52
		c-0.015,0.037-0.047,0.067-0.076,0.097c-0.42,0.42-0.653,0.957-0.926,1.472c-0.204,0.387-0.4,0.775-0.596,1.165
		c-0.237,0.473-0.524,0.923-0.736,1.409c-0.071,0.163-0.135,0.326-0.228,0.48c-0.1,0.166-0.197,0.332-0.291,0.5
		c0.022-0.591-0.109-1.193-0.135-1.789c-0.002-0.081-0.027-0.169-0.094-0.233c-0.094-0.09-0.102-0.201-0.125-0.312
		c-0.084-0.386-0.165-0.775-0.222-1.16c-0.128-0.846-0.289-1.675-0.724-2.46c-0.04-0.072-0.063-0.166-0.062-0.243
		c0.006-0.182-0.088-0.329-0.188-0.469c-0.155-0.216-0.284-0.445-0.355-0.69c-0.146-0.503-0.573-0.898-0.646-1.43
		c-0.012-0.083-0.112-0.164-0.17-0.248c-0.066-0.095-0.167-0.19-0.187-0.29c-0.06-0.32-0.263-0.57-0.425-0.841
		c-0.082-0.138-0.147-0.279-0.21-0.425c-0.237-0.556-0.615-1.048-0.83-1.615c-0.019-0.05-0.063-0.105-0.106-0.135
		c-0.17-0.115-0.239-0.295-0.299-0.464c-0.194-0.549-0.521-1.027-0.866-1.494c-0.129-0.174-0.203-0.402-0.384-0.523
		c-0.58-0.394-0.998-0.999-1.598-1.366c-0.068-0.042-0.115-0.128-0.171-0.196c-0.093-0.112-0.186-0.219-0.302-0.311
		c-0.418-0.328-0.899-0.552-1.281-0.938c-0.037-0.038-0.099-0.06-0.15-0.074c-0.19-0.051-0.354-0.164-0.521-0.276
		c-0.402-0.272-0.822-0.433-1.271-0.319c-0.117,0.03-0.237,0.016-0.358-0.004c-0.265-0.043-0.488,0.022-0.718,0.127
		c-0.323,0.146-0.647,0.325-1.029,0.304c-0.188-0.011-0.332,0.021-0.473,0.119c-0.271,0.189-0.579,0.318-0.895,0.419
		c-0.429,0.137-0.891,0.209-1.084,0.695c-0.023,0.059-0.079,0.1-0.121,0.148c-0.327,0.369-0.657,0.736-0.981,1.108
		c-0.186,0.212-0.358,0.434-0.546,0.644c-0.507,0.57-1.06,1.1-1.454,1.772c-0.047,0.08-0.107,0.146-0.19,0.184
		c-0.087,0.04-0.133,0.105-0.168,0.198c-0.124,0.338-0.187,0.71-0.421,0.991c-0.054,0.063-0.075,0.169-0.079,0.263
		c-0.008,0.16-0.078,0.282-0.157,0.398c-0.228,0.331-0.362,0.721-0.493,1.101c-0.19,0.557-0.509,1.052-0.592,1.66
		c-0.006,0.039-0.028,0.073-0.049,0.106c-0.293,0.477-0.381,1.046-0.51,1.598c-0.096,0.414-0.186,0.829-0.272,1.246
		c-0.106,0.506-0.267,0.994-0.347,1.51c-0.026,0.172-0.046,0.345-0.095,0.512c-0.19,0.644-0.366,1.292-0.33,2.005
		c0.012,0.231-0.008,0.461-0.092,0.675c-0.13,0.332-0.143,0.723-0.392,0.998c-0.048,0.052-0.014,0.185-0.016,0.28
		c-0.005,0.243,0.052,0.518-0.029,0.722c-0.071,0.182-0.087,0.362-0.084,0.545c0.004,0.194-0.001,0.378-0.042,0.563
		c-0.103,0.473-0.186,0.952-0.278,1.429c-0.02,0.104-0.094,0.216-0.065,0.306c0.156,0.472,0.054,0.934,0.145,1.402
		c0.006,0.029,0.009,0.058,0.013,0.087c-0.213-0.144-0.424-0.288-0.61-0.465c-0.032-0.031-0.086-0.057-0.131-0.062
		c-0.174-0.019-0.292-0.13-0.401-0.239c-0.352-0.348-0.778-0.587-1.216-0.808c-0.164-0.083-0.305-0.23-0.488-0.251
		c-0.592-0.067-1.137-0.366-1.734-0.403c-0.067-0.004-0.136-0.053-0.203-0.083c-0.112-0.049-0.224-0.094-0.347-0.117
		C6.72,24.014,6.267,24.04,5.83,23.896c-0.043-0.014-0.099-0.005-0.144,0.005c-0.166,0.039-0.333,0.019-0.503,0
		c-0.41-0.046-0.793,0.003-1.097,0.278c-0.08,0.071-0.177,0.11-0.278,0.145c-0.22,0.076-0.368,0.221-0.507,0.398
		c-0.195,0.248-0.38,0.523-0.682,0.665c-0.149,0.07-0.249,0.155-0.321,0.29c-0.14,0.261-0.329,0.49-0.536,0.7
		c-0.279,0.286-0.609,0.534-0.58,0.995c0.004,0.055-0.024,0.11-0.039,0.166c-0.116,0.424-0.236,0.848-0.35,1.274
		c-0.065,0.243-0.118,0.488-0.185,0.73c-0.183,0.657-0.413,1.3-0.472,1.99c-0.007,0.082-0.028,0.158-0.079,0.223
		c-0.053,0.066-0.064,0.137-0.057,0.225c0.028,0.316,0.117,0.633,0.04,0.95c-0.019,0.072,0.004,0.165,0.034,0.238
		c0.054,0.129,0.044,0.253,0.025,0.377c-0.054,0.354-0.015,0.714,0.024,1.066c0.058,0.514-0.007,1.033,0.152,1.543
		c0.011,0.033,0.005,0.069,0.002,0.104c-0.051,0.494,0.09,0.976,0.193,1.462c0.079,0.363,0.162,0.725,0.247,1.088
		c0.104,0.438,0.16,0.887,0.287,1.323c0.043,0.146,0.091,0.289,0.115,0.44c0.089,0.582,0.191,1.16,0.481,1.704
		c0.094,0.177,0.163,0.364,0.178,0.566c0.021,0.314,0.154,0.625,0.063,0.943c-0.018,0.062,0.057,0.15,0.091,0.226
		c0.086,0.192,0.23,0.384,0.243,0.576c0.011,0.173,0.065,0.321,0.135,0.462c0.075,0.15,0.138,0.297,0.175,0.459
		c0.095,0.412,0.207,0.822,0.311,1.232c0.022,0.09,0.006,0.209,0.062,0.266c0.294,0.305,0.384,0.708,0.626,1.036
		c0.104,0.142,0.183,0.308,0.227,0.481c0.085,0.333,0.301,0.619,0.486,0.903c0.116,0.178,0.173,0.406,0.337,0.537
		c0.375,0.3,0.664,0.675,1.07,0.957c0.743,0.518,1.577,0.818,2.391,1.175c0.325,0.144,0.675,0.207,1.004,0.323
		c0.314,0.111,0.626,0.185,0.944,0.234c-0.251,0.583-0.515,1.159-0.653,1.788c-0.109,0.491-0.272,0.972-0.41,1.457
		c-0.021,0.073-0.043,0.146-0.051,0.22c-0.046,0.433,0.013,0.866-0.027,1.301c-0.054,0.585,0.269,1.071,0.466,1.587
		c0.176,0.456,0.498,0.853,0.592,1.35c0.01,0.054,0.03,0.112,0.081,0.134c0.114,0.045,0.142,0.152,0.186,0.248
		c0.271,0.576,0.693,1.023,1.192,1.403c0.042,0.032,0.078,0.092,0.135,0.056c0.211-0.14,0.252,0.035,0.313,0.17
		c0.104,0.224,0.171,0.475,0.313,0.672c0.28,0.389,0.616,0.735,0.884,1.137c0.241,0.362,0.65,0.561,0.907,0.903
		c0.195,0.264,0.438,0.462,0.679,0.675c0.341,0.303,0.697,0.589,1.018,0.917c0.245,0.25,0.481,0.513,0.739,0.748
		c0.273,0.248,0.614,0.422,0.907,0.653c0.186,0.146,0.399,0.239,0.587,0.384c0.439,0.343,0.916,0.628,1.452,0.799
		c0.173,0.056,0.354,0.067,0.529,0.117c0.327,0.09,0.661,0.175,0.997,0.214c0.676,0.078,1.355,0.017,2.033,0.006
		c0.119-0.001,0.237-0.016,0.334-0.092c0.127-0.1,0.271-0.115,0.424-0.114c0.239,0.004,0.46-0.05,0.661-0.198
		c0.306-0.225,0.731-0.224,1-0.528c0.022-0.026,0.081-0.019,0.122-0.028c0.384-0.089,0.715-0.335,1.112-0.382
		c0.039-0.005,0.084-0.035,0.107-0.067c0.119-0.155,0.301-0.2,0.47-0.256c0.154-0.051,0.293-0.117,0.422-0.218
		c0.348-0.271,0.737-0.475,1.146-0.623c0.3-0.105,0.575-0.31,0.918-0.281c0.029,0.003,0.063-0.011,0.091-0.025
		c0.251-0.138,0.526-0.154,0.804-0.181c0.179-0.017,0.36-0.006,0.537-0.066c0.506-0.174,1.036-0.248,1.558-0.361
		c0.122-0.025,0.247-0.007,0.373-0.06c0.285-0.119,0.59-0.201,0.897-0.155c0.242,0.034,0.482,0.014,0.692-0.065
		c0.278-0.105,0.56-0.11,0.842-0.14c0.139-0.014,0.276-0.027,0.407-0.081c0.038-0.017,0.087-0.04,0.119-0.028
		c0.341,0.135,0.669-0.124,1.007-0.026c0.434-0.127,0.883-0.041,1.325-0.107c0.436-0.065,0.887-0.028,1.312-0.037
		c0.57-0.084,1.102,0.04,1.625,0.186c0.664,0.186,1.346,0.311,1.983,0.586c0.155,0.067,0.303,0.177,0.464,0.207
		c0.45,0.086,0.828,0.34,1.236,0.513c0.459,0.194,0.898,0.444,1.348,0.652c0.54,0.248,1.063,0.53,1.602,0.776
		c0.354,0.163,0.714,0.34,1.119,0.346c0.056,0,0.108,0.007,0.146,0.051c0.088,0.099,0.215,0.116,0.325,0.116
		c0.419,0.003,0.821,0.14,1.235,0.156c0.296,0.014,0.606,0.083,0.889-0.026c0.228-0.09,0.456-0.125,0.688-0.112
		c0.218,0.013,0.423-0.032,0.632-0.061c0.166-0.022,0.286-0.135,0.435-0.191c0.334-0.127,0.652-0.295,0.885-0.591
		c0.085-0.107,0.143-0.244,0.28-0.303c0.188-0.081,0.286-0.247,0.379-0.418c0.152-0.277,0.262-0.58,0.492-0.812
		c0.066-0.067,0.107-0.16,0.162-0.236c0.23-0.316,0.32-0.719,0.604-1.004c0.041-0.04,0.04-0.119,0.066-0.179
		c0.123-0.279,0.192-0.575,0.385-0.835c0.21-0.285,0.367-0.627,0.315-1.015c-0.027-0.204-0.15-0.399-0.05-0.62
		c0.031-0.067-0.045-0.137-0.089-0.199c-0.051-0.074-0.068-0.152-0.035-0.243c0.173-0.485,0.337-0.972,0.295-1.502
		c-0.005-0.072,0.02-0.148,0.037-0.222c0.134-0.546,0.216-1.098,0.188-1.66c-0.018-0.354,0.063-0.709-0.034-1.06
		c-0.043-0.157-0.028-0.316-0.03-0.479c-0.006-0.503,0.01-1.009-0.113-1.508c-0.087-0.355-0.185-0.71-0.249-1.066
		c-0.103-0.558-0.387-1.046-0.566-1.571c0.242,0.056,0.488,0.078,0.738,0.031c0.103-0.021,0.201-0.022,0.301,0.001
		c0.252,0.06,0.494,0.036,0.741-0.037c0.176-0.052,0.35-0.112,0.55-0.026c0.135,0.059,0.324,0.022,0.437-0.07
		c0.249-0.203,0.546-0.193,0.827-0.212c0.211-0.016,0.424-0.001,0.613-0.065c0.304,0.013,0.543-0.101,0.797-0.23
		c0.288-0.147,0.555-0.336,0.859-0.456c0.461-0.18,0.899-0.418,1.283-0.745c0.087-0.074,0.176-0.132,0.289-0.169
		c0.2-0.065,0.432-0.121,0.575-0.262c0.289-0.285,0.721-0.37,0.943-0.737c0.594-0.335,1.051-0.855,1.563-1.293
		c0.382-0.325,0.678-0.805,0.902-1.272c0.272-0.565,0.624-1.078,0.918-1.627c0.351-0.653,0.948-1.156,1.122-1.929
		c0.008-0.033,0.052-0.055,0.075-0.085c0.403-0.503,0.594-1.129,0.901-1.687c0.036-0.067,0.059-0.146,0.031-0.227
		c-0.036-0.11,0.012-0.203,0.044-0.301c0.115-0.344,0.235-0.688,0.373-1.02c0.302-0.729,0.566-1.458,0.573-2.267
		c0.002-0.074,0.026-0.158,0.066-0.22c0.093-0.143,0.084-0.299,0.066-0.453c-0.029-0.237-0.028-0.475,0.03-0.7
		c0.119-0.462-0.058-0.958,0.139-1.413C71.933,35.605,71.884,35.499,71.875,35.407z"/>
	<g>
		<path fill="#FFFFFF" d="M38.863,62.931c-0.359,0.008-0.738-0.023-1.107,0.031c-0.372,0.057-0.752-0.016-1.117,0.092
			c-0.286-0.082-0.563,0.135-0.851,0.022c-0.026-0.011-0.068,0.01-0.101,0.023c-0.109,0.046-0.227,0.056-0.345,0.068
			c-0.237,0.025-0.475,0.029-0.711,0.117c-0.177,0.067-0.379,0.085-0.583,0.055c-0.261-0.037-0.518,0.032-0.758,0.132
			c-0.107,0.044-0.212,0.029-0.315,0.05c-0.439,0.094-0.888,0.156-1.315,0.304c-0.149,0.05-0.302,0.042-0.453,0.056
			c-0.234,0.021-0.466,0.036-0.678,0.152c-0.023,0.012-0.053,0.022-0.077,0.021c-0.289-0.023-0.522,0.146-0.775,0.237
			c-0.346,0.123-0.675,0.294-0.968,0.521c-0.109,0.085-0.227,0.141-0.357,0.184c-0.143,0.046-0.295,0.083-0.396,0.214
			c-0.021,0.027-0.059,0.052-0.091,0.056c-0.336,0.042-0.615,0.245-0.939,0.321c-0.035,0.008-0.084,0.002-0.104,0.023
			c-0.227,0.256-0.586,0.255-0.845,0.443c-0.169,0.124-0.355,0.168-0.558,0.167c-0.129-0.002-0.25,0.012-0.357,0.095
			c-0.082,0.063-0.182,0.076-0.283,0.077c-0.571,0.01-1.145,0.062-1.715-0.003c-0.284-0.032-0.565-0.104-0.842-0.179
			c-0.148-0.041-0.301-0.052-0.447-0.097c-0.451-0.143-0.854-0.382-1.225-0.667c-0.158-0.121-0.339-0.199-0.495-0.321
			c-0.247-0.193-0.535-0.338-0.766-0.546c-0.217-0.197-0.417-0.417-0.624-0.626c-0.271-0.274-0.57-0.513-0.857-0.767
			c-0.202-0.178-0.407-0.344-0.573-0.563c-0.216-0.286-0.561-0.452-0.764-0.754c-0.226-0.337-0.51-0.626-0.746-0.952
			c-0.119-0.164-0.062-0.096-0.148-0.284c-0.052-0.111-0.124-0.411-0.304-0.296c-0.047,0.031-0.152-0.144-0.188-0.17
			c-0.422-0.316-0.776-0.691-1.006-1.173c-0.038-0.081-0.061-0.169-0.156-0.209c-0.043-0.017-0.061-0.064-0.068-0.11
			c-0.079-0.416-0.352-0.745-0.499-1.13c-0.166-0.431-0.438-0.837-0.392-1.326c0.034-0.363-0.015-0.727,0.023-1.088
			c0.007-0.062,0.026-0.123,0.044-0.185c0.116-0.405,0.255-0.808,0.347-1.22c0.12-0.535,0.349-1.026,0.564-1.523
			c0.087-0.199,0.233-0.362,0.349-0.544c0.134-0.213,0.258-0.434,0.401-0.641c0.047-0.067,0.087-0.136,0.155-0.183
			c0.127-0.085,0.246-0.181,0.349-0.296c0.074-0.084,0.182-0.128,0.283-0.148c0.256-0.051,0.506-0.109,0.728-0.255
			c0.021-0.015,0.055-0.026,0.077-0.021c0.346,0.087,0.666-0.112,1.01-0.091c0.202,0.012,0.391-0.11,0.588-0.165
			c0.128-0.034,0.25-0.089,0.387-0.096c0.071-0.004,0.146-0.021,0.209-0.051c0.285-0.135,0.61-0.128,0.899-0.254
			c0.07-0.031,0.16-0.021,0.24-0.025c0.357-0.018,0.702-0.028,1.015-0.271c0.162-0.126,0.396-0.191,0.605-0.263
			c0.123-0.043,0.232-0.096,0.304-0.211c0.023-0.036,0.058-0.074,0.096-0.094c0.492-0.254,0.868-0.656,1.268-1.023
			c0.248-0.229,0.444-0.514,0.663-0.775c0.189-0.227,0.385-0.446,0.567-0.68c0.062-0.079,0.133-0.162,0.154-0.25
			c0.074-0.299,0.3-0.533,0.346-0.841c0.008-0.047,0.029-0.085,0.063-0.117c0.131-0.12,0.149-0.28,0.148-0.443
			c-0.001-0.065,0.006-0.126,0.039-0.181c0.138-0.231,0.23-0.485,0.289-0.743c0.063-0.277,0.141-0.529,0.32-0.765
			c0.145-0.187,0.218-0.434,0.19-0.687c-0.012-0.105,0.013-0.192,0.08-0.274c0.033-0.041,0.064-0.093,0.071-0.144
			c0.046-0.348,0.216-0.658,0.33-0.981c0.109-0.307,0.254-0.604,0.366-0.915c0.03-0.083,0.06-0.157,0.06-0.251
			c0-0.151,0.144-0.24,0.195-0.378c0.125-0.334,0.344-0.613,0.558-0.894c0.065-0.088,0.11-0.187,0.134-0.294
			c0.012-0.053,0.009-0.112,0.05-0.151c0.212-0.194,0.234-0.48,0.343-0.723c0.076-0.17,0.181-0.32,0.313-0.419
			c0.168-0.127,0.24-0.307,0.343-0.465c0.107-0.164,0.188-0.325,0.38-0.421c0.103-0.051,0.211-0.132,0.277-0.248
			c0.088-0.153,0.264-0.212,0.382-0.34c0.162-0.176,0.364-0.311,0.515-0.509c0.089-0.117,0.271-0.167,0.42-0.229
			c0.234-0.099,0.443-0.238,0.633-0.4c0.095-0.081,0.212-0.118,0.311-0.147c0.188-0.054,0.361-0.161,0.562-0.167
			c0.171-0.005,0.297-0.121,0.447-0.178c0.273-0.103,0.548-0.154,0.837-0.114c0.311,0.043,0.628,0.021,0.935,0.098
			c0.017,0.004,0.037,0.01,0.053,0.005c0.354-0.09,0.665,0.078,0.932,0.242c0.479,0.296,0.897,0.661,1.172,1.19
			c0.2,0.383,0.335,0.79,0.524,1.173c0.166,0.336,0.317,0.673,0.549,0.97c0.074,0.094,0.15,0.207,0.133,0.346
			c-0.009,0.067,0.044,0.116,0.074,0.171c0.242,0.431,0.456,0.877,0.758,1.273c0.086,0.113,0.164,0.23,0.215,0.369
			c0.086,0.24,0.284,0.409,0.42,0.62c0.05,0.076,0.103,0.148,0.109,0.243c0.006,0.065,0.027,0.129,0.073,0.171
			c0.189,0.172,0.263,0.426,0.438,0.606c0.107,0.11,0.169,0.252,0.244,0.385c0.17,0.307,0.344,0.61,0.509,0.919
			c0.061,0.112,0.146,0.221,0.229,0.293c0.301,0.266,0.467,0.635,0.75,0.91c0.087,0.086,0.148,0.202,0.21,0.312
			c0.214,0.376,0.536,0.638,0.897,0.859c0.053,0.033,0.114,0.064,0.151,0.112c0.205,0.271,0.512,0.415,0.771,0.617
			c0.269,0.21,0.606,0.299,0.916,0.438c0.514,0.229,1.078,0.309,1.596,0.536c0.237,0.103,0.5,0.173,0.756,0.194
			c0.271,0.023,0.498,0.146,0.731,0.247c0.285,0.125,0.589,0.201,0.868,0.345c0.293,0.151,0.612,0.25,0.862,0.479
			c0.054,0.05,0.115,0.084,0.184,0.111c0.075,0.03,0.164,0.056,0.213,0.113c0.181,0.211,0.444,0.297,0.653,0.463
			c0.197,0.156,0.414,0.287,0.549,0.511c0.027,0.045,0.061,0.099,0.105,0.121c0.263,0.128,0.382,0.396,0.579,0.586
			c0.105,0.102,0.156,0.247,0.217,0.369c0.14,0.288,0.447,0.465,0.509,0.8c0.053,0.283,0.167,0.541,0.324,0.783
			c0.032,0.049,0.024,0.122,0.038,0.184c0.045,0.202,0.1,0.402,0.232,0.569c0.028,0.035,0.061,0.074,0.069,0.116
			c0.121,0.563,0.458,1.049,0.563,1.623c0.055,0.298,0.137,0.595,0.21,0.892c0.104,0.418,0.091,0.84,0.095,1.262
			c0.001,0.137-0.011,0.269,0.025,0.4c0.082,0.294,0.012,0.591,0.027,0.887c0.023,0.471-0.046,0.933-0.158,1.389
			c-0.016,0.062-0.036,0.125-0.032,0.186c0.035,0.444,0.047,0.771-0.1,1.177c-0.028,0.076-0.06,0.205-0.063,0.281
			c-0.004,0.078,0.037,0.194,0.013,0.252c-0.086,0.185,0.022,0.265,0.045,0.437c0.045,0.324-0.089,0.609-0.267,0.849
			c-0.162,0.218-0.221,0.465-0.325,0.699c-0.022,0.049-0.021,0.116-0.056,0.149c-0.239,0.238-0.316,0.575-0.511,0.841
			c-0.047,0.063-0.08,0.141-0.137,0.196c-0.194,0.195-0.287,0.448-0.417,0.681c-0.078,0.143-0.16,0.281-0.319,0.35
			c-0.115,0.05-0.165,0.163-0.236,0.254c-0.196,0.248-0.466,0.389-0.748,0.495c-0.126,0.047-0.228,0.141-0.366,0.16
			c-0.177,0.023-0.35,0.061-0.534,0.051c-0.195-0.01-0.388,0.02-0.58,0.095c-0.237,0.092-0.5,0.034-0.75,0.023
			c-0.351-0.015-0.689-0.127-1.044-0.131c-0.092,0-0.2-0.014-0.273-0.097c-0.032-0.038-0.077-0.042-0.123-0.042
			c-0.343-0.004-0.646-0.152-0.944-0.288c-0.455-0.206-0.896-0.441-1.353-0.649c-0.379-0.173-0.748-0.382-1.136-0.544
			c-0.346-0.145-0.663-0.357-1.043-0.429c-0.137-0.024-0.261-0.116-0.392-0.173c-0.537-0.229-1.114-0.334-1.674-0.487
			C39.793,62.963,39.345,62.859,38.863,62.931z M14.477,55.671c0.007,0.073-0.026,0.568-0.015,0.612
			c0.153,0.628,0.557,1.067,1.219,1.965c0.796,1.079,1.594,1.594,1.78,1.793c0.255,0.271,0.46,0.602,0.703,0.895
			c0.027,0.034,0.06,0.071,0.098,0.089c0.27,0.127,0.445,0.36,0.656,0.556c0.146,0.135,0.249,0.31,0.391,0.438
			c0.332,0.298,0.605,0.663,0.996,0.896c0.318,0.188,0.537,0.496,0.847,0.699c0.112,0.072,0.233,0.13,0.346,0.206
			c0.472,0.322,0.95,0.644,1.563,0.624c0.043-0.002,0.089,0.014,0.129,0.03c0.354,0.154,0.735,0.125,1.089,0.066
			c0.367-0.062,0.741-0.112,1.105-0.201c0.062-0.016,0.127-0.021,0.183-0.048c0.472-0.232,0.94-0.474,1.449-0.621
			c0.017-0.004,0.03-0.019,0.047-0.026c0.466-0.206,0.934-0.408,1.397-0.619c0.334-0.152,0.666-0.308,0.992-0.475
			c0.157-0.082,0.28-0.228,0.468-0.252c0.187-0.025,0.401-0.008,0.539-0.139c0.178-0.168,0.367,0.009,0.535-0.071
			c0.017-0.008,0.037-0.004,0.053-0.012c0.266-0.134,0.561-0.157,0.847-0.204c0.347-0.057,0.685-0.143,1.026-0.217
			c0.219-0.047,0.429-0.121,0.648-0.168c0.136-0.029,0.266,0.039,0.398-0.01c0.29-0.104,0.601-0.102,0.899-0.164
			c0.14-0.029,0.28-0.096,0.42-0.094c0.313,0.007,0.623,0.006,0.929-0.078c0.158-0.043,0.321-0.046,0.481-0.001
			c0.097,0.025,0.192,0.018,0.294-0.002c0.279-0.053,0.564-0.079,0.844-0.134c0.245-0.047,0.482,0.066,0.727,0.01
			c0.525-0.121,1.053-0.047,1.579,0.001c0.333,0.029,0.642,0.167,0.969,0.216c0.193,0.029,0.392,0.024,0.577,0.106
			c0.106,0.045,0.21,0.097,0.319,0.139c0.374,0.144,0.779,0.183,1.14,0.375c0.282,0.152,0.628,0.174,0.874,0.405
			c0.019,0.017,0.051,0.021,0.075,0.022c0.307,0.009,0.531,0.213,0.774,0.35c0.133,0.075,0.277,0.112,0.408,0.191
			c0.381,0.232,0.802,0.393,1.185,0.622c0.015,0.01,0.035,0.013,0.053,0.013c0.397,0.02,0.749,0.229,1.147,0.27
			c0.256,0.026,0.514,0.04,0.771,0.07c0.356,0.041,0.716-0.007,1.072-0.026c0.228-0.013,0.463-0.058,0.676-0.136
			c0.483-0.18,0.747-0.58,0.963-1.023c0.102-0.212,0.19-0.423,0.211-0.662c0.004-0.068,0.041-0.141,0.083-0.196
			c0.053-0.067,0.076-0.139,0.095-0.22c0.049-0.229,0.102-0.454,0.197-0.671c0.046-0.104,0.077-0.218,0.089-0.337
			c0.016-0.157,0.031-0.341,0.12-0.46c0.156-0.21,0.176-0.455,0.216-0.686c0.085-0.474,0.144-0.954,0.169-1.436
			c0.024-0.464,0.021-0.929-0.024-1.395c-0.031-0.314-0.07-0.628-0.127-0.937c-0.036-0.191-0.059-0.394-0.117-0.573
			c-0.076-0.229-0.137-0.464-0.204-0.695c-0.092-0.32-0.186-0.636-0.335-0.938c-0.095-0.192-0.198-0.379-0.287-0.572
			c-0.154-0.334-0.29-0.673-0.467-0.998c-0.182-0.337-0.267-0.73-0.623-0.95c-0.39-0.609-1.003-0.968-1.562-1.387
			c-0.328-0.245-0.696-0.428-1.061-0.616c-0.415-0.215-0.858-0.366-1.295-0.521c-0.392-0.14-0.813-0.206-1.211-0.345
			c-0.413-0.145-0.85-0.202-1.246-0.405c-0.43-0.221-0.893-0.364-1.313-0.612c-0.345-0.201-0.661-0.436-0.944-0.709
			c-0.366-0.354-0.72-0.724-1.061-1.103c-0.221-0.243-0.345-0.571-0.638-0.757c-0.286-0.544-0.714-0.992-1.02-1.525
			c-0.213-0.372-0.473-0.717-0.7-1.08c-0.223-0.356-0.405-0.738-0.685-1.059c-0.117-0.135-0.226-0.286-0.297-0.449
			c-0.115-0.264-0.271-0.501-0.42-0.745c-0.117-0.189-0.259-0.37-0.351-0.567c-0.107-0.235-0.256-0.454-0.33-0.705
			c-0.053-0.177-0.156-0.322-0.262-0.469c-0.115-0.162-0.211-0.336-0.267-0.528c-0.021-0.07-0.06-0.129-0.095-0.191
			c-0.177-0.312-0.363-0.617-0.512-0.942c-0.091-0.196-0.228-0.347-0.382-0.475c-0.247-0.205-0.546-0.27-0.869-0.262
			c-0.163,0.003-0.333,0.053-0.497-0.05c-0.088-0.056-0.216-0.038-0.319-0.006c-0.385,0.119-0.789,0.156-1.168,0.307
			c-0.213,0.084-0.38,0.232-0.574,0.338c-0.155,0.085-0.344,0.114-0.461,0.271c-0.085,0.114-0.176,0.215-0.321,0.273
			c-0.098,0.039-0.206,0.129-0.247,0.238c-0.076,0.207-0.248,0.324-0.395,0.464c-0.17,0.163-0.333,0.347-0.405,0.558
			c-0.098,0.29-0.292,0.52-0.411,0.796c-0.104,0.242-0.198,0.495-0.323,0.731c-0.102,0.195-0.127,0.429-0.313,0.585
			c-0.074,0.062-0.11,0.169-0.124,0.267c-0.021,0.132-0.086,0.231-0.177,0.323c-0.057,0.058-0.09,0.133-0.135,0.199
			c-0.112,0.164-0.098,0.367-0.181,0.533c-0.078,0.155-0.117,0.312-0.152,0.479c-0.061,0.293-0.078,0.598-0.217,0.871
			c-0.142,0.28-0.284,0.561-0.333,0.877c-0.004,0.024-0.024,0.048-0.038,0.069c-0.122,0.19-0.196,0.399-0.266,0.613
			c-0.09,0.28-0.174,0.57-0.319,0.821c-0.213,0.365-0.25,0.805-0.516,1.143c-0.021,0.026-0.016,0.069-0.028,0.104
			c-0.065,0.165-0.101,0.354-0.207,0.487c-0.126,0.154-0.222,0.324-0.334,0.485c-0.266,0.381-0.605,0.697-0.927,1.031
			c-0.094,0.097-0.2,0.183-0.271,0.3c-0.177,0.287-0.446,0.483-0.7,0.691c-0.104,0.086-0.217,0.161-0.295,0.271
			c-0.052,0.076-0.11,0.135-0.189,0.186c-0.487,0.312-0.97,0.631-1.456,0.945c-0.052,0.033-0.114,0.063-0.174,0.069
			c-0.105,0.01-0.182,0.074-0.269,0.119c-0.294,0.153-0.594,0.295-0.919,0.37c-0.237,0.055-0.478,0.076-0.72,0.099
			c-0.294,0.028-0.583,0.108-0.879,0.145c-0.157,0.019-0.324-0.004-0.461,0.118c-0.031,0.029-0.112,0.033-0.154,0.014
			c-0.132-0.061-0.247-0.001-0.367,0.026c-0.342,0.079-0.682,0.165-1.03,0.213c-0.26,0.037-0.496,0.151-0.734,0.254
			c-0.04,0.019-0.085,0.047-0.104,0.083c-0.15,0.276-0.392,0.496-0.505,0.794c-0.23,0.609-0.334,1.016-0.458,1.658
			C14.486,54.899,14.395,55.38,14.477,55.671z"/>
		<path fill="#FFFFFF" d="M15.399,23.138c-0.068-0.446-0.04-0.895-0.039-1.343c0.001-0.157,0.079-0.305,0.113-0.46
			c0.039-0.172,0.147-0.327,0.201-0.497c0.042-0.137,0.21-0.166,0.229-0.318c0.039-0.308,0.332-0.51,0.355-0.828
			c0.002-0.015,0.018-0.031,0.029-0.044c0.207-0.22,0.306-0.484,0.402-0.771c0.079-0.233,0.186-0.479,0.315-0.694
			c0.153-0.253,0.21-0.53,0.3-0.8c0.101-0.297,0.21-0.592,0.331-0.881c0.125-0.297,0.217-0.605,0.309-0.912
			c0.044-0.148,0.108-0.285,0.163-0.426c0.114-0.292,0.237-0.581,0.293-0.892c0.02-0.108,0.053-0.208,0.098-0.307
			c0.063-0.139,0.136-0.276,0.12-0.438c-0.003-0.034,0.004-0.075,0.022-0.104c0.179-0.292,0.15-0.649,0.271-0.948
			c0.193-0.473,0.127-1.024,0.458-1.448c0.007-0.253,0.208-0.431,0.253-0.673c0.036-0.199,0.195-0.341,0.316-0.494
			c0.1-0.127,0.2-0.25,0.29-0.386c0.121-0.184,0.224-0.393,0.453-0.483c0.054-0.021,0.111-0.078,0.13-0.132
			c0.072-0.208,0.237-0.359,0.322-0.555c0.045-0.103,0.112-0.184,0.188-0.26c0.285-0.286,0.608-0.527,0.941-0.751
			c0.203-0.137,0.445-0.229,0.713-0.219c0.271,0.009,0.529-0.09,0.787-0.164c0.15-0.043,0.297-0.053,0.45-0.06
			c0.296-0.015,0.58,0.113,0.877,0.047c0.066-0.015,0.121,0.029,0.179,0.052c0.288,0.119,0.577,0.235,0.864,0.354
			c0.05,0.02,0.108,0.038,0.14,0.077c0.179,0.214,0.423,0.326,0.661,0.448c0.023,0.012,0.051,0.024,0.065,0.045
			c0.187,0.252,0.47,0.387,0.698,0.586c0.291,0.254,0.527,0.563,0.758,0.87c0.191,0.258,0.339,0.547,0.596,0.753
			c0.02,0.016,0.034,0.045,0.037,0.071c0.022,0.251,0.198,0.416,0.34,0.597c0.212,0.271,0.334,0.595,0.539,0.872
			c0.276,0.373,0.531,0.761,0.744,1.18c0.093,0.184,0.128,0.381,0.219,0.563c0.063,0.125,0.085,0.265,0.193,0.375
			c0.095,0.098,0.07,0.256,0.117,0.383c0.064,0.178,0.138,0.346,0.222,0.516c0.125,0.253,0.223,0.528,0.279,0.805
			c0.082,0.403,0.185,0.803,0.255,1.208c0.068,0.398,0.192,0.788,0.208,1.195c0.008,0.21,0.066,0.415,0.143,0.602
			c0.091,0.226,0.092,0.448,0.106,0.679c0.032,0.499,0.038,0.997,0.146,1.493c0.112,0.516,0.129,1.051,0.127,1.581
			c0,0.1,0.017,0.194,0.03,0.292c0.032,0.229,0.063,0.462-0.007,0.694c-0.026,0.085-0.031,0.177-0.013,0.268
			c0.027,0.143,0.006,0.286,0,0.43c-0.009,0.258-0.022,0.517,0.02,0.774c0.011,0.062,0.027,0.129,0.015,0.188
			c-0.092,0.408-0.024,0.823-0.057,1.234c-0.039,0.52-0.184,0.996-0.477,1.436c-0.173,0.26-0.279,0.564-0.339,0.876
			c-0.019,0.099-0.035,0.192-0.11,0.267c-0.044,0.045-0.073,0.099-0.086,0.165c-0.056,0.269-0.22,0.489-0.358,0.714
			c-0.179,0.291-0.37,0.569-0.423,0.916c-0.019,0.116-0.052,0.225-0.176,0.281c-0.029,0.013-0.054,0.05-0.07,0.08
			c-0.129,0.232-0.268,0.461-0.377,0.704c-0.041,0.09-0.087,0.167-0.167,0.197c-0.19,0.072-0.301,0.229-0.399,0.383
			c-0.139,0.216-0.351,0.285-0.571,0.359c-0.286,0.097-0.582,0.18-0.804,0.406c-0.038,0.037-0.087,0.081-0.134,0.085
			c-0.241,0.023-0.478,0.098-0.715,0.104c-0.439,0.012-0.88-0.019-1.319-0.032c-0.188-0.005-0.426-0.204-0.458-0.386
			c-0.037-0.211-0.021-0.197,0.173-0.328c0.302-0.205,0.633-0.355,0.942-0.544c0.179-0.11,0.363-0.143,0.563-0.141
			c0.132,0.001,0.235-0.033,0.344-0.121c0.129-0.105,0.263-0.233,0.427-0.266c0.35-0.068,0.538-0.32,0.701-0.589
			c0.146-0.236,0.319-0.453,0.438-0.709c0.078-0.168,0.087-0.383,0.269-0.499c-0.005-0.226,0.158-0.361,0.272-0.525
			c0.049-0.072,0.086-0.168,0.087-0.253c0.001-0.211,0.128-0.37,0.217-0.536c0.132-0.25,0.238-0.493,0.223-0.784
			c-0.006-0.123,0.031-0.239,0.113-0.348c0.223-0.299,0.408-0.616,0.289-1.016c-0.016-0.053-0.001-0.106,0.021-0.158
			c0.165-0.384,0.08-0.775,0.049-1.168c-0.03-0.401-0.09-0.801-0.035-1.208c0.041-0.311,0.067-0.623-0.01-0.939
			c-0.054-0.224-0.078-0.46-0.032-0.697c0.019-0.095,0.012-0.199-0.004-0.296c-0.115-0.692-0.107-1.403-0.281-2.084
			c-0.078-0.307-0.065-0.624-0.16-0.925c-0.024-0.075-0.015-0.16-0.017-0.241c-0.007-0.363-0.11-0.708-0.176-1.06
			c-0.052-0.275-0.177-0.526-0.219-0.793c-0.068-0.428-0.243-0.831-0.275-1.265c-0.01-0.134-0.14-0.196-0.188-0.316
			c-0.114-0.274-0.168-0.571-0.312-0.833c-0.173-0.313-0.32-0.646-0.528-0.933c-0.139-0.191-0.281-0.389-0.394-0.588
			c-0.146-0.263-0.361-0.475-0.494-0.746c-0.135-0.273-0.278-0.549-0.447-0.799c-0.284-0.421-0.583-0.835-0.957-1.191
			c-0.292-0.28-0.629-0.506-0.907-0.801c-0.053-0.056-0.115-0.076-0.185-0.1c-0.179-0.061-0.351-0.133-0.51-0.24
			c-0.195-0.131-0.429-0.132-0.647-0.077c-0.111,0.028-0.223,0.063-0.339,0.076c-0.432,0.048-0.785,0.231-1.039,0.593
			c-0.098,0.14-0.197,0.279-0.334,0.386c-0.041,0.033-0.089,0.078-0.1,0.125c-0.063,0.255-0.265,0.401-0.428,0.577
			c-0.222,0.238-0.405,0.502-0.579,0.775c-0.048,0.076-0.092,0.159-0.153,0.221c-0.193,0.197-0.27,0.448-0.32,0.703
			c-0.061,0.309-0.122,0.612-0.258,0.898c-0.045,0.097-0.081,0.206-0.071,0.315c0.027,0.289-0.094,0.54-0.192,0.798
			c-0.091,0.241-0.156,0.49-0.266,0.727c-0.262,0.569-0.421,1.177-0.634,1.764c-0.086,0.235-0.166,0.47-0.241,0.707
			c-0.03,0.096-0.074,0.182-0.129,0.265c-0.103,0.152-0.188,0.31-0.133,0.504c0.012,0.044,0.007,0.091-0.021,0.131
			c-0.154,0.222-0.25,0.467-0.298,0.731c-0.007,0.035-0.021,0.071-0.043,0.099c-0.303,0.377-0.371,0.872-0.634,1.269
			c-0.019,0.028-0.02,0.068-0.026,0.103c-0.067,0.333-0.247,0.614-0.393,0.915c-0.104,0.214-0.149,0.466-0.279,0.679
			c0.106,0.232,0.018,0.472,0.03,0.707c0.007,0.113,0.059,0.227,0.106,0.333c0.046,0.101,0.073,0.205,0.075,0.313
			c0.006,0.256,0.099,0.492,0.169,0.732c0.061,0.207,0.191,0.381,0.299,0.565c0.086,0.147,0.173,0.294,0.264,0.438
			c0.223,0.356,0.443,0.714,0.709,1.041c0.074,0.091,0.146,0.183,0.216,0.277c0.392,0.521,0.749,1.068,1.116,1.605
			c0.194,0.284,0.405,0.57,0.547,0.893c0.053,0.124,0.123,0.243,0.204,0.349c0.25,0.325,0.435,0.699,0.739,0.983
			c0.024,0.023,0.04,0.06,0.052,0.094c0.175,0.502,0.567,0.852,0.873,1.264c0.353,0.476,0.853,0.783,1.261,1.195
			c0.088,0.088,0.19,0.146,0.336,0.129c0.102-0.012,0.21,0.039,0.315,0.063c0.358,0.083,0.726,0.099,1.09,0.132
			c0.159,0.015,0.614,0.439,0.624,0.598c0.007,0.099,0.003,0.198,0.015,0.297c0.01,0.08-0.021,0.136-0.072,0.193
			c-0.221,0.24-0.536,0.344-0.786,0.543c-0.043,0.036-0.104,0.005-0.158,0.004c-0.16-0.002-0.323-0.029-0.476,0.053
			c-0.076,0.041-0.161,0.023-0.237-0.005c-0.194-0.071-0.397-0.067-0.598-0.092c-0.197-0.025-0.409-0.048-0.596-0.145
			c-0.271-0.14-0.553-0.271-0.8-0.438c-0.237-0.16-0.498-0.311-0.671-0.562c-0.111-0.161-0.286-0.265-0.436-0.391
			c-0.025-0.022-0.081-0.033-0.085-0.055c-0.051-0.314-0.38-0.44-0.483-0.703c-0.097-0.246-0.335-0.391-0.399-0.652
			c-0.023-0.094-0.121-0.15-0.18-0.23c-0.344-0.469-0.624-0.979-0.942-1.464c-0.164-0.248-0.369-0.471-0.491-0.743
			c-0.121-0.267-0.372-0.456-0.44-0.751c-0.008-0.034-0.033-0.066-0.06-0.089c-0.26-0.228-0.419-0.536-0.598-0.818
			c-0.111-0.175-0.24-0.345-0.35-0.523c-0.115-0.188-0.259-0.361-0.385-0.545c-0.183-0.266-0.388-0.516-0.573-0.778
			c-0.21-0.296-0.434-0.584-0.524-0.947c-0.013-0.051-0.035-0.105-0.067-0.146c-0.268-0.335-0.263-0.757-0.361-1.145
			C15.421,23.354,15.414,23.245,15.399,23.138z"/>
		<path fill="#FFFFFF" d="M37.265,28.494c-0.065-0.204,0.002-0.404-0.023-0.596c-0.074-0.587,0.021-1.167,0.056-1.75
			c0.012-0.202,0.086-0.396,0.031-0.606c-0.032-0.127,0.069-0.245,0.115-0.349c0.093-0.21,0.122-0.437,0.185-0.648
			c0.098-0.327,0.278-0.597,0.41-0.897c0.106-0.241,0.24-0.475,0.305-0.743c0.049-0.21,0.205-0.396,0.316-0.592
			c0.098-0.171,0.214-0.334,0.243-0.537c0.007-0.047,0.035-0.079,0.062-0.115c0.113-0.148,0.218-0.295,0.288-0.478
			c0.064-0.167,0.211-0.308,0.307-0.47c0.132-0.219,0.307-0.419,0.402-0.651c0.108-0.262,0.257-0.481,0.451-0.677
			c0.032-0.031,0.06-0.07,0.078-0.11c0.161-0.372,0.42-0.685,0.653-1.009c0.193-0.271,0.369-0.568,0.655-0.766
			c0.041-0.028,0.058-0.089,0.086-0.135c0.062-0.099,0.106-0.214,0.188-0.294c0.167-0.167,0.274-0.365,0.395-0.564
			c0.111-0.188,0.252-0.377,0.402-0.549c0.069-0.081,0.14-0.164,0.17-0.272c0.045-0.163,0.116-0.309,0.254-0.42
			c0.198-0.161,0.301-0.395,0.438-0.604c0.181-0.278,0.393-0.532,0.621-0.771c0.087-0.092,0.184-0.174,0.223-0.301
			c0.015-0.053,0.042-0.11,0.098-0.121c0.261-0.051,0.379-0.274,0.515-0.454c0.171-0.223,0.381-0.383,0.624-0.497
			c0.224-0.105,0.403-0.267,0.604-0.4c0.159-0.107,0.357-0.18,0.416-0.397c0.006-0.021,0.035-0.043,0.06-0.05
			c0.386-0.102,0.711-0.364,1.113-0.421c0.134-0.02,0.268-0.034,0.402-0.051c0.142-0.017,0.29,0,0.409-0.107
			c0.018-0.016,0.051-0.025,0.076-0.024c0.481,0.033,0.97-0.076,1.448,0.049c0.017,0.004,0.038,0.017,0.052,0.011
			c0.242-0.088,0.388,0.066,0.523,0.217c0.142,0.157,0.348,0.212,0.51,0.341c0.279,0.224,0.54,0.457,0.752,0.747
			c0.161,0.22,0.349,0.423,0.466,0.671c0.089,0.185,0.128,0.387,0.22,0.574c0.241,0.499,0.457,1.011,0.676,1.521
			c0.08,0.188,0.181,0.375,0.144,0.595c-0.007,0.036-0.003,0.077,0.03,0.097c0.27,0.166,0.202,0.465,0.266,0.706
			c0.062,0.239,0.066,0.493,0.164,0.728c0.022,0.055,0.013,0.125,0.017,0.187c0.004,0.063-0.019,0.145,0.013,0.185
			c0.236,0.306,0.066,0.654,0.108,0.979c0.057,0.432-0.069,0.869,0.032,1.306c0.035,0.152-0.008,0.322-0.012,0.484
			c-0.005,0.127-0.002,0.253,0.062,0.369c0.018,0.031,0.043,0.071,0.036,0.099c-0.089,0.36-0.03,0.734-0.103,1.094
			c-0.018,0.09-0.036,0.17-0.018,0.259c0.013,0.063,0.013,0.135-0.026,0.183c-0.118,0.142-0.09,0.316-0.073,0.465
			c0.024,0.248,0.013,0.478-0.083,0.706c-0.016,0.04-0.014,0.088-0.016,0.133c-0.018,0.362-0.036,0.72-0.147,1.076
			c-0.07,0.231-0.129,0.48-0.14,0.733c-0.01,0.205-0.09,0.4-0.173,0.587c-0.07,0.16-0.121,0.318-0.104,0.495
			c0.021,0.231-0.098,0.435-0.151,0.649c-0.113,0.451-0.225,0.901-0.313,1.358c-0.043,0.228-0.002,0.495-0.194,0.685
			c0.026,0.297-0.142,0.53-0.256,0.781c-0.011,0.024-0.022,0.051-0.021,0.077c0.005,0.306-0.167,0.557-0.252,0.835
			c-0.074,0.244-0.209,0.452-0.331,0.67c-0.063,0.111-0.136,0.211-0.237,0.289c-0.186,0.145-0.331,0.324-0.479,0.507
			c-0.227,0.277-0.463,0.552-0.724,0.797c-0.144,0.136-0.229,0.312-0.382,0.443c-0.14,0.123-0.271,0.259-0.426,0.367
			c-0.214,0.15-0.379,0.36-0.601,0.499c-0.53,0.335-1.059,0.673-1.702,0.763c-0.256,0.035-0.506,0.123-0.758,0.189
			c-0.034,0.009-0.074,0.014-0.1,0.034c-0.241,0.185-0.515,0.2-0.807,0.2c-0.486-0.001-0.97-0.079-1.455-0.048
			c-0.036,0.002-0.076,0.008-0.108-0.004c-0.315-0.111-0.647-0.142-0.975-0.198c-0.149-0.025-0.289-0.061-0.448-0.053
			s-0.311-0.102-0.474-0.143c-0.212-0.052-0.406-0.151-0.591-0.291c-0.251-0.188-0.526-0.351-0.802-0.51
			c-0.167-0.096-0.358-0.199-0.45-0.399c-0.014-0.03-0.042-0.067-0.071-0.077c-0.198-0.058-0.282-0.242-0.413-0.372
			c-0.071-0.07-0.119-0.16-0.227-0.184c-0.047-0.011-0.076-0.048-0.095-0.09c-0.141-0.32-0.345-0.607-0.465-0.942
			c-0.067-0.188-0.126-0.673-0.017-1.005c0.569-1.788-0.127-0.844-0.207-0.804c-0.104,0.106-0.295,0.307-0.485,0.271
			c-0.347-0.038-0.416-0.072-0.514-0.229c-0.126-0.202-0.015-0.131-0.124-0.34c-0.142-0.264-0.259-0.551-0.324-0.843
			C37.458,29.188,37.263,28.861,37.265,28.494z M45.857,34.152c0.256-0.063,0.539-0.089,0.817-0.166
			c0.272-0.076,0.557-0.122,0.82-0.229c0.364-0.149,0.7-0.353,1.024-0.576c0.182-0.125,0.302-0.305,0.46-0.446
			c0.288-0.258,0.546-0.544,0.829-0.805c0.146-0.133,0.19-0.329,0.312-0.465c0.25-0.281,0.423-0.599,0.551-0.945
			c0.051-0.138,0.109-0.264,0.2-0.378c0.158-0.203,0.244-0.437,0.292-0.689c0.073-0.369,0.157-0.736,0.241-1.103
			c0.086-0.381,0.27-0.739,0.265-1.146c-0.001-0.114,0.026-0.25,0.103-0.358c0.037-0.052,0.05-0.118,0.039-0.182
			c-0.021-0.131,0.019-0.251,0.068-0.367c0.054-0.126,0.077-0.258,0.08-0.394c0.002-0.127,0.018-0.253,0.065-0.371
			c0.084-0.209,0.13-0.416,0.14-0.648c0.018-0.478,0.134-0.948,0.213-1.42c0.071-0.413,0.122-0.843,0.084-1.257
			c-0.034-0.364,0.066-0.71,0.037-1.07c-0.037-0.474-0.005-0.952-0.04-1.425c-0.016-0.232-0.025-0.465-0.044-0.698
			c-0.033-0.427-0.064-0.857-0.162-1.277c-0.067-0.287-0.2-0.562-0.244-0.845c-0.065-0.417-0.283-0.77-0.395-1.167
			c-0.088-0.317-0.18-0.65-0.405-0.925c-0.132-0.159-0.194-0.382-0.307-0.556c-0.205-0.321-0.359-0.685-0.67-0.931
			c-0.059-0.206-0.245-0.247-0.41-0.312c-0.247-0.097-0.491-0.205-0.773-0.14c-0.082,0.019-0.177-0.022-0.267-0.03
			c-0.071-0.006-0.149-0.024-0.213-0.003c-0.331,0.115-0.667,0.225-0.95,0.435c-0.287,0.213-0.534,0.48-0.87,0.627
			c-0.082,0.036-0.128,0.124-0.189,0.188c-0.139,0.149-0.276,0.308-0.442,0.421c-0.11,0.075-0.183,0.154-0.249,0.266
			c-0.231,0.396-0.466,0.791-0.839,1.076c-0.067,0.052-0.119,0.12-0.136,0.197c-0.06,0.277-0.234,0.473-0.418,0.674
			c-0.149,0.165-0.358,0.297-0.424,0.515c-0.059,0.189-0.144,0.34-0.289,0.466c-0.041,0.035-0.075,0.081-0.099,0.128
			c-0.119,0.253-0.325,0.443-0.49,0.66c-0.064,0.087-0.115,0.196-0.209,0.269c-0.337,0.264-0.528,0.656-0.825,0.956
			c-0.018,0.019-0.038,0.046-0.039,0.07c-0.005,0.162-0.135,0.252-0.222,0.357c-0.074,0.09-0.134,0.185-0.202,0.277
			c-0.138,0.184-0.157,0.436-0.311,0.589c-0.178,0.179-0.264,0.399-0.388,0.603c-0.17,0.279-0.374,0.536-0.477,0.852
			c-0.011,0.033-0.029,0.071-0.057,0.088c-0.138,0.087-0.176,0.221-0.196,0.368c-0.006,0.042-0.021,0.09-0.047,0.124
			c-0.249,0.312-0.396,0.677-0.57,1.032c-0.171,0.349-0.253,0.724-0.364,1.086c-0.098,0.319-0.212,0.65-0.213,0.996
			c-0.001,0.196-0.079,0.385-0.071,0.575c0.012,0.411-0.011,0.823,0.012,1.231c0.019,0.328,0.146,0.647,0.23,0.966
			c0.038,0.137,0.111,0.273,0.134,0.425c0.188,0.4-0.135,0.814,0.117,0.962c0.235,0.075,0.698-0.088,0.887-0.023
			c0.176,0.06,0.31,0.328,0.348,0.518c0.049,0.237,0.03,0.182,0.103,0.415c0.056,0.18,0.162,0.329,0.226,0.498
			c0.103,0.269,0.193,0.535,0.438,0.718c0.068,0.053,0.104,0.146,0.168,0.209c0.186,0.182,0.367,0.373,0.573,0.53
			c0.181,0.14,0.379,0.264,0.575,0.387c0.264,0.167,0.537,0.306,0.837,0.344c0.318,0.042,0.611,0.149,0.907,0.251
			c0.16,0.056,0.318,0.073,0.477,0.037c0.22-0.05,0.434-0.118,0.661-0.027C45.719,34.182,45.78,34.158,45.857,34.152z"/>
		<path fill="#FFFFFF" d="M60.435,48.334c-0.137,0.045-0.289,0.036-0.439,0.048c-0.2,0.014-0.412,0.008-0.593,0.15
			c-0.08,0.063-0.215,0.09-0.311,0.051c-0.143-0.061-0.269-0.017-0.394,0.021c-0.178,0.051-0.351,0.067-0.531,0.027
			c-0.069-0.016-0.142-0.014-0.214,0.001c-0.245,0.046-0.484,0.001-0.719-0.068c-0.104-0.03-0.209-0.056-0.318-0.043
			c-0.19,0.022-0.375-0.027-0.561-0.044c-0.276-0.025-0.543-0.101-0.811-0.153c-0.244-0.049-0.509-0.103-0.724-0.26
			c-0.037-0.026-0.066-0.074-0.106-0.082c-0.181-0.036-0.333-0.096-0.479-0.234c-0.129-0.121-0.338-0.161-0.516-0.226
			c-0.087-0.032-0.171-0.058-0.199-0.158c-0.005-0.017-0.018-0.036-0.031-0.044c-0.416-0.239-0.555-0.559-0.919-0.851
			c-0.041-0.033-0.31-0.294-0.356-0.31c-0.437-0.135-0.504-0.481-0.896-0.68c-0.035-0.018-0.07-0.064-0.078-0.104
			c-0.062-0.284-0.262-0.492-0.405-0.728c-0.188-0.309-0.337-0.624-0.437-0.978c-0.069-0.246-0.181-0.483-0.231-0.74
			c-0.123-0.641-0.295-1.269-0.283-1.936c0.007-0.363,0.124-0.696,0.155-1.049c0.014-0.154,0.138-0.285,0.203-0.432
			c0.104-0.231,0.196-0.483,0.378-0.676c0.095-0.1,0.168-0.217,0.215-0.34c0.108-0.284,0.333-0.512,0.403-0.817
			c0.014-0.058,0.098-0.098,0.146-0.149c0.225-0.236,0.443-0.479,0.673-0.709c0.09-0.092,0.157-0.192,0.223-0.3
			c0.062-0.102,0.135-0.198,0.241-0.278c0.122-0.089,0.185-0.257,0.271-0.391c0.034-0.053,0.061-0.135,0.108-0.151
			c0.249-0.08,0.393-0.293,0.588-0.439c0.127-0.094,0.22-0.215,0.294-0.347c0.229-0.405,0.563-0.713,0.904-1.014
			c0.089-0.079,0.16-0.167,0.237-0.256c0.229-0.263,0.499-0.486,0.742-0.735c0.198-0.206,0.399-0.41,0.603-0.611
			c0.272-0.269,0.525-0.558,0.872-0.738c0.023-0.013,0.05-0.025,0.066-0.045c0.264-0.312,0.633-0.494,0.944-0.747
			c0.212-0.172,0.432-0.35,0.688-0.468c0.089-0.042,0.174-0.089,0.235-0.176c0.035-0.049,0.086-0.103,0.14-0.122
			c0.243-0.088,0.411-0.276,0.606-0.427c0.054-0.042,0.105-0.064,0.172-0.062c0.064,0.003,0.124-0.017,0.181-0.047
			c0.478-0.258,1.001-0.393,1.512-0.563c0.188-0.063,0.372-0.135,0.559-0.199c0.33-0.112,0.659-0.221,0.989-0.332
			c0.043-0.014,0.092-0.021,0.125-0.047c0.289-0.214,0.598-0.121,0.908-0.074c0.229,0.034,0.462,0.051,0.694,0.024
			c0.121-0.014,0.219,0.01,0.332,0.07c0.226,0.121,0.487,0.115,0.735,0.126c0.178,0.008,0.338,0.036,0.485,0.135
			c0.066,0.046,0.135,0.088,0.217,0.105c0.313,0.066,0.515,0.275,0.666,0.541c0.063,0.109,0.123,0.219,0.221,0.302
			c0.027,0.022,0.058,0.052,0.067,0.083c0.099,0.323,0.314,0.584,0.455,0.886c0.039,0.083,0.059,0.169,0.076,0.258
			c0.01,0.053,0.007,0.114,0.035,0.157c0.238,0.375,0.283,0.829,0.5,1.213c0.068,0.119,0.034,0.266,0.052,0.399
			c0.048,0.357,0.08,0.714,0.007,1.074c-0.023,0.111-0.044,0.229,0.02,0.341c0.017,0.03,0.023,0.072,0.019,0.106
			c-0.068,0.374-0.009,0.755-0.058,1.131c-0.014,0.099-0.023,0.194-0.021,0.295c0.004,0.195,0.04,0.392-0.035,0.586
			c-0.022,0.061,0.006,0.142,0.012,0.213c0.007,0.063,0.04,0.136,0.019,0.186c-0.143,0.314-0.019,0.656-0.106,0.976
			c-0.042,0.156-0.044,0.32-0.024,0.483c0.013,0.106,0.019,0.214-0.048,0.313c-0.029,0.042-0.048,0.101-0.049,0.152
			c-0.009,0.558-0.2,1.063-0.419,1.566c-0.1,0.229-0.187,0.467-0.271,0.705c-0.023,0.068-0.058,0.132-0.032,0.208
			c0.019,0.055,0.003,0.11-0.023,0.156c-0.224,0.386-0.36,0.819-0.65,1.168c-0.018,0.021-0.05,0.037-0.055,0.059
			c-0.129,0.534-0.557,0.884-0.811,1.337c-0.213,0.38-0.466,0.735-0.663,1.127c-0.163,0.324-0.375,0.656-0.649,0.882
			c-0.37,0.305-0.698,0.665-1.124,0.899c-0.161,0.255-0.47,0.314-0.677,0.513c-0.104,0.098-0.269,0.138-0.412,0.184
			c-0.081,0.025-0.146,0.065-0.207,0.117c-0.276,0.228-0.592,0.393-0.922,0.52c-0.218,0.084-0.408,0.215-0.615,0.318
			C60.823,48.263,60.651,48.342,60.435,48.334z M60.079,46.727c0.201-0.063,0.423-0.081,0.639-0.161
			c0.213-0.08,0.4-0.205,0.609-0.283c0.256-0.093,0.46-0.271,0.672-0.424c0.145-0.104,0.282-0.221,0.449-0.28
			c0.119-0.042,0.202-0.124,0.28-0.205c0.213-0.222,0.479-0.368,0.717-0.554c0.271-0.208,0.51-0.446,0.728-0.708
			c0.133-0.161,0.196-0.378,0.335-0.508c0.376-0.356,0.551-0.833,0.82-1.25c0.169-0.259,0.384-0.489,0.511-0.777
			c0.096-0.213,0.131-0.46,0.326-0.622c0.016-0.013,0.002-0.055,0.013-0.078c0.111-0.244,0.145-0.513,0.255-0.76
			c0.077-0.175,0.188-0.334,0.216-0.54c0.034-0.264-0.046-0.535,0.083-0.793c0.075-0.15,0.036-0.342,0.076-0.499
			c0.048-0.179,0.063-0.346,0.047-0.524c-0.005-0.043,0.014-0.088,0.021-0.131c0.033-0.222,0.07-0.438,0.045-0.667
			c-0.02-0.164,0.018-0.335,0.039-0.502c0.031-0.244,0.065-0.488,0.112-0.729c0.042-0.215,0.012-0.43,0.014-0.645
			c0.002-0.339,0.055-0.676-0.005-1.02c-0.034-0.199-0.051-0.409-0.064-0.616c-0.039-0.561-0.138-1.105-0.489-1.569
			c-0.034-0.046-0.048-0.095-0.062-0.147c-0.192-0.754-0.743-1.207-1.359-1.6c-0.069-0.044-0.166-0.075-0.258-0.052
			c-0.073,0.018-0.144-0.015-0.212-0.012c-0.287,0.012-0.568-0.1-0.855-0.053c-0.239,0.04-0.475,0.107-0.715,0.137
			c-0.228,0.028-0.419,0.166-0.643,0.19c-0.175,0.018-0.348,0.062-0.487,0.149c-0.232,0.143-0.52,0.14-0.737,0.312
			c-0.05,0.04-0.137,0.038-0.207,0.047c-0.054,0.006-0.106-0.002-0.159,0.025c-0.352,0.189-0.678,0.419-1.01,0.641
			c-0.29,0.194-0.543,0.438-0.819,0.652c-0.17,0.131-0.364,0.217-0.535,0.343c-0.14,0.103-0.218,0.264-0.372,0.337
			c-0.337,0.162-0.576,0.449-0.861,0.676c-0.259,0.208-0.522,0.412-0.679,0.72c-0.02,0.038-0.063,0.063-0.095,0.094
			c-0.264,0.275-0.649,0.432-0.785,0.826c-0.003,0.009-0.011,0.015-0.018,0.021c-0.18,0.187-0.364,0.37-0.539,0.562
			c-0.253,0.276-0.523,0.533-0.769,0.818c-0.157,0.183-0.29,0.382-0.441,0.566c-0.136,0.166-0.262,0.336-0.396,0.502
			c-0.137,0.172-0.335,0.315-0.412,0.509c-0.104,0.261-0.332,0.417-0.438,0.66c-0.084,0.192-0.287,0.308-0.345,0.499
			c-0.058,0.198-0.182,0.35-0.288,0.51c-0.099,0.148-0.159,0.307-0.199,0.468c-0.048,0.2-0.048,0.409-0.14,0.601
			c-0.026,0.058-0.01,0.129,0.017,0.185c0.039,0.078,0.035,0.156,0.03,0.237c-0.014,0.189,0.017,0.371,0.077,0.551
			c0.028,0.084,0.032,0.177,0.054,0.263c0.056,0.218,0.064,0.469,0.184,0.644c0.239,0.346,0.339,0.751,0.543,1.111
			c0.167,0.297,0.276,0.44,0.603,0.638c0.118,0.164,0.337,0.287,0.411,0.376c0.174,0.207,0.492,0.493,0.65,0.714
			c0.221,0.307,0.302,0.197,0.634,0.393c0.208,0.122,0.424,0.235,0.628,0.364c0.479,0.302,0.993,0.492,1.566,0.495
			c0.045,0.002,0.091,0.008,0.134,0.021c0.248,0.073,0.502,0.075,0.758,0.097c0.189,0.016,0.378-0.021,0.559-0.007
			c0.292,0.023,0.574,0.005,0.845-0.085C59.607,46.802,59.832,46.746,60.079,46.727z"/>
		<path fill="#FFFFFF" d="M7.805,28.13c0.199-0.07,0.386-0.094,0.576-0.103c0.237-0.011,0.449,0.117,0.684,0.119
			c0.141,0.207,0.383,0.175,0.577,0.258c0.419,0.179,0.815,0.411,1.215,0.635c0.26,0.147,0.51,0.313,0.726,0.502
			c0.281,0.245,0.606,0.417,0.896,0.641c0.095,0.074,0.164,0.167,0.238,0.256c0.185,0.224,0.461,0.34,0.646,0.565
			c0.05,0.061,0.113,0.111,0.156,0.182c0.069,0.116,0.152,0.219,0.28,0.281c0.072,0.035,0.139,0.086,0.18,0.161
			c0.058,0.106,0.133,0.189,0.256,0.222c0.056,0.015,0.082,0.062,0.114,0.107c0.077,0.109,0.156,0.218,0.292,0.267
			c0.039,0.014,0.078,0.049,0.102,0.085c0.201,0.311,0.49,0.534,0.745,0.794c0.212,0.217,0.429,0.428,0.644,0.642
			c0.111,0.111,0.262,0.162,0.366,0.27c0.313,0.323,0.655,0.608,0.996,0.897c0.23,0.196,0.471,0.4,0.609,0.685
			c0.046,0.097,0.17,0.097,0.233,0.177c0.18,0.227,0.403,0.415,0.561,0.662c0.071,0.111,0.188,0.193,0.252,0.315
			c0.141,0.271,0.443,0.438,0.49,0.768c0.161,0.151,0.233,0.356,0.333,0.545c0.071,0.136,0.104,0.277,0.129,0.432
			c0.03,0.194,0.137,0.379,0.22,0.563c0.069,0.151,0.171,0.292,0.181,0.464c0.018,0.318,0.04,0.639,0.034,0.959
			c-0.004,0.25-0.016,0.499,0,0.749c0.008,0.122-0.031,0.23-0.057,0.344c-0.106,0.489-0.357,0.908-0.631,1.317
			c-0.035,0.052-0.084,0.102-0.1,0.16c-0.066,0.244-0.277,0.367-0.448,0.515c-0.082,0.073-0.147,0.134-0.14,0.24
			c0.008,0.104-0.036,0.168-0.117,0.223c-0.077,0.051-0.146,0.126-0.163,0.21c-0.067,0.327-0.351,0.541-0.44,0.856
			c-0.023,0.082-0.112,0.137-0.168,0.206c-0.361,0.454-0.639,0.965-0.981,1.431c-0.122,0.167-0.253,0.327-0.382,0.487
			c-0.103,0.128-0.207,0.258-0.306,0.386c-0.291,0.382-0.674,0.62-1.089,0.842c-0.417,0.221-0.865,0.315-1.312,0.387
			c-0.4,0.064-0.823,0.07-1.218-0.099c-0.048-0.021-0.106-0.029-0.158-0.026c-0.312,0.021-0.569-0.107-0.818-0.274
			c-0.118-0.079-0.259-0.126-0.382-0.197c-0.337-0.19-0.676-0.38-0.833-0.779c-0.075-0.191-0.145-0.363-0.075-0.567
			c0.071-0.208,0.329-0.363,0.544-0.33c0.364,0.054,0.714,0.157,1.065,0.267c0.258,0.079,0.505,0.184,0.761,0.264
			c0.577,0.184,1.152,0.16,1.729,0.008c0.1-0.024,0.194-0.078,0.256-0.145c0.186-0.204,0.41-0.37,0.571-0.598
			c0.208-0.293,0.419-0.584,0.619-0.883c0.075-0.114,0.169-0.21,0.263-0.306c0.304-0.314,0.489-0.711,0.736-1.063
			c0.227-0.324,0.426-0.665,0.56-1.04c0.047-0.132,0.158-0.216,0.235-0.325c0.171-0.243,0.336-0.49,0.495-0.741
			c0.091-0.144,0.123-0.323,0.199-0.463c0.17-0.31,0.042-0.617,0.072-0.922c0.017-0.163-0.119-0.301-0.116-0.468
			c0.004-0.266-0.094-0.504-0.19-0.744c-0.074-0.184-0.189-0.345-0.285-0.514c-0.104-0.187-0.16-0.396-0.299-0.568
			c-0.066-0.082-0.127-0.171-0.202-0.248c-0.031-0.032-0.078-0.058-0.095-0.095c-0.166-0.39-0.54-0.588-0.799-0.888
			c-0.381-0.441-0.895-0.749-1.225-1.237c-0.048-0.07-0.127-0.1-0.191-0.147c-0.065-0.047-0.156-0.078-0.179-0.158
			c-0.038-0.134-0.137-0.191-0.251-0.221c-0.11-0.029-0.157-0.12-0.214-0.194c-0.157-0.209-0.317-0.411-0.559-0.531
			c-0.08-0.04-0.089-0.131-0.142-0.192c-0.146-0.169-0.34-0.258-0.525-0.362c-0.067-0.037-0.128-0.064-0.114-0.157
			c0.008-0.049-0.025-0.094-0.062-0.114c-0.194-0.111-0.284-0.335-0.453-0.452c-0.209-0.146-0.322-0.389-0.556-0.498
			c-0.031-0.015-0.062-0.041-0.083-0.068c-0.389-0.513-0.879-0.91-1.403-1.279c-0.299-0.209-0.586-0.438-0.887-0.649
			C9.927,30.781,9.86,30.74,9.777,30.73c-0.065-0.007-0.114-0.04-0.165-0.083c-0.214-0.179-0.448-0.318-0.733-0.355
			c-0.067-0.009-0.129-0.061-0.192-0.094c-0.039-0.021-0.093-0.075-0.113-0.063c-0.186,0.1-0.339-0.053-0.506-0.053
			c-0.146,0-0.288-0.005-0.441,0.07c-0.506,0.248-0.909,0.618-1.309,1c-0.409,0.391-0.66,0.888-0.915,1.381
			c-0.044,0.086-0.062,0.188-0.081,0.284c-0.012,0.054-0.011,0.116-0.065,0.139c-0.152,0.063-0.191,0.194-0.242,0.334
			c-0.071,0.198-0.203,0.377-0.154,0.606c0.003,0.017-0.001,0.037-0.009,0.052c-0.221,0.464-0.119,0.964-0.168,1.448
			c-0.022,0.223-0.004,0.422,0.087,0.624c0.029,0.063,0.04,0.14,0.038,0.211c-0.01,0.416,0.141,0.807,0.176,1.22
			c0.028,0.335,0.161,0.668,0.328,0.967c0.174,0.311,0.271,0.645,0.369,0.979c0.071,0.244,0.163,0.474,0.313,0.677
			c0.065,0.09,0.111,0.182,0.132,0.292c0.055,0.295,0.177,0.564,0.342,0.813c0.096,0.146,0.154,0.319,0.185,0.471
			c0.064,0.334,0.241,0.618,0.352,0.929c0.196,0.553,0.428,1.095,0.731,1.604c0.16,0.269,0.363,0.505,0.52,0.774
			c0.139,0.24,0.275,0.483,0.431,0.713c0.18,0.27,0.325,0.563,0.513,0.82c0.14,0.189,0.247,0.414,0.441,0.566
			c0.056,0.043,0.1,0.104,0.137,0.166c0.133,0.216,0.271,0.426,0.536,0.504c0.087,0.026,0.115,0.111,0.152,0.182
			c0.076,0.145,0.086,0.31,0.14,0.463c0.05,0.143-0.094,0.322-0.271,0.339c-0.449,0.043-0.902,0.075-1.269-0.277
			c-0.039-0.038-0.081-0.068-0.14-0.07c-0.057-0.003-0.12-0.021-0.135-0.074c-0.044-0.168-0.196-0.232-0.309-0.328
			c-0.3-0.253-0.579-0.521-0.748-0.882c-0.004-0.009-0.008-0.018-0.015-0.023c-0.388-0.367-0.535-0.888-0.835-1.309
			c-0.197-0.276-0.362-0.572-0.538-0.86c-0.16-0.264-0.282-0.554-0.402-0.839c-0.3-0.71-0.577-1.431-0.886-2.138
			c-0.189-0.435-0.421-0.851-0.569-1.304c-0.248-0.25-0.213-0.642-0.451-0.896c-0.012-0.013-0.018-0.032-0.021-0.05
			c-0.182-0.732-0.511-1.418-0.682-2.152c-0.103-0.444-0.196-0.897-0.15-1.362c0.015-0.136-0.019-0.27-0.045-0.402
			c-0.045-0.223-0.043-0.445-0.025-0.671c0.022-0.31,0.024-0.62,0.038-0.931c0.008-0.153,0.025-0.308,0.08-0.45
			c0.147-0.378,0.261-0.767,0.449-1.133c0.2-0.389,0.377-0.791,0.616-1.159c0.102-0.155,0.193-0.317,0.328-0.451
			c0.068-0.069,0.118-0.16,0.164-0.247c0.06-0.112,0.112-0.225,0.213-0.308c0.02-0.017,0.035-0.042,0.044-0.067
			c0.096-0.269,0.266-0.478,0.499-0.638c0.007-0.005,0.015-0.012,0.018-0.02c0.122-0.338,0.45-0.459,0.698-0.664
			c0.021-0.016,0.058-0.022,0.067-0.042c0.156-0.316,0.497-0.382,0.755-0.558C7.091,28.4,7.1,28.396,7.106,28.391
			C7.313,28.215,7.549,28.119,7.805,28.13z"/>
	</g>
</g>
</svg>
