<?xml version="1.0" encoding="utf-8"?>
<!-- Generator: Adobe Illustrator 16.0.0, SVG Export Plug-In . SVG Version: 6.00 Build 0)  -->
<!DOCTYPE svg PUBLIC "-//W3C//DTD SVG 1.1//EN" "http://www.w3.org/Graphics/SVG/1.1/DTD/svg11.dtd">
<svg version="1.1" id="Layer_1" xmlns="http://www.w3.org/2000/svg" xmlns:xlink="http://www.w3.org/1999/xlink" x="0px" y="0px"
	 width="256px" height="256px" viewBox="0 0 256 256" enable-background="new 0 0 256 256" xml:space="preserve">
<g>
	<path fill="#7D581E" d="M255.658,126.503c-0.035-0.367-0.181-0.788-0.066-1.098c0.368-1.002,0.181-2.015,0.157-3.024
		c-0.018-0.517,0.029-1.013,0.09-1.522c0.235-1.935-0.071-3.897,0.252-5.829c0.031-0.172-0.005-0.392-0.09-0.544
		c-0.321-0.58-0.22-1.192-0.111-1.765c0.354-1.851,0.185-3.697-0.065-5.54c-0.093-0.69,0.072-1.445-0.269-2.063
		c-1.091-1.987-1.326-4.329-2.525-6.27c-0.136-0.22-0.129-0.538-0.183-0.81c-0.088-0.456-0.189-0.902-0.383-1.334
		c-0.711-1.558-1.797-2.915-2.295-4.583c-0.048-0.163-0.2-0.317-0.333-0.434c-0.496-0.431-0.798-0.995-1.112-1.562
		c-0.764-1.378-1.768-2.463-3.335-2.812c-0.409-0.088-0.754-0.31-1.086-0.546c-0.734-0.522-1.533-0.667-2.415-0.715
		c-1.241-0.068-2.543-0.042-3.67-0.672c-0.56-0.313-1.052-0.438-1.654-0.371c-1.154,0.133-2.319,0.039-3.457-0.146
		c-1.55-0.251-3.086-0.739-4.517,0.355c-0.171,0.13-0.417,0.166-0.628,0.237c-1.637,0.561-3.279,1.113-4.914,1.68
		c-0.934,0.325-1.851,0.697-2.78,1.012c-2.537,0.862-5.138,1.542-7.51,2.861c-0.282,0.156-0.58,0.253-0.902,0.235
		c-0.33-0.017-0.588,0.102-0.853,0.315c-0.966,0.774-1.801,1.738-3.001,2.183c-0.272,0.103-0.524,0.372-0.699,0.629
		c-0.299,0.444-0.724,0.688-1.165,0.897c-0.006,0.002-0.011,0.003-0.015,0.007c0.037-0.099,0.124-0.199,0.166-0.302
		c0.928-2.276,0.936-4.742,1.45-7.104c0.062-0.281,0.054-0.594-0.131-0.847c-0.26-0.353-0.189-0.737-0.176-1.128
		c0.045-1.365,0.106-2.741,0.243-4.087c0.305-2.966,0.47-5.888-0.397-8.788c-0.081-0.268-0.082-0.597-0.002-0.863
		c0.184-0.623-0.024-1.171-0.262-1.702c-0.368-0.813-0.63-1.661-0.664-2.538c-0.072-1.796-1.27-3.355-1.052-5.216
		c0.033-0.292-0.264-0.616-0.396-0.931c-0.153-0.356-0.434-0.731-0.412-1.083c0.068-1.127-0.439-2.082-0.784-3.087
		c-0.173-0.512-0.285-1.028-0.378-1.559c-0.358-2.021-1.288-3.891-1.556-5.939c-0.022-0.181-0.128-0.392-0.263-0.516
		c-0.513-0.473-0.601-1.122-0.665-1.736c-0.211-1.976-0.96-3.772-1.793-5.539c-0.312-0.661-0.38-1.474-0.923-1.979
		c-1.75-1.629-2.72-3.905-4.571-5.452c-0.209-0.175-0.301-0.498-0.441-0.752c-0.235-0.428-0.478-0.843-0.814-1.209
		c-1.22-1.328-2.768-2.327-3.806-3.835c-0.102-0.147-0.303-0.252-0.482-0.321c-0.646-0.268-1.135-0.734-1.64-1.199
		c-1.215-1.128-2.598-1.879-4.327-1.703c-0.453,0.046-0.878-0.061-1.299-0.187c-0.92-0.276-1.796-0.156-2.723,0.091
		c-1.306,0.348-2.647,0.809-4.011,0.553c-0.679-0.126-1.229-0.085-1.826,0.184c-1.159,0.518-2.394,0.814-3.631,1.012
		c-1.684,0.266-3.427,0.292-4.569,1.869c-0.137,0.19-0.376,0.305-0.573,0.45c-1.523,1.11-3.052,2.213-4.568,3.333
		c-0.863,0.638-1.695,1.316-2.565,1.947c-2.359,1.714-4.842,3.268-6.888,5.386c-0.244,0.251-0.521,0.448-0.859,0.54
		c-0.347,0.093-0.576,0.297-0.786,0.602c-0.758,1.101-1.322,2.348-2.426,3.199c-0.254,0.195-0.429,0.547-0.529,0.865
		c-0.171,0.544-0.535,0.93-0.93,1.291c-1.128,1.026-1.969,2.301-2.786,3.542c-1.196,1.82-2.801,3.365-3.655,5.412
		c-0.054,0.13-0.169,0.239-0.271,0.344c-1.497,1.495-2.326,3.406-3.296,5.24c-0.726,1.376-1.427,2.759-2.121,4.146
		c-0.844,1.685-1.867,3.285-2.622,5.015c-0.255,0.581-0.48,1.161-0.81,1.711c-0.356,0.588-0.704,1.182-1.037,1.781
		c0.081-2.105-0.388-4.25-0.478-6.37c-0.01-0.29-0.099-0.602-0.336-0.831c-0.333-0.32-0.362-0.715-0.446-1.109
		c-0.299-1.374-0.586-2.762-0.789-4.13c-0.456-3.014-1.028-5.965-2.575-8.759c-0.142-0.258-0.225-0.59-0.218-0.866
		c0.019-0.647-0.313-1.17-0.67-1.67c-0.552-0.768-1.01-1.585-1.264-2.458c-0.52-1.792-2.042-3.198-2.298-5.092
		c-0.042-0.295-0.402-0.582-0.607-0.88c-0.236-0.339-0.595-0.677-0.662-1.031c-0.214-1.142-0.937-2.031-1.513-2.994
		c-0.292-0.492-0.526-0.994-0.747-1.512c-0.847-1.98-2.193-3.733-2.958-5.751c-0.065-0.179-0.22-0.374-0.379-0.481
		c-0.603-0.409-0.85-1.049-1.062-1.653c-0.694-1.956-1.853-3.657-3.083-5.318c-0.46-0.621-0.726-1.431-1.368-1.865
		c-2.066-1.403-3.553-3.556-5.689-4.863c-0.244-0.147-0.41-0.456-0.609-0.696c-0.329-0.398-0.661-0.78-1.072-1.106
		c-1.487-1.169-3.202-1.966-4.562-3.341c-0.133-0.136-0.351-0.213-0.536-0.262c-0.678-0.182-1.259-0.583-1.852-0.985
		c-1.434-0.97-2.928-1.541-4.526-1.136c-0.416,0.107-0.843,0.057-1.274-0.016c-0.942-0.156-1.739,0.08-2.558,0.451
		c-1.149,0.521-2.306,1.159-3.663,1.083c-0.67-0.039-1.183,0.075-1.683,0.425c-0.965,0.674-2.061,1.133-3.186,1.493
		c-1.527,0.489-3.172,0.744-3.859,2.476c-0.082,0.208-0.282,0.356-0.433,0.526c-1.164,1.314-2.337,2.623-3.494,3.945
		c-0.658,0.754-1.276,1.546-1.942,2.292c-1.807,2.03-3.771,3.916-5.178,6.309c-0.168,0.284-0.381,0.519-0.679,0.655
		c-0.307,0.14-0.473,0.375-0.595,0.706c-0.443,1.205-0.666,2.529-1.5,3.529c-0.19,0.227-0.269,0.604-0.283,0.938
		c-0.027,0.568-0.276,1.003-0.559,1.417c-0.811,1.178-1.289,2.566-1.755,3.918c-0.677,1.982-1.813,3.746-2.109,5.91
		c-0.018,0.139-0.1,0.261-0.172,0.378c-1.044,1.698-1.355,3.724-1.813,5.69c-0.342,1.475-0.662,2.953-0.972,4.437
		c-0.379,1.8-0.948,3.54-1.232,5.375c-0.096,0.613-0.167,1.227-0.34,1.821c-0.676,2.292-1.301,4.599-1.172,7.14
		c0.041,0.823-0.029,1.644-0.328,2.405c-0.463,1.182-0.508,2.574-1.395,3.552c-0.168,0.186-0.049,0.657-0.056,0.997
		c-0.015,0.865,0.186,1.846-0.103,2.571c-0.254,0.647-0.311,1.29-0.299,1.942c0.014,0.691-0.003,1.347-0.148,2.007
		c-0.366,1.683-0.661,3.39-0.992,5.087c-0.07,0.37-0.335,0.769-0.232,1.088c0.556,1.681,0.191,3.323,0.515,4.993
		c0.02,0.103,0.03,0.206,0.043,0.308c-0.756-0.51-1.509-1.024-2.172-1.655c-0.117-0.111-0.307-0.203-0.468-0.219
		c-0.616-0.066-1.04-0.464-1.426-0.85c-1.253-1.239-2.773-2.09-4.331-2.875c-0.583-0.296-1.085-0.818-1.738-0.893
		c-2.108-0.239-4.045-1.302-6.173-1.435c-0.242-0.015-0.484-0.19-0.725-0.295c-0.4-0.174-0.796-0.334-1.233-0.417
		c-1.576-0.297-3.191-0.207-4.744-0.718c-0.153-0.049-0.351-0.021-0.511,0.019c-0.59,0.139-1.185,0.067-1.79,0
		c-1.461-0.163-2.824,0.012-3.906,0.992c-0.283,0.253-0.63,0.392-0.989,0.516c-0.784,0.269-1.312,0.786-1.808,1.417
		c-0.693,0.883-1.352,1.864-2.425,2.368c-0.533,0.251-0.885,0.551-1.143,1.031c-0.497,0.931-1.172,1.743-1.91,2.494
		c-0.996,1.017-2.171,1.9-2.065,3.54c0.014,0.196-0.086,0.393-0.14,0.591c-0.415,1.511-0.839,3.021-1.245,4.536
		c-0.232,0.865-0.418,1.74-0.657,2.6c-0.65,2.337-1.472,4.629-1.679,7.086c-0.024,0.292-0.103,0.562-0.282,0.794
		c-0.187,0.235-0.228,0.488-0.201,0.799c0.101,1.125,0.416,2.254,0.14,3.381c-0.064,0.257,0.015,0.586,0.123,0.85
		c0.19,0.458,0.157,0.901,0.091,1.341c-0.191,1.26-0.051,2.544,0.087,3.797c0.204,1.832-0.024,3.678,0.542,5.494
		c0.037,0.116,0.018,0.247,0.005,0.371c-0.18,1.759,0.322,3.475,0.692,5.203c0.278,1.295,0.574,2.583,0.877,3.873
		c0.371,1.563,0.569,3.159,1.023,4.714c0.154,0.521,0.324,1.028,0.409,1.566c0.319,2.073,0.683,4.133,1.716,6.069
		c0.333,0.627,0.58,1.297,0.631,2.017c0.076,1.118,0.552,2.224,0.228,3.358c-0.062,0.217,0.201,0.533,0.324,0.804
		c0.305,0.683,0.819,1.365,0.863,2.052c0.04,0.614,0.234,1.141,0.482,1.643c0.266,0.535,0.49,1.056,0.623,1.633
		c0.335,1.468,0.735,2.928,1.103,4.39c0.081,0.319,0.022,0.742,0.22,0.945c1.046,1.084,1.367,2.521,2.23,3.69
		c0.37,0.505,0.648,1.094,0.806,1.714c0.301,1.186,1.07,2.203,1.73,3.216c0.414,0.634,0.618,1.445,1.2,1.911
		c1.335,1.066,2.366,2.403,3.811,3.408c2.648,1.842,5.617,2.912,8.511,4.184c1.161,0.512,2.405,0.737,3.577,1.15
		c1.119,0.396,2.229,0.658,3.362,0.833c-0.894,2.076-1.832,4.13-2.328,6.366c-0.387,1.752-0.968,3.46-1.458,5.19
		c-0.074,0.258-0.155,0.517-0.183,0.779c-0.161,1.542,0.048,3.087-0.097,4.631c-0.191,2.086,0.956,3.817,1.659,5.65
		c0.625,1.627,1.772,3.036,2.107,4.808c0.035,0.19,0.109,0.397,0.289,0.475c0.408,0.161,0.502,0.543,0.662,0.883
		c0.966,2.051,2.467,3.645,4.246,4.997c0.149,0.114,0.277,0.327,0.477,0.198c0.753-0.495,0.897,0.126,1.115,0.605
		c0.367,0.797,0.608,1.69,1.111,2.392c0.997,1.384,2.196,2.617,3.149,4.049c0.858,1.29,2.314,1.995,3.228,3.216
		c0.698,0.937,1.563,1.644,2.417,2.4c1.213,1.079,2.482,2.098,3.623,3.265c0.874,0.893,1.715,1.828,2.632,2.665
		c0.975,0.884,2.188,1.502,3.231,2.325c0.661,0.523,1.422,0.854,2.089,1.368c1.564,1.219,3.263,2.235,5.171,2.842
		c0.616,0.199,1.26,0.243,1.884,0.417c1.166,0.32,2.353,0.625,3.551,0.763c2.406,0.278,4.824,0.06,7.236,0.022
		c0.425-0.005,0.846-0.057,1.191-0.327c0.452-0.354,0.964-0.411,1.507-0.406c0.855,0.013,1.64-0.178,2.355-0.707
		c1.088-0.801,2.606-0.796,3.559-1.883c0.081-0.091,0.289-0.065,0.437-0.1c1.366-0.316,2.544-1.19,3.962-1.36
		c0.136-0.015,0.296-0.123,0.382-0.237c0.424-0.556,1.068-0.714,1.669-0.913c0.551-0.181,1.044-0.416,1.504-0.774
		c1.238-0.965,2.626-1.691,4.083-2.217c1.066-0.378,2.047-1.104,3.267-1.003c0.106,0.009,0.227-0.037,0.325-0.089
		c0.894-0.492,1.873-0.55,2.859-0.646c0.636-0.057,1.284-0.02,1.914-0.237c1.803-0.619,3.691-0.883,5.546-1.283
		c0.434-0.093,0.88-0.025,1.329-0.213c1.014-0.424,2.098-0.716,3.194-0.556c0.865,0.124,1.719,0.05,2.465-0.231
		c0.991-0.376,1.993-0.392,3-0.496c0.493-0.051,0.984-0.097,1.45-0.29c0.134-0.058,0.311-0.143,0.424-0.099
		c1.214,0.478,2.383-0.441,3.585-0.094c1.541-0.455,3.143-0.146,4.718-0.384c1.552-0.234,3.156-0.101,4.67-0.133
		c2.031-0.297,3.92,0.144,5.783,0.662c2.365,0.659,4.794,1.104,7.062,2.084c0.555,0.241,1.079,0.63,1.654,0.738
		c1.601,0.305,2.946,1.21,4.402,1.826c1.632,0.692,3.196,1.581,4.797,2.32c1.923,0.884,3.782,1.89,5.701,2.767
		c1.265,0.579,2.542,1.209,3.986,1.229c0.197,0.003,0.384,0.024,0.521,0.182c0.311,0.353,0.765,0.413,1.155,0.414
		c1.492,0.011,2.925,0.497,4.399,0.558c1.054,0.046,2.161,0.296,3.165-0.094c0.811-0.321,1.622-0.445,2.448-0.4
		c0.773,0.043,1.504-0.115,2.25-0.218c0.589-0.079,1.017-0.479,1.545-0.68c1.189-0.453,2.324-1.049,3.151-2.104
		c0.302-0.382,0.509-0.867,0.997-1.077c0.673-0.29,1.019-0.879,1.349-1.487c0.542-0.988,0.935-2.066,1.755-2.889
		c0.236-0.242,0.38-0.572,0.575-0.842c0.821-1.128,1.142-2.561,2.15-3.576c0.146-0.144,0.143-0.425,0.235-0.637
		c0.439-0.992,0.686-2.047,1.37-2.972c0.747-1.016,1.307-2.232,1.122-3.612c-0.098-0.729-0.535-1.421-0.177-2.207
		c0.11-0.241-0.161-0.488-0.315-0.709c-0.18-0.267-0.243-0.545-0.127-0.866c0.617-1.729,1.201-3.46,1.053-5.348
		c-0.018-0.257,0.069-0.53,0.13-0.79c0.477-1.943,0.769-3.907,0.668-5.91c-0.063-1.259,0.225-2.524-0.12-3.772
		c-0.155-0.561-0.104-1.128-0.109-1.703c-0.021-1.793,0.035-3.592-0.404-5.37c-0.31-1.264-0.655-2.527-0.887-3.797
		c-0.364-1.986-1.376-3.724-2.016-5.595c0.862,0.199,1.74,0.279,2.63,0.111c0.364-0.071,0.716-0.08,1.068,0.003
		c0.899,0.213,1.761,0.13,2.642-0.13c0.625-0.185,1.245-0.402,1.958-0.096c0.479,0.208,1.152,0.079,1.552-0.249
		c0.888-0.725,1.946-0.69,2.945-0.756c0.751-0.054,1.51-0.002,2.183-0.233c1.082,0.047,1.934-0.356,2.84-0.819
		c1.025-0.525,1.973-1.197,3.06-1.623c1.64-0.641,3.2-1.488,4.566-2.654c0.31-0.263,0.629-0.47,1.031-0.602
		c0.712-0.231,1.535-0.43,2.046-0.932c1.031-1.014,2.566-1.317,3.36-2.624c2.115-1.192,3.74-3.046,5.568-4.605
		c1.359-1.155,2.41-2.863,3.21-4.528c0.97-2.015,2.222-3.84,3.269-5.792c1.248-2.329,3.375-4.118,3.997-6.869
		c0.026-0.117,0.184-0.195,0.268-0.304c1.436-1.789,2.111-4.018,3.207-6.004c0.129-0.237,0.208-0.521,0.113-0.807
		c-0.131-0.393,0.04-0.723,0.154-1.07c0.413-1.225,0.841-2.452,1.328-3.629c1.076-2.593,2.018-5.191,2.044-8.071
		c0.004-0.264,0.093-0.562,0.234-0.782c0.331-0.509,0.301-1.064,0.235-1.613c-0.104-0.846-0.101-1.69,0.107-2.492
		c0.426-1.647-0.202-3.409,0.497-5.029C255.86,127.209,255.688,126.829,255.658,126.503z"/>
	<g>
		<path fill="#FFFFFF" d="M138.122,224.498c-1.279,0.027-2.631-0.082-3.942,0.113c-1.327,0.199-2.678-0.058-3.98,0.324
			c-1.017-0.29-2.002,0.482-3.026,0.081c-0.093-0.036-0.244,0.037-0.358,0.084c-0.39,0.163-0.808,0.199-1.226,0.245
			c-0.847,0.089-1.693,0.104-2.532,0.416c-0.63,0.238-1.351,0.301-2.077,0.194c-0.927-0.133-1.842,0.115-2.698,0.471
			c-0.381,0.154-0.756,0.102-1.125,0.178c-1.563,0.333-3.159,0.557-4.68,1.078c-0.532,0.18-1.078,0.15-1.616,0.199
			c-0.833,0.077-1.659,0.128-2.412,0.542c-0.083,0.044-0.188,0.079-0.275,0.074c-1.03-0.084-1.86,0.522-2.76,0.846
			c-1.229,0.438-2.402,1.047-3.446,1.852c-0.39,0.304-0.805,0.501-1.271,0.654c-0.507,0.164-1.051,0.297-1.409,0.762
			c-0.074,0.097-0.208,0.186-0.322,0.199c-1.198,0.148-2.193,0.873-3.347,1.144c-0.124,0.026-0.299,0.005-0.367,0.082
			c-0.806,0.91-2.086,0.906-3.007,1.578c-0.603,0.441-1.266,0.601-1.988,0.595c-0.458-0.005-0.891,0.041-1.272,0.34
			c-0.29,0.226-0.647,0.271-1.006,0.274c-2.037,0.033-4.078,0.218-6.108-0.011c-1.011-0.116-2.013-0.369-2.996-0.638
			c-0.528-0.146-1.072-0.184-1.592-0.346c-1.609-0.507-3.043-1.356-4.362-2.373c-0.562-0.433-1.205-0.708-1.763-1.146
			c-0.878-0.688-1.903-1.2-2.724-1.942c-0.774-0.7-1.484-1.483-2.222-2.229c-0.963-0.978-2.031-1.827-3.055-2.729
			c-0.72-0.633-1.449-1.223-2.039-2.005c-0.769-1.021-1.998-1.612-2.721-2.687c-0.803-1.197-1.814-2.229-2.655-3.39
			c-0.425-0.583-0.22-0.342-0.529-1.011c-0.184-0.398-0.442-1.464-1.081-1.054c-0.168,0.11-0.545-0.51-0.67-0.604
			c-1.5-1.127-2.764-2.461-3.579-4.178c-0.135-0.286-0.215-0.601-0.558-0.741c-0.152-0.061-0.214-0.231-0.244-0.395
			c-0.281-1.48-1.249-2.654-1.775-4.023c-0.59-1.531-1.558-2.979-1.394-4.721c0.121-1.293-0.052-2.588,0.084-3.874
			c0.024-0.22,0.092-0.439,0.154-0.655c0.415-1.445,0.908-2.876,1.236-4.344c0.428-1.906,1.242-3.654,2.011-5.424
			c0.308-0.71,0.831-1.292,1.239-1.938c0.479-0.758,0.919-1.542,1.431-2.278c0.167-0.241,0.308-0.486,0.551-0.65
			c0.453-0.304,0.878-0.645,1.243-1.055c0.263-0.301,0.644-0.456,1.009-0.528c0.911-0.181,1.801-0.389,2.588-0.909
			c0.076-0.052,0.194-0.094,0.274-0.073c1.232,0.31,2.371-0.396,3.596-0.323c0.719,0.042,1.392-0.391,2.092-0.586
			c0.457-0.122,0.89-0.315,1.377-0.341c0.253-0.013,0.517-0.075,0.744-0.18c1.018-0.482,2.175-0.457,3.204-0.905
			c0.251-0.111,0.569-0.074,0.855-0.089c1.271-0.063,2.498-0.101,3.612-0.969c0.576-0.449,1.41-0.682,2.155-0.936
			c0.438-0.151,0.828-0.34,1.082-0.751c0.083-0.129,0.206-0.263,0.34-0.332c1.752-0.906,3.091-2.336,4.513-3.645
			c0.885-0.817,1.582-1.83,2.36-2.761c0.674-0.807,1.373-1.59,2.021-2.419c0.221-0.283,0.473-0.577,0.55-0.892
			c0.265-1.065,1.067-1.898,1.232-2.995c0.025-0.165,0.103-0.3,0.223-0.414c0.465-0.431,0.531-0.999,0.527-1.579
			c-0.003-0.234,0.021-0.448,0.138-0.646c0.491-0.824,0.821-1.727,1.03-2.644c0.226-0.987,0.5-1.887,1.143-2.724
			c0.512-0.665,0.775-1.543,0.675-2.443c-0.042-0.377,0.047-0.687,0.288-0.979c0.117-0.143,0.228-0.33,0.252-0.509
			c0.165-1.24,0.768-2.345,1.177-3.496c0.389-1.09,0.902-2.15,1.301-3.256c0.109-0.298,0.213-0.561,0.213-0.896
			c0-0.539,0.511-0.855,0.695-1.343c0.444-1.189,1.226-2.185,1.985-3.185c0.235-0.313,0.394-0.664,0.478-1.046
			c0.042-0.186,0.029-0.399,0.178-0.538c0.752-0.692,0.833-1.711,1.218-2.572c0.271-0.607,0.643-1.141,1.113-1.493
			c0.597-0.453,0.855-1.092,1.221-1.656c0.381-0.582,0.672-1.156,1.351-1.499c0.365-0.182,0.753-0.47,0.99-0.882
			c0.311-0.546,0.938-0.757,1.356-1.212c0.579-0.629,1.299-1.107,1.836-1.813c0.314-0.414,0.965-0.593,1.494-0.814
			c0.834-0.351,1.577-0.848,2.252-1.425c0.338-0.289,0.755-0.421,1.104-0.524c0.667-0.192,1.287-0.574,2.002-0.597
			c0.606-0.019,1.057-0.43,1.592-0.632c0.972-0.365,1.95-0.55,2.978-0.407c1.105,0.153,2.234,0.073,3.329,0.348
			c0.058,0.014,0.13,0.035,0.186,0.019c1.264-0.323,2.368,0.276,3.318,0.862c1.703,1.053,3.194,2.352,4.174,4.236
			c0.712,1.362,1.192,2.81,1.866,4.178c0.59,1.196,1.129,2.395,1.954,3.451c0.263,0.335,0.534,0.736,0.471,1.233
			c-0.03,0.239,0.157,0.411,0.267,0.606c0.861,1.534,1.624,3.124,2.697,4.533c0.306,0.405,0.584,0.822,0.764,1.315
			c0.307,0.855,1.014,1.458,1.495,2.207c0.178,0.271,0.367,0.53,0.39,0.866c0.021,0.234,0.098,0.461,0.262,0.61
			c0.674,0.611,0.934,1.516,1.559,2.158c0.383,0.394,0.603,0.896,0.868,1.371c0.604,1.091,1.224,2.171,1.813,3.271
			c0.215,0.4,0.521,0.784,0.812,1.044c1.072,0.945,1.664,2.259,2.67,3.24c0.312,0.305,0.528,0.72,0.749,1.107
			c0.763,1.338,1.908,2.271,3.195,3.061c0.188,0.118,0.406,0.23,0.537,0.401c0.73,0.965,1.824,1.477,2.746,2.196
			c0.957,0.746,2.16,1.063,3.265,1.556c1.827,0.82,3.836,1.102,5.681,1.909c0.843,0.368,1.779,0.618,2.691,0.692
			c0.967,0.084,1.772,0.518,2.603,0.882c1.017,0.443,2.096,0.716,3.091,1.226c1.044,0.54,2.182,0.891,3.07,1.705
			c0.191,0.178,0.411,0.299,0.653,0.397c0.268,0.105,0.585,0.196,0.761,0.402c0.643,0.751,1.579,1.058,2.324,1.647
			c0.701,0.556,1.476,1.021,1.955,1.818c0.097,0.161,0.214,0.353,0.374,0.43c0.937,0.456,1.36,1.411,2.063,2.089
			c0.374,0.36,0.555,0.877,0.77,1.313c0.499,1.027,1.593,1.655,1.814,2.847c0.188,1.01,0.595,1.929,1.152,2.79
			c0.114,0.172,0.088,0.434,0.137,0.653c0.161,0.721,0.354,1.432,0.828,2.028c0.099,0.124,0.215,0.263,0.244,0.412
			c0.432,2.005,1.632,3.736,2.007,5.779c0.195,1.06,0.487,2.118,0.749,3.174c0.368,1.488,0.323,2.992,0.336,4.493
			c0.005,0.485-0.036,0.956,0.093,1.426c0.29,1.047,0.041,2.104,0.095,3.158c0.086,1.675-0.162,3.32-0.563,4.943
			c-0.057,0.217-0.129,0.443-0.113,0.66c0.124,1.58,0.166,2.743-0.357,4.188c-0.098,0.271-0.21,0.731-0.226,1.002
			c-0.013,0.278,0.135,0.693,0.045,0.897c-0.304,0.657,0.081,0.943,0.162,1.553c0.159,1.154-0.317,2.173-0.949,3.021
			c-0.577,0.776-0.787,1.658-1.158,2.49c-0.079,0.176-0.076,0.413-0.198,0.533c-0.853,0.848-1.125,2.049-1.818,2.992
			c-0.166,0.226-0.285,0.503-0.487,0.701c-0.691,0.692-1.023,1.594-1.484,2.424c-0.278,0.506-0.571,1.001-1.137,1.242
			c-0.412,0.179-0.59,0.583-0.842,0.904c-0.7,0.883-1.659,1.384-2.663,1.763c-0.447,0.169-0.811,0.502-1.305,0.57
			c-0.63,0.084-1.244,0.216-1.9,0.183c-0.696-0.035-1.381,0.069-2.067,0.337c-0.843,0.327-1.779,0.119-2.671,0.083
			c-1.246-0.051-2.452-0.453-3.715-0.467c-0.328-0.001-0.713-0.049-0.975-0.345c-0.113-0.134-0.273-0.148-0.438-0.149
			c-1.219-0.014-2.296-0.543-3.362-1.024c-1.618-0.735-3.188-1.572-4.813-2.313c-1.35-0.615-2.666-1.358-4.044-1.936
			c-1.23-0.515-2.363-1.273-3.716-1.525c-0.485-0.089-0.925-0.416-1.394-0.615c-1.913-0.818-3.967-1.189-5.959-1.737
			C141.431,224.613,139.835,224.247,138.122,224.498z M51.293,198.652c0.027,0.26-0.092,2.024-0.053,2.181
			c0.548,2.234,1.982,3.8,4.341,6.995c2.833,3.84,5.674,5.674,6.336,6.383c0.909,0.967,1.64,2.141,2.503,3.185
			c0.1,0.121,0.213,0.255,0.349,0.318c0.961,0.449,1.585,1.281,2.336,1.977c0.52,0.48,0.887,1.104,1.391,1.557
			c1.183,1.062,2.155,2.362,3.546,3.189c1.133,0.671,1.913,1.768,3.017,2.489c0.401,0.258,0.832,0.464,1.229,0.732
			c1.682,1.149,3.384,2.293,5.564,2.222c0.153-0.005,0.317,0.049,0.46,0.11c1.262,0.548,2.616,0.445,3.876,0.235
			c1.309-0.22,2.64-0.398,3.937-0.717c0.217-0.054,0.452-0.072,0.647-0.17c1.681-0.828,3.349-1.686,5.161-2.21
			c0.06-0.015,0.109-0.066,0.167-0.094c1.66-0.734,3.325-1.455,4.977-2.207c1.188-0.541,2.372-1.094,3.532-1.689
			c0.559-0.289,0.998-0.811,1.665-0.897c0.665-0.087,1.431-0.027,1.921-0.491c0.631-0.599,1.307,0.03,1.904-0.256
			c0.059-0.025,0.132-0.012,0.188-0.041c0.948-0.477,1.996-0.561,3.014-0.728c1.234-0.199,2.439-0.505,3.655-0.771
			c0.778-0.168,1.528-0.432,2.308-0.6c0.485-0.104,0.945,0.139,1.418-0.033c1.032-0.372,2.139-0.361,3.202-0.585
			c0.5-0.104,1-0.339,1.498-0.332c1.115,0.021,2.216,0.021,3.307-0.28c0.56-0.153,1.141-0.162,1.713-0.004
			c0.345,0.094,0.685,0.064,1.045-0.006c0.994-0.187,2.012-0.282,3.005-0.475c0.871-0.168,1.717,0.236,2.586,0.034
			c1.87-0.433,3.748-0.168,5.624,0.003c1.186,0.104,2.282,0.594,3.447,0.769c0.688,0.104,1.396,0.087,2.057,0.377
			c0.378,0.163,0.748,0.345,1.136,0.497c1.332,0.51,2.773,0.649,4.06,1.335c1.004,0.54,2.233,0.616,3.111,1.441
			c0.064,0.06,0.181,0.078,0.268,0.08c1.092,0.032,1.891,0.757,2.758,1.243c0.471,0.268,0.987,0.401,1.453,0.685
			c1.355,0.825,2.853,1.396,4.218,2.215c0.052,0.033,0.123,0.042,0.187,0.045c1.416,0.067,2.667,0.814,4.085,0.958
			c0.911,0.094,1.829,0.145,2.743,0.252c1.269,0.146,2.549-0.024,3.819-0.095c0.811-0.046,1.647-0.206,2.406-0.485
			c1.72-0.638,2.66-2.064,3.427-3.642c0.362-0.755,0.68-1.507,0.75-2.358c0.017-0.241,0.147-0.502,0.298-0.697
			c0.188-0.241,0.271-0.496,0.336-0.784c0.175-0.813,0.363-1.616,0.704-2.389c0.163-0.369,0.273-0.773,0.313-1.2
			c0.059-0.559,0.113-1.211,0.428-1.635c0.559-0.748,0.626-1.621,0.77-2.441c0.303-1.688,0.511-3.399,0.601-5.113
			c0.088-1.65,0.079-3.306-0.085-4.964c-0.112-1.12-0.25-2.234-0.453-3.335c-0.127-0.682-0.208-1.399-0.417-2.041
			c-0.272-0.817-0.487-1.651-0.726-2.475c-0.328-1.14-0.662-2.265-1.194-3.338c-0.337-0.684-0.705-1.35-1.021-2.039
			c-0.55-1.189-1.035-2.396-1.664-3.552c-0.645-1.199-0.948-2.601-2.219-3.383c-1.386-2.171-3.569-3.447-5.56-4.938
			c-1.167-0.873-2.479-1.523-3.774-2.194c-1.478-0.766-3.058-1.303-4.611-1.855c-1.396-0.499-2.897-0.734-4.312-1.228
			c-1.47-0.515-3.022-0.722-4.438-1.443c-1.526-0.785-3.176-1.299-4.673-2.18c-1.226-0.716-2.352-1.552-3.36-2.526
			c-1.306-1.261-2.564-2.576-3.777-3.923c-0.784-0.869-1.228-2.034-2.271-2.696c-1.019-1.937-2.541-3.531-3.631-5.43
			c-0.757-1.325-1.68-2.555-2.491-3.848c-0.794-1.269-1.442-2.627-2.438-3.767c-0.418-0.481-0.803-1.021-1.056-1.601
			c-0.413-0.939-0.964-1.785-1.497-2.652c-0.415-0.677-0.92-1.32-1.246-2.021c-0.384-0.84-0.911-1.617-1.175-2.511
			c-0.188-0.63-0.558-1.148-0.935-1.67c-0.409-0.575-0.749-1.196-0.95-1.879c-0.075-0.252-0.21-0.46-0.335-0.683
			c-0.628-1.109-1.294-2.198-1.824-3.356c-0.323-0.699-0.808-1.236-1.359-1.691c-0.878-0.73-1.944-0.96-3.093-0.932
			c-0.583,0.012-1.185,0.189-1.771-0.179c-0.312-0.198-0.769-0.135-1.135-0.02c-1.371,0.423-2.81,0.556-4.159,1.092
			c-0.759,0.299-1.352,0.827-2.045,1.205c-0.554,0.303-1.225,0.404-1.642,0.962c-0.302,0.405-0.626,0.765-1.145,0.974
			c-0.348,0.139-0.732,0.461-0.879,0.847c-0.272,0.737-0.881,1.153-1.405,1.652c-0.605,0.579-1.184,1.233-1.442,1.986
			c-0.349,1.03-1.041,1.849-1.465,2.833c-0.372,0.861-0.705,1.762-1.148,2.604c-0.364,0.696-0.453,1.527-1.116,2.083
			c-0.262,0.22-0.39,0.6-0.442,0.947c-0.072,0.47-0.304,0.827-0.626,1.152c-0.202,0.207-0.322,0.474-0.482,0.71
			c-0.4,0.583-0.346,1.307-0.643,1.899c-0.277,0.551-0.417,1.108-0.541,1.705c-0.216,1.042-0.278,2.127-0.772,3.101
			c-0.506,1-1.012,1.999-1.187,3.125c-0.013,0.087-0.086,0.168-0.137,0.246c-0.434,0.679-0.698,1.423-0.943,2.184
			c-0.32,0.997-0.619,2.031-1.14,2.925c-0.758,1.3-0.888,2.864-1.834,4.066c-0.073,0.093-0.056,0.249-0.104,0.369
			c-0.231,0.587-0.357,1.264-0.736,1.733c-0.447,0.55-0.788,1.156-1.188,1.729c-0.946,1.358-2.157,2.485-3.301,3.672
			c-0.333,0.345-0.71,0.65-0.965,1.067c-0.629,1.024-1.588,1.724-2.494,2.463c-0.373,0.306-0.773,0.572-1.049,0.968
			c-0.186,0.271-0.393,0.479-0.676,0.659c-1.736,1.109-3.454,2.245-5.184,3.365c-0.184,0.119-0.407,0.224-0.62,0.246
			c-0.375,0.037-0.645,0.267-0.956,0.427c-1.047,0.543-2.114,1.048-3.271,1.316c-0.845,0.193-1.702,0.27-2.565,0.353
			c-1.044,0.1-2.076,0.384-3.126,0.514c-0.561,0.067-1.157-0.014-1.641,0.419c-0.113,0.104-0.401,0.119-0.552,0.051
			c-0.468-0.215-0.879-0.004-1.308,0.094c-1.216,0.279-2.426,0.587-3.666,0.758c-0.927,0.133-1.769,0.538-2.616,0.905
			c-0.144,0.063-0.303,0.166-0.373,0.295c-0.536,0.983-1.395,1.765-1.796,2.826c-0.822,2.171-1.188,3.614-1.632,5.902
			C51.33,195.906,51.002,197.614,51.293,198.652z"/>
		<path fill="#FFFFFF" d="M54.579,82.821c-0.242-1.586-0.14-3.186-0.137-4.781c0.001-0.557,0.281-1.086,0.403-1.637
			c0.137-0.612,0.523-1.164,0.714-1.77c0.152-0.486,0.749-0.589,0.816-1.131c0.14-1.097,1.184-1.816,1.269-2.947
			c0.004-0.054,0.061-0.111,0.103-0.157c0.737-0.784,1.088-1.725,1.433-2.745c0.28-0.83,0.659-1.705,1.124-2.472
			c0.546-0.9,0.746-1.887,1.068-2.849c0.355-1.059,0.745-2.106,1.177-3.137c0.444-1.057,0.774-2.154,1.098-3.245
			c0.158-0.526,0.386-1.013,0.582-1.516c0.407-1.04,0.845-2.069,1.042-3.175c0.069-0.385,0.188-0.739,0.348-1.094
			c0.222-0.495,0.484-0.982,0.43-1.56c-0.011-0.122,0.014-0.268,0.077-0.372c0.639-1.042,0.538-2.311,0.969-3.376
			c0.686-1.685,0.451-3.646,1.629-5.157c0.022-0.901,0.741-1.534,0.9-2.396c0.13-0.709,0.697-1.213,1.125-1.759
			c0.357-0.453,0.715-0.89,1.035-1.375c0.429-0.653,0.794-1.398,1.613-1.72c0.189-0.073,0.395-0.278,0.46-0.47
			c0.258-0.739,0.845-1.277,1.15-1.975c0.16-0.365,0.399-0.657,0.669-0.927c1.015-1.019,2.168-1.879,3.352-2.674
			c0.726-0.489,1.585-0.814,2.538-0.781c0.97,0.034,1.885-0.322,2.803-0.583c0.535-0.154,1.056-0.187,1.603-0.212
			c1.053-0.051,2.068,0.404,3.125,0.167c0.236-0.053,0.429,0.103,0.633,0.186c1.027,0.423,2.056,0.835,3.08,1.257
			c0.175,0.072,0.385,0.136,0.496,0.273c0.635,0.762,1.505,1.159,2.354,1.594c0.083,0.042,0.18,0.086,0.233,0.16
			c0.663,0.897,1.672,1.379,2.487,2.087c1.035,0.904,1.875,2.004,2.695,3.1c0.683,0.917,1.208,1.948,2.122,2.681
			c0.069,0.056,0.124,0.162,0.132,0.252c0.08,0.895,0.708,1.482,1.212,2.126c0.753,0.964,1.186,2.117,1.917,3.103
			c0.984,1.327,1.894,2.708,2.65,4.199c0.332,0.657,0.455,1.358,0.78,2.004c0.224,0.446,0.304,0.943,0.687,1.338
			c0.338,0.349,0.251,0.91,0.417,1.362c0.229,0.632,0.492,1.232,0.791,1.837c0.446,0.9,0.791,1.882,0.992,2.866
			c0.294,1.435,0.66,2.86,0.91,4.299c0.242,1.417,0.686,2.804,0.74,4.253c0.029,0.75,0.237,1.479,0.507,2.144
			c0.324,0.803,0.329,1.594,0.38,2.418c0.113,1.776,0.135,3.549,0.521,5.313c0.4,1.838,0.459,3.741,0.453,5.63
			c-0.001,0.355,0.059,0.69,0.108,1.04c0.115,0.816,0.226,1.646-0.027,2.472c-0.092,0.302-0.108,0.629-0.044,0.954
			c0.098,0.51,0.023,1.018,0.002,1.53c-0.032,0.918-0.08,1.84,0.067,2.758c0.038,0.218,0.097,0.458,0.051,0.668
			c-0.324,1.453-0.085,2.932-0.198,4.396c-0.14,1.851-0.654,3.545-1.697,5.112c-0.618,0.927-0.996,2.008-1.207,3.119
			c-0.066,0.353-0.126,0.685-0.394,0.952c-0.158,0.159-0.26,0.352-0.307,0.586c-0.198,0.957-0.781,1.741-1.275,2.544
			c-0.638,1.034-1.317,2.024-1.505,3.261c-0.065,0.412-0.186,0.802-0.625,1c-0.105,0.047-0.191,0.177-0.252,0.286
			c-0.458,0.828-0.952,1.643-1.342,2.505c-0.146,0.321-0.308,0.593-0.593,0.701c-0.679,0.257-1.072,0.815-1.425,1.363
			c-0.493,0.769-1.246,1.014-2.031,1.279c-1.02,0.346-2.072,0.64-2.864,1.447c-0.133,0.132-0.31,0.288-0.476,0.304
			c-0.858,0.083-1.699,0.347-2.546,0.368c-1.564,0.042-3.13-0.068-4.696-0.112c-0.668-0.018-1.516-0.728-1.63-1.375
			c-0.133-0.75-0.077-0.7,0.615-1.168c1.076-0.729,2.254-1.262,3.354-1.936c0.639-0.393,1.296-0.51,2.006-0.5
			c0.467,0.004,0.837-0.117,1.221-0.432c0.459-0.375,0.936-0.828,1.523-0.946c1.243-0.245,1.913-1.142,2.496-2.098
			c0.516-0.84,1.134-1.612,1.559-2.524c0.279-0.601,0.309-1.366,0.956-1.778c-0.017-0.803,0.563-1.284,0.969-1.869
			c0.174-0.255,0.306-0.598,0.31-0.901c0.004-0.75,0.457-1.317,0.772-1.907c0.473-0.891,0.851-1.757,0.794-2.793
			c-0.022-0.438,0.112-0.85,0.404-1.24c0.791-1.065,1.454-2.192,1.028-3.618c-0.056-0.19-0.003-0.378,0.075-0.562
			c0.588-1.366,0.285-2.759,0.176-4.161c-0.11-1.427-0.321-2.851-0.126-4.301c0.147-1.105,0.239-2.217-0.034-3.344
			c-0.191-0.799-0.279-1.638-0.115-2.48c0.065-0.338,0.041-0.708-0.015-1.054c-0.41-2.464-0.383-4.995-1-7.42
			c-0.277-1.092-0.233-2.22-0.57-3.293c-0.085-0.267-0.053-0.569-0.06-0.857c-0.025-1.293-0.391-2.52-0.625-3.775
			c-0.183-0.98-0.629-1.875-0.78-2.824c-0.242-1.524-0.865-2.957-0.98-4.503c-0.034-0.476-0.495-0.699-0.672-1.125
			c-0.407-0.978-0.597-2.035-1.11-2.967c-0.614-1.116-1.139-2.297-1.881-3.322c-0.492-0.681-1.001-1.384-1.399-2.094
			c-0.523-0.937-1.287-1.69-1.762-2.654c-0.478-0.974-0.99-1.954-1.59-2.843c-1.011-1.5-2.077-2.975-3.406-4.243
			c-1.041-0.995-2.24-1.803-3.231-2.851c-0.188-0.199-0.411-0.271-0.658-0.354c-0.635-0.215-1.246-0.472-1.815-0.856
			c-0.695-0.468-1.526-0.471-2.303-0.273c-0.399,0.1-0.795,0.221-1.208,0.269c-1.538,0.17-2.794,0.822-3.698,2.113
			c-0.348,0.498-0.703,0.992-1.19,1.375c-0.147,0.115-0.316,0.278-0.355,0.446c-0.221,0.908-0.941,1.427-1.522,2.053
			c-0.789,0.847-1.443,1.789-2.061,2.761c-0.171,0.271-0.327,0.565-0.548,0.787c-0.688,0.701-0.96,1.597-1.14,2.503
			c-0.215,1.099-0.435,2.18-0.917,3.199c-0.162,0.344-0.291,0.731-0.255,1.121c0.099,1.03-0.335,1.921-0.683,2.842
			c-0.323,0.859-0.558,1.747-0.947,2.589c-0.933,2.027-1.499,4.191-2.258,6.281c-0.303,0.834-0.589,1.672-0.857,2.516
			c-0.108,0.341-0.264,0.647-0.461,0.945c-0.362,0.542-0.665,1.103-0.471,1.795c0.042,0.157,0.025,0.325-0.073,0.466
			c-0.55,0.789-0.891,1.662-1.062,2.604c-0.022,0.122-0.077,0.252-0.153,0.351c-1.076,1.342-1.319,3.104-2.256,4.518
			c-0.066,0.1-0.068,0.243-0.095,0.367c-0.24,1.187-0.878,2.187-1.396,3.258c-0.369,0.762-0.534,1.658-0.994,2.416
			c0.376,0.828,0.061,1.68,0.107,2.518c0.021,0.401,0.207,0.808,0.378,1.184c0.163,0.361,0.26,0.729,0.268,1.115
			c0.019,0.912,0.349,1.751,0.601,2.605c0.215,0.735,0.682,1.357,1.063,2.013c0.306,0.525,0.617,1.047,0.939,1.56
			c0.792,1.268,1.578,2.541,2.526,3.705c0.264,0.322,0.516,0.652,0.765,0.985c1.396,1.854,2.667,3.803,3.976,5.715
			c0.692,1.01,1.442,2.029,1.945,3.178c0.19,0.439,0.438,0.864,0.728,1.243c0.891,1.156,1.546,2.489,2.633,3.499
			c0.088,0.083,0.142,0.214,0.184,0.335c0.622,1.788,2.019,3.033,3.107,4.501c1.256,1.694,3.038,2.79,4.488,4.254
			c0.314,0.315,0.68,0.521,1.198,0.46c0.362-0.041,0.75,0.14,1.123,0.227c1.277,0.297,2.583,0.352,3.881,0.469
			c0.566,0.054,2.187,1.563,2.222,2.13c0.023,0.351,0.011,0.705,0.052,1.057c0.034,0.286-0.073,0.486-0.257,0.687
			c-0.787,0.856-1.91,1.225-2.798,1.936c-0.155,0.126-0.374,0.018-0.563,0.016c-0.571-0.007-1.151-0.104-1.694,0.189
			c-0.273,0.146-0.574,0.083-0.845-0.018c-0.694-0.254-1.417-0.237-2.13-0.327c-0.702-0.09-1.457-0.172-2.118-0.516
			c-0.965-0.498-1.968-0.966-2.85-1.562c-0.843-0.57-1.772-1.106-2.389-2c-0.395-0.574-1.019-0.941-1.548-1.392
			c-0.091-0.078-0.291-0.117-0.303-0.197c-0.181-1.12-1.354-1.566-1.724-2.501c-0.343-0.876-1.192-1.393-1.419-2.323
			c-0.084-0.334-0.433-0.535-0.642-0.82c-1.225-1.671-2.22-3.488-3.355-5.214c-0.583-0.883-1.314-1.679-1.748-2.645
			c-0.431-0.952-1.327-1.622-1.57-2.676c-0.025-0.119-0.117-0.237-0.212-0.317c-0.923-0.811-1.489-1.909-2.127-2.914
			c-0.397-0.623-0.854-1.228-1.244-1.865c-0.41-0.667-0.92-1.285-1.371-1.941c-0.648-0.946-1.378-1.836-2.042-2.771
			c-0.745-1.054-1.544-2.081-1.865-3.372c-0.045-0.183-0.125-0.375-0.242-0.521c-0.95-1.195-0.936-2.695-1.287-4.077
			C54.656,83.592,54.633,83.203,54.579,82.821z"/>
		<path fill="#FFFFFF" d="M132.431,101.89c-0.235-0.727,0.006-1.438-0.085-2.121c-0.265-2.09,0.073-4.156,0.198-6.229
			c0.042-0.718,0.306-1.409,0.113-2.159c-0.117-0.452,0.245-0.87,0.408-1.241c0.331-0.747,0.437-1.555,0.658-2.309
			c0.346-1.163,0.991-2.125,1.461-3.193c0.379-0.857,0.854-1.692,1.084-2.646c0.175-0.749,0.729-1.411,1.125-2.107
			c0.349-0.61,0.764-1.189,0.867-1.91c0.023-0.169,0.124-0.282,0.22-0.412c0.4-0.526,0.772-1.052,1.025-1.699
			c0.229-0.595,0.75-1.097,1.092-1.675c0.47-0.779,1.091-1.492,1.433-2.318c0.385-0.933,0.914-1.713,1.605-2.412
			c0.114-0.112,0.213-0.25,0.276-0.393c0.577-1.325,1.498-2.439,2.326-3.594c0.688-0.964,1.317-2.021,2.335-2.728
			c0.146-0.099,0.205-0.316,0.307-0.48c0.218-0.354,0.379-0.764,0.669-1.048c0.597-0.594,0.978-1.298,1.405-2.01
			c0.398-0.67,0.896-1.343,1.433-1.954c0.247-0.286,0.497-0.583,0.606-0.969c0.16-0.577,0.411-1.098,0.901-1.496
			c0.708-0.572,1.073-1.407,1.559-2.15c0.643-0.992,1.398-1.894,2.212-2.747c0.309-0.327,0.653-0.62,0.792-1.072
			c0.055-0.189,0.149-0.392,0.348-0.43c0.931-0.181,1.35-0.978,1.835-1.615c0.608-0.793,1.355-1.364,2.219-1.768
			c0.796-0.374,1.436-0.951,2.149-1.426c0.568-0.381,1.274-0.642,1.48-1.416c0.021-0.073,0.128-0.155,0.213-0.179
			c1.373-0.362,2.532-1.296,3.964-1.499c0.476-0.069,0.954-0.121,1.434-0.18c0.504-0.06,1.033,0.001,1.455-0.383
			c0.063-0.058,0.183-0.09,0.272-0.084c1.715,0.116,3.451-0.272,5.156,0.175c0.06,0.016,0.135,0.058,0.185,0.04
			c0.86-0.313,1.38,0.234,1.864,0.775c0.503,0.558,1.235,0.753,1.813,1.215c0.994,0.798,1.924,1.625,2.68,2.657
			c0.572,0.784,1.241,1.507,1.658,2.391c0.313,0.658,0.454,1.376,0.78,2.044c0.859,1.776,1.627,3.6,2.407,5.415
			c0.286,0.67,0.643,1.337,0.509,2.116c-0.022,0.129-0.009,0.274,0.111,0.347c0.959,0.591,0.717,1.656,0.943,2.513
			c0.221,0.851,0.238,1.754,0.583,2.589c0.083,0.195,0.048,0.443,0.061,0.666c0.015,0.224-0.067,0.515,0.046,0.66
			c0.84,1.088,0.235,2.328,0.385,3.486c0.201,1.535-0.245,3.092,0.117,4.647c0.123,0.542-0.028,1.147-0.045,1.725
			c-0.017,0.452-0.007,0.9,0.221,1.313c0.061,0.111,0.151,0.252,0.128,0.352c-0.317,1.284-0.107,2.615-0.365,3.896
			c-0.061,0.32-0.129,0.604-0.061,0.923c0.045,0.223,0.045,0.479-0.097,0.651c-0.419,0.506-0.317,1.126-0.26,1.655
			c0.087,0.882,0.046,1.702-0.294,2.514c-0.059,0.142-0.049,0.315-0.056,0.475c-0.063,1.291-0.131,2.563-0.524,3.832
			c-0.254,0.823-0.459,1.709-0.5,2.611c-0.035,0.729-0.32,1.424-0.615,2.091c-0.249,0.569-0.43,1.133-0.368,1.762
			c0.074,0.823-0.348,1.549-0.539,2.312c-0.404,1.606-0.801,3.207-1.111,4.835c-0.154,0.81-0.007,1.761-0.693,2.437
			c0.096,1.057-0.505,1.887-0.911,2.782c-0.038,0.085-0.079,0.182-0.076,0.273c0.019,1.089-0.593,1.983-0.896,2.975
			c-0.265,0.867-0.745,1.609-1.178,2.384c-0.224,0.395-0.485,0.754-0.845,1.03c-0.662,0.514-1.181,1.153-1.706,1.805
			c-0.806,0.987-1.647,1.965-2.574,2.837c-0.514,0.482-0.816,1.109-1.36,1.579c-0.498,0.436-0.968,0.922-1.516,1.308
			c-0.761,0.535-1.349,1.28-2.139,1.777c-1.889,1.192-3.769,2.394-6.061,2.715c-0.911,0.125-1.8,0.438-2.697,0.672
			c-0.122,0.032-0.264,0.049-0.356,0.123c-0.856,0.659-1.83,0.711-2.872,0.71c-1.73-0.002-3.45-0.282-5.181-0.171
			c-0.128,0.009-0.271,0.027-0.386-0.015c-1.123-0.395-2.304-0.505-3.468-0.705c-0.532-0.089-1.031-0.217-1.596-0.189
			c-0.568,0.029-1.106-0.362-1.689-0.506c-0.753-0.187-1.443-0.539-2.103-1.035c-0.893-0.669-1.873-1.25-2.855-1.814
			c-0.592-0.342-1.274-0.711-1.601-1.42c-0.051-0.108-0.149-0.242-0.255-0.273c-0.706-0.208-1.004-0.863-1.471-1.326
			c-0.252-0.247-0.425-0.568-0.807-0.655c-0.167-0.04-0.27-0.169-0.339-0.32c-0.499-1.14-1.227-2.163-1.652-3.354
			c-0.242-0.67-0.45-2.396-0.062-3.58c2.028-6.365-0.449-3.007-0.736-2.862c-0.368,0.376-1.051,1.093-1.727,0.967
			c-1.235-0.134-1.482-0.257-1.83-0.814c-0.449-0.719-0.052-0.467-0.442-1.209c-0.503-0.941-0.921-1.964-1.154-3.003
			C133.118,104.363,132.423,103.197,132.431,101.89z M163.024,122.035c0.908-0.223,1.919-0.318,2.908-0.591
			c0.973-0.271,1.982-0.435,2.922-0.814c1.297-0.53,2.493-1.254,3.648-2.049c0.646-0.445,1.074-1.084,1.638-1.588
			c1.024-0.92,1.94-1.939,2.951-2.864c0.518-0.474,0.678-1.171,1.109-1.657c0.89-0.999,1.506-2.133,1.959-3.364
			c0.181-0.49,0.392-0.94,0.713-1.347c0.564-0.721,0.87-1.553,1.042-2.452c0.259-1.314,0.559-2.621,0.856-3.928
			c0.309-1.356,0.961-2.629,0.942-4.081c-0.004-0.405,0.095-0.89,0.367-1.276c0.131-0.186,0.176-0.419,0.138-0.647
			c-0.075-0.467,0.067-0.895,0.244-1.307c0.189-0.451,0.272-0.918,0.283-1.403c0.009-0.454,0.065-0.903,0.233-1.321
			c0.3-0.745,0.463-1.481,0.496-2.31c0.064-1.7,0.478-3.374,0.762-5.054c0.252-1.472,0.435-3.003,0.297-4.478
			c-0.123-1.296,0.235-2.528,0.134-3.81c-0.135-1.686-0.02-3.389-0.145-5.075c-0.055-0.827-0.091-1.657-0.154-2.483
			c-0.119-1.522-0.23-3.052-0.578-4.549c-0.239-1.022-0.713-2-0.87-3.008c-0.232-1.485-1.01-2.741-1.403-4.153
			c-0.313-1.129-0.642-2.313-1.445-3.294c-0.467-0.566-0.69-1.359-1.09-1.979c-0.73-1.141-1.279-2.437-2.385-3.312
			c-0.211-0.734-0.875-0.881-1.463-1.111c-0.879-0.346-1.748-0.732-2.752-0.5c-0.292,0.065-0.629-0.08-0.948-0.108
			c-0.254-0.023-0.534-0.087-0.761-0.01c-1.177,0.407-2.374,0.802-3.382,1.547c-1.022,0.757-1.9,1.71-3.099,2.233
			c-0.29,0.128-0.455,0.441-0.673,0.672c-0.496,0.531-0.986,1.096-1.576,1.5c-0.393,0.268-0.651,0.548-0.886,0.947
			c-0.823,1.408-1.658,2.815-2.988,3.83c-0.237,0.184-0.424,0.426-0.481,0.703c-0.212,0.986-0.835,1.682-1.487,2.399
			c-0.535,0.585-1.276,1.059-1.512,1.833c-0.207,0.672-0.509,1.211-1.028,1.66c-0.145,0.125-0.269,0.287-0.353,0.456
			c-0.424,0.9-1.156,1.578-1.743,2.351c-0.23,0.311-0.412,0.697-0.745,0.958c-1.201,0.938-1.879,2.337-2.938,3.402
			c-0.062,0.066-0.136,0.164-0.14,0.248c-0.017,0.576-0.479,0.9-0.788,1.273c-0.264,0.32-0.478,0.66-0.72,0.987
			c-0.491,0.653-0.561,1.551-1.105,2.098c-0.634,0.639-0.94,1.42-1.382,2.147c-0.604,0.992-1.331,1.909-1.695,3.034
			c-0.039,0.116-0.105,0.252-0.203,0.314c-0.488,0.31-0.624,0.786-0.696,1.312c-0.022,0.15-0.073,0.321-0.17,0.438
			c-0.886,1.112-1.409,2.413-2.03,3.676c-0.606,1.241-0.898,2.577-1.294,3.867c-0.351,1.138-0.756,2.314-0.76,3.544
			c-0.004,0.7-0.28,1.372-0.255,2.046c0.044,1.464-0.037,2.929,0.043,4.385c0.066,1.167,0.522,2.304,0.822,3.438
			c0.133,0.488,0.396,0.972,0.475,1.513c0.668,1.423-0.479,2.899,0.416,3.425c0.84,0.267,2.486-0.314,3.158-0.085
			c0.627,0.215,1.103,1.167,1.238,1.843c0.173,0.844,0.107,0.647,0.365,1.479c0.199,0.641,0.575,1.172,0.805,1.773
			c0.364,0.956,0.688,1.902,1.555,2.555c0.246,0.187,0.37,0.521,0.599,0.745c0.663,0.647,1.308,1.325,2.04,1.888
			c0.646,0.499,1.351,0.938,2.049,1.378c0.94,0.592,1.913,1.089,2.979,1.224c1.133,0.149,2.176,0.531,3.229,0.894
			c0.572,0.199,1.134,0.262,1.699,0.133c0.782-0.178,1.544-0.418,2.354-0.097C162.53,122.141,162.75,122.058,163.024,122.035z"/>
		<path fill="#FFFFFF" d="M214.924,172.53c-0.485,0.159-1.029,0.129-1.564,0.168c-0.715,0.052-1.468,0.03-2.109,0.535
			c-0.286,0.227-0.767,0.322-1.107,0.181c-0.509-0.213-0.955-0.057-1.401,0.073c-0.632,0.183-1.249,0.241-1.891,0.099
			c-0.249-0.056-0.503-0.047-0.763,0.005c-0.872,0.161-1.725,0.004-2.558-0.243c-0.374-0.11-0.744-0.2-1.135-0.154
			c-0.678,0.078-1.333-0.096-1.996-0.156c-0.984-0.092-1.933-0.358-2.885-0.546c-0.869-0.174-1.813-0.366-2.577-0.926
			c-0.131-0.095-0.236-0.264-0.377-0.292c-0.646-0.13-1.188-0.34-1.71-0.834c-0.459-0.431-1.201-0.572-1.833-0.804
			c-0.311-0.114-0.608-0.204-0.71-0.563c-0.02-0.059-0.062-0.129-0.11-0.157c-1.484-0.851-1.976-1.988-3.272-3.025
			c-0.148-0.121-1.104-1.049-1.27-1.104c-1.555-0.48-1.794-1.713-3.188-2.419c-0.125-0.063-0.251-0.231-0.28-0.37
			c-0.219-1.013-0.932-1.752-1.441-2.589c-0.672-1.102-1.201-2.224-1.555-3.48c-0.247-0.879-0.644-1.721-0.824-2.637
			c-0.438-2.282-1.049-4.516-1.008-6.89c0.022-1.296,0.441-2.481,0.552-3.737c0.049-0.548,0.491-1.015,0.725-1.534
			c0.371-0.825,0.699-1.722,1.344-2.407c0.337-0.356,0.599-0.773,0.765-1.211c0.387-1.012,1.188-1.819,1.437-2.909
			c0.048-0.205,0.349-0.348,0.52-0.533c0.799-0.842,1.579-1.703,2.394-2.525c0.32-0.328,0.561-0.683,0.793-1.069
			c0.222-0.363,0.479-0.704,0.86-0.988c0.433-0.316,0.655-0.916,0.967-1.392c0.121-0.187,0.216-0.481,0.384-0.536
			c0.887-0.286,1.398-1.043,2.096-1.564c0.452-0.335,0.782-0.767,1.044-1.235c0.815-1.441,2.003-2.537,3.22-3.611
			c0.317-0.279,0.573-0.596,0.847-0.91c0.816-0.935,1.776-1.731,2.641-2.617c0.708-0.733,1.422-1.459,2.146-2.175
			c0.971-0.957,1.871-1.986,3.104-2.627c0.085-0.044,0.18-0.088,0.239-0.161c0.938-1.111,2.253-1.759,3.36-2.66
			c0.757-0.615,1.539-1.246,2.448-1.665c0.316-0.148,0.621-0.317,0.837-0.626c0.125-0.176,0.306-0.365,0.499-0.436
			c0.864-0.313,1.465-0.983,2.159-1.521c0.192-0.148,0.375-0.228,0.61-0.218c0.231,0.01,0.443-0.059,0.646-0.168
			c1.7-0.92,3.563-1.399,5.381-2.005c0.669-0.222,1.325-0.481,1.989-0.709c1.174-0.401,2.347-0.788,3.521-1.181
			c0.152-0.051,0.327-0.074,0.447-0.167c1.029-0.761,2.127-0.429,3.23-0.262c0.817,0.122,1.646,0.182,2.475,0.086
			c0.429-0.049,0.778,0.035,1.18,0.248c0.804,0.431,1.736,0.409,2.621,0.45c0.633,0.03,1.202,0.128,1.726,0.482
			c0.236,0.164,0.479,0.314,0.771,0.375c1.119,0.235,1.834,0.979,2.372,1.925c0.222,0.391,0.438,0.779,0.787,1.074
			c0.098,0.08,0.203,0.187,0.238,0.298c0.353,1.151,1.121,2.082,1.621,3.155c0.139,0.297,0.208,0.604,0.271,0.918
			c0.036,0.187,0.026,0.406,0.127,0.56c0.849,1.334,1.006,2.95,1.779,4.318c0.242,0.424,0.123,0.947,0.184,1.422
			c0.171,1.27,0.284,2.543,0.023,3.824c-0.083,0.396-0.155,0.818,0.072,1.216c0.058,0.107,0.083,0.256,0.064,0.376
			c-0.241,1.333-0.03,2.691-0.205,4.027c-0.048,0.352-0.083,0.693-0.072,1.051c0.015,0.694,0.142,1.393-0.124,2.087
			c-0.082,0.215,0.018,0.504,0.041,0.759c0.023,0.224,0.143,0.484,0.065,0.661c-0.508,1.12-0.065,2.336-0.378,3.475
			c-0.152,0.554-0.157,1.139-0.087,1.719c0.044,0.381,0.063,0.764-0.173,1.119c-0.104,0.149-0.168,0.355-0.173,0.539
			c-0.03,1.986-0.713,3.784-1.493,5.579c-0.354,0.814-0.661,1.662-0.963,2.511c-0.087,0.241-0.206,0.468-0.117,0.74
			c0.066,0.194,0.011,0.394-0.082,0.557c-0.796,1.374-1.285,2.917-2.317,4.156c-0.062,0.077-0.175,0.132-0.195,0.211
			c-0.456,1.901-1.98,3.146-2.886,4.758c-0.755,1.354-1.657,2.618-2.358,4.013c-0.581,1.154-1.336,2.337-2.313,3.141
			c-1.316,1.084-2.487,2.368-4.001,3.201c-0.575,0.909-1.672,1.122-2.412,1.826c-0.368,0.348-0.954,0.489-1.467,0.654
			c-0.287,0.09-0.517,0.232-0.735,0.416c-0.984,0.813-2.107,1.4-3.281,1.851c-0.777,0.3-1.456,0.767-2.191,1.133
			C216.307,172.276,215.694,172.556,214.924,172.53z M213.657,166.808c0.717-0.228,1.508-0.291,2.276-0.575
			c0.758-0.285,1.424-0.731,2.168-1.007c0.912-0.333,1.639-0.964,2.391-1.51c0.518-0.373,1.006-0.786,1.602-0.999
			c0.423-0.149,0.721-0.442,0.997-0.729c0.758-0.789,1.705-1.312,2.554-1.972c0.961-0.743,1.813-1.59,2.588-2.523
			c0.474-0.572,0.7-1.345,1.194-1.808c1.339-1.27,1.961-2.964,2.921-4.449c0.602-0.923,1.365-1.741,1.819-2.769
			c0.339-0.758,0.464-1.637,1.161-2.214c0.054-0.046,0.004-0.195,0.045-0.277c0.396-0.87,0.514-1.827,0.907-2.707
			c0.275-0.62,0.67-1.188,0.768-1.923c0.123-0.939-0.164-1.905,0.294-2.823c0.269-0.536,0.129-1.215,0.273-1.777
			c0.169-0.636,0.225-1.229,0.165-1.864c-0.016-0.154,0.05-0.313,0.073-0.469c0.118-0.787,0.252-1.559,0.16-2.372
			c-0.067-0.584,0.064-1.194,0.142-1.786c0.109-0.868,0.231-1.739,0.396-2.598c0.149-0.766,0.044-1.532,0.05-2.295
			c0.007-1.206,0.194-2.407-0.016-3.63c-0.121-0.709-0.181-1.457-0.232-2.191c-0.137-1.996-0.488-3.935-1.739-5.588
			c-0.124-0.165-0.171-0.336-0.219-0.524c-0.688-2.685-2.647-4.296-4.842-5.698c-0.247-0.156-0.591-0.266-0.916-0.186
			c-0.264,0.062-0.513-0.053-0.757-0.042c-1.022,0.045-2.022-0.355-3.044-0.187c-0.854,0.141-1.69,0.382-2.545,0.487
			c-0.812,0.099-1.491,0.59-2.29,0.678c-0.621,0.063-1.237,0.22-1.735,0.531c-0.827,0.511-1.85,0.498-2.623,1.112
			c-0.179,0.14-0.486,0.135-0.738,0.167c-0.19,0.021-0.38-0.008-0.564,0.089c-1.252,0.674-2.415,1.491-3.596,2.28
			c-1.035,0.692-1.935,1.56-2.918,2.321c-0.606,0.468-1.298,0.772-1.907,1.222c-0.495,0.364-0.774,0.939-1.322,1.201
			c-1.202,0.575-2.051,1.599-3.066,2.406c-0.923,0.738-1.862,1.467-2.418,2.562c-0.069,0.135-0.227,0.223-0.337,0.336
			c-0.938,0.979-2.312,1.536-2.797,2.94c-0.011,0.031-0.038,0.052-0.062,0.076c-0.642,0.667-1.297,1.317-1.919,2
			c-0.899,0.984-1.865,1.898-2.738,2.912c-0.56,0.652-1.03,1.36-1.569,2.016c-0.484,0.589-0.933,1.194-1.407,1.786
			c-0.49,0.612-1.194,1.122-1.468,1.813c-0.368,0.929-1.185,1.483-1.562,2.348c-0.299,0.688-1.023,1.096-1.228,1.777
			c-0.207,0.707-0.648,1.247-1.026,1.817c-0.353,0.526-0.566,1.09-0.708,1.666c-0.173,0.71-0.17,1.456-0.498,2.137
			c-0.096,0.204-0.034,0.458,0.06,0.658c0.137,0.276,0.126,0.557,0.106,0.845c-0.049,0.672,0.06,1.32,0.274,1.958
			c0.103,0.301,0.115,0.631,0.193,0.938c0.198,0.776,0.227,1.67,0.651,2.291c0.852,1.229,1.208,2.675,1.935,3.958
			c0.596,1.055,0.982,1.566,2.146,2.269c0.42,0.585,1.198,1.022,1.465,1.341c0.616,0.735,1.752,1.754,2.314,2.541
			c0.784,1.091,1.072,0.7,2.256,1.396c0.741,0.438,1.508,0.84,2.234,1.298c1.708,1.076,3.537,1.754,5.58,1.764
			c0.159,0.005,0.323,0.028,0.474,0.071c0.885,0.262,1.789,0.271,2.7,0.346c0.675,0.056,1.346-0.077,1.989-0.024
			c1.039,0.085,2.044,0.016,3.006-0.302C211.98,167.074,212.777,166.876,213.657,166.808z"/>
		<path fill="#FFFFFF" d="M27.539,100.595c0.71-0.249,1.375-0.336,2.052-0.368c0.845-0.038,1.601,0.416,2.435,0.424
			c0.501,0.736,1.363,0.625,2.054,0.921c1.493,0.637,2.905,1.461,4.324,2.261c0.927,0.523,1.815,1.115,2.585,1.787
			c1.002,0.872,2.159,1.483,3.191,2.284c0.339,0.263,0.586,0.592,0.85,0.91c0.657,0.799,1.641,1.211,2.3,2.013
			c0.179,0.217,0.405,0.395,0.556,0.649c0.247,0.412,0.545,0.779,1,1.002c0.256,0.125,0.494,0.308,0.638,0.571
			c0.208,0.378,0.474,0.676,0.912,0.792c0.197,0.053,0.293,0.22,0.407,0.382c0.273,0.389,0.556,0.777,1.039,0.951
			c0.139,0.051,0.278,0.174,0.361,0.302c0.715,1.105,1.747,1.902,2.653,2.828c0.754,0.772,1.528,1.523,2.291,2.286
			c0.396,0.395,0.934,0.576,1.305,0.961c1.111,1.149,2.333,2.163,3.547,3.195c0.821,0.696,1.676,1.422,2.168,2.439
			c0.166,0.344,0.607,0.343,0.831,0.628c0.639,0.807,1.436,1.477,1.998,2.356c0.253,0.396,0.67,0.687,0.896,1.12
			c0.499,0.964,1.578,1.559,1.746,2.735c0.573,0.54,0.831,1.27,1.185,1.94c0.253,0.483,0.371,0.986,0.459,1.538
			c0.109,0.691,0.485,1.349,0.782,2.005c0.247,0.537,0.608,1.039,0.643,1.649c0.063,1.137,0.144,2.275,0.123,3.416
			c-0.016,0.889-0.057,1.778,0,2.667c0.028,0.437-0.112,0.819-0.201,1.226c-0.38,1.741-1.275,3.231-2.248,4.688
			c-0.125,0.186-0.298,0.363-0.354,0.571c-0.236,0.871-0.988,1.307-1.595,1.834c-0.293,0.258-0.526,0.477-0.497,0.854
			c0.027,0.374-0.129,0.6-0.419,0.792c-0.276,0.184-0.517,0.45-0.58,0.749c-0.242,1.165-1.247,1.926-1.568,3.048
			c-0.084,0.294-0.399,0.487-0.599,0.736c-1.287,1.614-2.275,3.433-3.494,5.091c-0.435,0.595-0.901,1.167-1.36,1.737
			c-0.366,0.454-0.736,0.915-1.086,1.374c-1.038,1.357-2.399,2.208-3.88,2.995c-1.482,0.785-3.079,1.124-4.668,1.379
			c-1.425,0.228-2.93,0.249-4.336-0.352c-0.172-0.076-0.377-0.105-0.562-0.096c-1.11,0.074-2.027-0.382-2.915-0.978
			c-0.423-0.279-0.921-0.446-1.359-0.701c-1.2-0.679-2.408-1.352-2.969-2.773c-0.268-0.684-0.512-1.293-0.265-2.02
			c0.251-0.741,1.169-1.294,1.937-1.178c1.297,0.191,2.54,0.562,3.793,0.948c0.917,0.282,1.796,0.655,2.708,0.942
			c2.055,0.651,4.102,0.568,6.155,0.027c0.354-0.09,0.692-0.278,0.909-0.517c0.662-0.728,1.463-1.318,2.036-2.127
			c0.741-1.044,1.491-2.081,2.203-3.142c0.271-0.41,0.603-0.75,0.936-1.091c1.083-1.118,1.742-2.529,2.622-3.786
			c0.808-1.152,1.516-2.369,1.993-3.703c0.166-0.469,0.564-0.77,0.838-1.157c0.607-0.865,1.196-1.745,1.763-2.639
			c0.323-0.511,0.437-1.152,0.709-1.65c0.606-1.101,0.148-2.196,0.258-3.28c0.059-0.581-0.425-1.071-0.416-1.667
			c0.016-0.943-0.333-1.793-0.676-2.648c-0.263-0.654-0.676-1.226-1.014-1.83c-0.372-0.661-0.571-1.41-1.066-2.023
			c-0.237-0.29-0.453-0.608-0.718-0.882c-0.111-0.114-0.277-0.204-0.336-0.338c-0.591-1.386-1.923-2.094-2.846-3.159
			c-1.357-1.572-3.183-2.667-4.361-4.404c-0.169-0.25-0.449-0.357-0.681-0.524c-0.232-0.169-0.554-0.278-0.636-0.564
			c-0.136-0.475-0.486-0.68-0.892-0.787c-0.394-0.104-0.562-0.428-0.762-0.692c-0.561-0.745-1.131-1.463-1.989-1.89
			c-0.285-0.143-0.317-0.466-0.504-0.685c-0.516-0.603-1.211-0.918-1.872-1.29c-0.24-0.131-0.453-0.229-0.404-0.559
			c0.027-0.175-0.093-0.333-0.219-0.405c-0.693-0.397-1.012-1.192-1.615-1.61c-0.743-0.522-1.147-1.383-1.979-1.774
			c-0.111-0.054-0.22-0.144-0.294-0.243c-1.385-1.827-3.128-3.241-4.996-4.554c-1.065-0.746-2.088-1.56-3.158-2.31
			c-0.243-0.171-0.478-0.316-0.774-0.352c-0.233-0.025-0.408-0.142-0.589-0.294c-0.76-0.638-1.593-1.132-2.611-1.266
			c-0.239-0.031-0.459-0.215-0.686-0.334c-0.139-0.076-0.328-0.267-0.4-0.227c-0.661,0.355-1.207-0.187-1.804-0.187
			c-0.517-0.001-1.025-0.019-1.572,0.25c-1.8,0.882-3.237,2.201-4.658,3.559c-1.457,1.391-2.351,3.161-3.256,4.916
			c-0.157,0.308-0.22,0.667-0.29,1.012c-0.04,0.193-0.037,0.413-0.234,0.495c-0.542,0.222-0.681,0.689-0.86,1.188
			c-0.254,0.707-0.724,1.345-0.551,2.158c0.012,0.06-0.002,0.133-0.03,0.187c-0.786,1.654-0.427,3.434-0.599,5.155
			c-0.081,0.793-0.013,1.501,0.31,2.219c0.103,0.225,0.143,0.5,0.136,0.752c-0.036,1.48,0.501,2.875,0.625,4.344
			c0.099,1.193,0.574,2.378,1.168,3.441c0.619,1.105,0.966,2.296,1.313,3.486c0.255,0.869,0.583,1.686,1.116,2.408
			c0.233,0.321,0.398,0.647,0.472,1.038c0.194,1.052,0.627,2.012,1.216,2.899c0.34,0.517,0.55,1.135,0.656,1.674
			c0.232,1.188,0.859,2.201,1.253,3.309c0.7,1.968,1.522,3.896,2.605,5.711c0.571,0.957,1.293,1.798,1.849,2.758
			c0.495,0.855,0.98,1.719,1.532,2.539c0.641,0.959,1.158,2.004,1.828,2.919c0.494,0.675,0.876,1.476,1.569,2.016
			c0.197,0.153,0.354,0.373,0.487,0.591c0.475,0.771,0.966,1.517,1.908,1.796c0.31,0.095,0.41,0.396,0.544,0.647
			c0.27,0.513,0.306,1.102,0.497,1.646c0.177,0.511-0.335,1.149-0.965,1.209c-1.601,0.151-3.215,0.267-4.517-0.987
			c-0.141-0.135-0.289-0.244-0.499-0.253c-0.201-0.009-0.426-0.072-0.479-0.264c-0.157-0.597-0.699-0.828-1.1-1.167
			c-1.067-0.902-2.061-1.854-2.663-3.142c-0.014-0.031-0.03-0.062-0.052-0.081c-1.381-1.308-1.905-3.16-2.973-4.659
			c-0.701-0.985-1.291-2.037-1.916-3.065c-0.569-0.937-1.004-1.969-1.434-2.985c-1.065-2.529-2.055-5.094-3.154-7.611
			c-0.674-1.546-1.496-3.029-2.027-4.643c-0.88-0.889-0.757-2.282-1.604-3.191c-0.042-0.045-0.064-0.113-0.078-0.177
			c-0.646-2.607-1.82-5.05-2.427-7.664c-0.366-1.582-0.7-3.192-0.534-4.847c0.049-0.483-0.068-0.96-0.161-1.431
			c-0.159-0.795-0.153-1.584-0.091-2.39c0.081-1.101,0.086-2.208,0.136-3.313c0.026-0.545,0.089-1.095,0.285-1.603
			c0.524-1.348,0.928-2.729,1.601-4.034c0.713-1.384,1.343-2.814,2.194-4.125c0.359-0.552,0.687-1.131,1.167-1.606
			c0.245-0.244,0.422-0.568,0.584-0.877c0.211-0.399,0.4-0.8,0.757-1.096c0.069-0.059,0.127-0.151,0.159-0.238
			c0.338-0.957,0.943-1.701,1.775-2.271c0.025-0.019,0.052-0.044,0.062-0.072c0.436-1.205,1.604-1.633,2.488-2.362
			c0.072-0.058,0.205-0.079,0.24-0.151c0.555-1.127,1.768-1.359,2.688-1.987c0.026-0.018,0.057-0.031,0.081-0.051
			C25.79,100.898,26.63,100.555,27.539,100.595z"/>
	</g>
</g>
</svg>
